<svg xmlns="http://www.w3.org/2000/svg" xmlns:xlink="http://www.w3.org/1999/xlink" width="500" zoomAndPan="magnify" viewBox="0 0 375 374.999991" height="500" preserveAspectRatio="xMidYMid meet" version="1.0"><defs><clipPath id="bf20558663"><path d="M 112.5 112.5 L 262.5 112.5 L 262.5 262.5 L 112.5 262.5 Z M 112.5 112.5 " clip-rule="nonzero"/></clipPath></defs><g clip-path="url(#bf20558663)"><path fill="#ffa726" d="M 262.484375 187.484375 C 262.484375 188.710938 262.453125 189.9375 262.394531 191.164062 C 262.332031 192.390625 262.242188 193.613281 262.125 194.835938 C 262.003906 196.058594 261.851562 197.273438 261.671875 198.488281 C 261.492188 199.703125 261.28125 200.914062 261.042969 202.117188 C 260.804688 203.320312 260.535156 204.515625 260.238281 205.707031 C 259.9375 206.898438 259.609375 208.082031 259.253906 209.253906 C 258.898438 210.429688 258.511719 211.59375 258.101562 212.75 C 257.6875 213.90625 257.246094 215.050781 256.773438 216.1875 C 256.304688 217.320312 255.808594 218.441406 255.285156 219.550781 C 254.757812 220.660156 254.207031 221.757812 253.628906 222.839844 C 253.050781 223.921875 252.445312 224.988281 251.8125 226.042969 C 251.183594 227.09375 250.527344 228.132812 249.84375 229.152344 C 249.164062 230.171875 248.457031 231.175781 247.726562 232.160156 C 246.992188 233.148438 246.238281 234.113281 245.460938 235.0625 C 244.679688 236.011719 243.878906 236.941406 243.054688 237.851562 C 242.230469 238.761719 241.386719 239.648438 240.515625 240.515625 C 239.648438 241.386719 238.761719 242.230469 237.851562 243.054688 C 236.941406 243.878906 236.011719 244.679688 235.0625 245.460938 C 234.113281 246.238281 233.148438 246.992188 232.160156 247.726562 C 231.175781 248.457031 230.171875 249.164062 229.152344 249.84375 C 228.132812 250.527344 227.09375 251.183594 226.042969 251.8125 C 224.988281 252.445312 223.921875 253.050781 222.839844 253.628906 C 221.757812 254.207031 220.660156 254.757812 219.550781 255.285156 C 218.441406 255.808594 217.320312 256.304688 216.1875 256.773438 C 215.050781 257.246094 213.90625 257.6875 212.75 258.101562 C 211.59375 258.511719 210.429688 258.898438 209.253906 259.253906 C 208.082031 259.609375 206.898438 259.9375 205.707031 260.238281 C 204.515625 260.535156 203.320312 260.804688 202.117188 261.042969 C 200.914062 261.28125 199.703125 261.492188 198.488281 261.671875 C 197.273438 261.851562 196.058594 262.003906 194.835938 262.125 C 193.613281 262.242188 192.390625 262.332031 191.164062 262.394531 C 189.9375 262.453125 188.710938 262.484375 187.484375 262.484375 C 186.257812 262.484375 185.03125 262.453125 183.804688 262.394531 C 182.578125 262.332031 181.355469 262.242188 180.132812 262.125 C 178.910156 262.003906 177.695312 261.851562 176.480469 261.671875 C 175.265625 261.492188 174.054688 261.28125 172.851562 261.042969 C 171.648438 260.804688 170.453125 260.535156 169.261719 260.238281 C 168.070312 259.9375 166.886719 259.609375 165.714844 259.253906 C 164.539062 258.898438 163.375 258.511719 162.21875 258.101562 C 161.0625 257.6875 159.917969 257.246094 158.78125 256.773438 C 157.648438 256.304688 156.527344 255.808594 155.417969 255.285156 C 154.308594 254.757812 153.210938 254.207031 152.128906 253.628906 C 151.046875 253.050781 149.980469 252.445312 148.925781 251.8125 C 147.875 251.183594 146.835938 250.527344 145.816406 249.84375 C 144.796875 249.164062 143.792969 248.457031 142.808594 247.726562 C 141.820312 246.992188 140.855469 246.238281 139.90625 245.460938 C 138.957031 244.679688 138.027344 243.878906 137.117188 243.054688 C 136.207031 242.230469 135.320312 241.386719 134.453125 240.515625 C 133.582031 239.648438 132.738281 238.761719 131.914062 237.851562 C 131.089844 236.941406 130.289062 236.011719 129.507812 235.0625 C 128.730469 234.113281 127.976562 233.148438 127.242188 232.160156 C 126.511719 231.175781 125.804688 230.171875 125.125 229.152344 C 124.441406 228.132812 123.785156 227.09375 123.15625 226.042969 C 122.523438 224.988281 121.917969 223.921875 121.339844 222.839844 C 120.761719 221.757812 120.210938 220.660156 119.683594 219.550781 C 119.160156 218.441406 118.664062 217.320312 118.195312 216.1875 C 117.722656 215.050781 117.28125 213.90625 116.867188 212.75 C 116.453125 211.59375 116.070312 210.429688 115.714844 209.253906 C 115.359375 208.082031 115.03125 206.898438 114.730469 205.707031 C 114.433594 204.515625 114.164062 203.320312 113.925781 202.117188 C 113.6875 200.914062 113.476562 199.703125 113.296875 198.488281 C 113.117188 197.273438 112.964844 196.058594 112.84375 194.835938 C 112.726562 193.613281 112.636719 192.390625 112.574219 191.164062 C 112.515625 189.9375 112.484375 188.710938 112.484375 187.484375 C 112.484375 186.257812 112.515625 185.03125 112.574219 183.804688 C 112.636719 182.578125 112.726562 181.355469 112.84375 180.132812 C 112.964844 178.910156 113.117188 177.695312 113.296875 176.480469 C 113.476562 175.265625 113.6875 174.054688 113.925781 172.851562 C 114.164062 171.648438 114.433594 170.453125 114.730469 169.261719 C 115.03125 168.070312 115.359375 166.886719 115.714844 165.714844 C 116.070312 164.539062 116.453125 163.375 116.867188 162.21875 C 117.28125 161.0625 117.722656 159.917969 118.195312 158.78125 C 118.664062 157.648438 119.160156 156.527344 119.683594 155.417969 C 120.210938 154.308594 120.761719 153.210938 121.339844 152.128906 C 121.917969 151.046875 122.523438 149.980469 123.15625 148.925781 C 123.785156 147.875 124.441406 146.835938 125.125 145.816406 C 125.804688 144.796875 126.511719 143.792969 127.242188 142.808594 C 127.976562 141.820312 128.730469 140.855469 129.507812 139.90625 C 130.289062 138.957031 131.089844 138.027344 131.914062 137.117188 C 132.738281 136.207031 133.582031 135.320312 134.453125 134.453125 C 135.320312 133.582031 136.207031 132.738281 137.117188 131.914062 C 138.027344 131.089844 138.957031 130.289062 139.90625 129.507812 C 140.855469 128.730469 141.820312 127.976562 142.808594 127.242188 C 143.792969 126.511719 144.796875 125.804688 145.816406 125.125 C 146.835938 124.441406 147.875 123.785156 148.925781 123.15625 C 149.980469 122.523438 151.046875 121.917969 152.128906 121.339844 C 153.210938 120.761719 154.308594 120.210938 155.417969 119.683594 C 156.527344 119.160156 157.648438 118.664062 158.78125 118.195312 C 159.917969 117.722656 161.0625 117.28125 162.21875 116.867188 C 163.375 116.453125 164.539062 116.070312 165.714844 115.714844 C 166.886719 115.359375 168.070312 115.03125 169.261719 114.730469 C 170.453125 114.433594 171.648438 114.164062 172.851562 113.925781 C 174.054688 113.6875 175.265625 113.476562 176.480469 113.296875 C 177.695312 113.117188 178.910156 112.964844 180.132812 112.84375 C 181.355469 112.726562 182.578125 112.636719 183.804688 112.574219 C 185.03125 112.515625 186.257812 112.484375 187.484375 112.484375 C 188.710938 112.484375 189.9375 112.515625 191.164062 112.574219 C 192.390625 112.636719 193.613281 112.726562 194.835938 112.84375 C 196.058594 112.964844 197.273438 113.117188 198.488281 113.296875 C 199.703125 113.476562 200.914062 113.6875 202.117188 113.925781 C 203.320312 114.164062 204.515625 114.433594 205.707031 114.730469 C 206.898438 115.03125 208.082031 115.359375 209.253906 115.714844 C 210.429688 116.070312 211.59375 116.453125 212.75 116.867188 C 213.90625 117.28125 215.050781 117.722656 216.1875 118.195312 C 217.320312 118.664062 218.441406 119.160156 219.550781 119.683594 C 220.660156 120.210938 221.757812 120.761719 222.839844 121.339844 C 223.921875 121.917969 224.988281 122.523438 226.042969 123.15625 C 227.09375 123.785156 228.132812 124.441406 229.152344 125.125 C 230.171875 125.804688 231.175781 126.511719 232.160156 127.242188 C 233.148438 127.976562 234.113281 128.730469 235.0625 129.507812 C 236.011719 130.289062 236.941406 131.089844 237.851562 131.914062 C 238.761719 132.738281 239.648438 133.582031 240.515625 134.453125 C 241.386719 135.320312 242.230469 136.207031 243.054688 137.117188 C 243.878906 138.027344 244.679688 138.957031 245.460938 139.90625 C 246.238281 140.855469 246.992188 141.820312 247.726562 142.808594 C 248.457031 143.792969 249.164062 144.796875 249.84375 145.816406 C 250.527344 146.835938 251.183594 147.875 251.8125 148.925781 C 252.445312 149.980469 253.050781 151.046875 253.628906 152.128906 C 254.207031 153.210938 254.757812 154.308594 255.285156 155.417969 C 255.808594 156.527344 256.304688 157.648438 256.773438 158.78125 C 257.246094 159.917969 257.6875 161.0625 258.101562 162.21875 C 258.511719 163.375 258.898438 164.539062 259.253906 165.714844 C 259.609375 166.886719 259.9375 168.070312 260.238281 169.261719 C 260.535156 170.453125 260.804688 171.648438 261.042969 172.851562 C 261.28125 174.054688 261.492188 175.265625 261.671875 176.480469 C 261.851562 177.695312 262.003906 178.910156 262.125 180.132812 C 262.242188 181.355469 262.332031 182.578125 262.394531 183.804688 C 262.453125 185.03125 262.484375 186.257812 262.484375 187.484375 Z M 262.484375 187.484375 " fill-opacity="1" fill-rule="nonzero"/></g><path fill="#ffffff" d="M 214.78125 156.394531 C 206.738281 156.394531 200.761719 151.894531 199.160156 150.535156 C 192.359375 145.632812 184.960938 143.875 177.199219 145.335938 C 172.660156 146.175781 169.359375 147.894531 168.101562 148.632812 L 168.101562 141.972656 L 170.960938 141.972656 C 171.660156 141.972656 172.199219 141.414062 172.199219 140.734375 C 172.199219 140.054688 171.640625 139.496094 170.960938 139.496094 L 162.761719 139.496094 C 162.058594 139.496094 161.519531 140.054688 161.519531 140.734375 C 161.519531 141.414062 162.078125 141.972656 162.761719 141.972656 L 165.621094 141.972656 L 165.621094 215.914062 C 166.019531 215.8125 166.441406 215.753906 166.859375 215.753906 C 167.28125 215.753906 167.699219 215.8125 168.101562 215.914062 L 168.101562 184.433594 C 169.921875 183.515625 172.921875 182.234375 176.738281 181.515625 C 178.378906 181.214844 180.238281 180.996094 182.300781 180.996094 C 187.578125 180.996094 194.039062 182.394531 200.660156 187.175781 C 200.679688 187.195312 200.699219 187.214844 200.738281 187.234375 C 202.78125 188.953125 213.5 197.035156 226.140625 189.015625 L 226.140625 153.273438 C 222.078125 155.554688 218.238281 156.394531 214.78125 156.394531 Z M 223.421875 186.734375 C 223.421875 187.414062 222.859375 187.972656 222.179688 187.972656 C 221.5 187.972656 220.941406 187.414062 220.941406 186.734375 L 220.941406 160.855469 C 216.621094 161.875 212.238281 161.8125 207.878906 160.695312 C 207.21875 160.515625 206.820312 159.835938 206.980469 159.175781 C 207.160156 158.515625 207.839844 158.113281 208.5 158.273438 C 212.960938 159.414062 217.441406 159.335938 221.820312 158.035156 C 222.199219 157.914062 222.601562 157.996094 222.921875 158.234375 C 223.238281 158.472656 223.421875 158.835938 223.421875 159.234375 Z M 223.421875 186.734375 " fill-opacity="1" fill-rule="nonzero"/><path fill="#ffffff" d="M 166.859375 218.234375 C 165.300781 218.234375 164.019531 219.632812 163.738281 221.496094 L 169.980469 221.496094 C 169.699219 219.65625 168.421875 218.234375 166.859375 218.234375 Z M 166.859375 218.234375 " fill-opacity="1" fill-rule="nonzero"/><path fill="#ffffff" d="M 183.621094 232.996094 L 174.71875 232.996094 L 173.339844 226.292969 C 173.21875 225.753906 172.761719 223.996094 171.261719 223.996094 L 162.460938 223.996094 C 160.980469 223.996094 160.5 225.753906 160.378906 226.292969 L 159 232.996094 L 150.101562 232.996094 C 149.421875 232.996094 148.859375 233.554688 148.859375 234.234375 C 148.859375 234.914062 149.421875 235.472656 150.101562 235.472656 L 183.601562 235.472656 C 184.28125 235.472656 184.839844 234.914062 184.839844 234.234375 C 184.859375 233.554688 184.300781 232.996094 183.621094 232.996094 Z M 183.621094 232.996094 " fill-opacity="1" fill-rule="nonzero"/></svg>