<svg xmlns="http://www.w3.org/2000/svg" xmlns:xlink="http://www.w3.org/1999/xlink" width="500" zoomAndPan="magnify" viewBox="0 0 375 374.999991" height="500" preserveAspectRatio="xMidYMid meet" version="1.0"><path fill="#ffa726" d="M 374.960938 187.460938 C 374.960938 190.53125 374.886719 193.597656 374.734375 196.660156 C 374.585938 199.726562 374.359375 202.785156 374.058594 205.839844 C 373.757812 208.894531 373.382812 211.9375 372.929688 214.972656 C 372.480469 218.007812 371.957031 221.03125 371.359375 224.039062 C 370.757812 227.050781 370.085938 230.042969 369.339844 233.019531 C 368.597656 235.996094 367.777344 238.953125 366.886719 241.890625 C 365.996094 244.824219 365.035156 247.738281 364 250.628906 C 362.964844 253.515625 361.863281 256.378906 360.6875 259.214844 C 359.515625 262.050781 358.269531 264.851562 356.957031 267.628906 C 355.648438 270.402344 354.269531 273.140625 352.820312 275.847656 C 351.375 278.554688 349.863281 281.222656 348.285156 283.855469 C 346.707031 286.488281 345.066406 289.078125 343.363281 291.628906 C 341.65625 294.183594 339.890625 296.691406 338.0625 299.15625 C 336.234375 301.621094 334.347656 304.039062 332.398438 306.410156 C 330.453125 308.78125 328.449219 311.105469 326.390625 313.378906 C 324.328125 315.652344 322.214844 317.875 320.042969 320.042969 C 317.875 322.214844 315.652344 324.328125 313.378906 326.390625 C 311.105469 328.449219 308.78125 330.453125 306.410156 332.398438 C 304.039062 334.347656 301.621094 336.234375 299.15625 338.0625 C 296.691406 339.890625 294.183594 341.65625 291.628906 343.363281 C 289.078125 345.066406 286.488281 346.707031 283.855469 348.285156 C 281.222656 349.863281 278.554688 351.375 275.847656 352.820312 C 273.140625 354.269531 270.402344 355.648438 267.628906 356.957031 C 264.851562 358.269531 262.050781 359.515625 259.214844 360.6875 C 256.378906 361.863281 253.515625 362.964844 250.628906 364 C 247.738281 365.035156 244.824219 365.996094 241.890625 366.886719 C 238.953125 367.777344 235.996094 368.597656 233.019531 369.339844 C 230.042969 370.085938 227.050781 370.757812 224.039062 371.359375 C 221.03125 371.957031 218.007812 372.480469 214.972656 372.929688 C 211.9375 373.382812 208.894531 373.757812 205.839844 374.058594 C 202.785156 374.359375 199.726562 374.585938 196.660156 374.734375 C 193.597656 374.886719 190.53125 374.960938 187.460938 374.960938 C 184.390625 374.960938 181.324219 374.886719 178.261719 374.734375 C 175.195312 374.585938 172.136719 374.359375 169.082031 374.058594 C 166.027344 373.757812 162.984375 373.382812 159.949219 372.929688 C 156.914062 372.480469 153.890625 371.957031 150.882812 371.359375 C 147.871094 370.757812 144.878906 370.085938 141.902344 369.339844 C 138.925781 368.597656 135.96875 367.777344 133.03125 366.886719 C 130.097656 365.996094 127.183594 365.035156 124.292969 364 C 121.40625 362.964844 118.542969 361.863281 115.707031 360.6875 C 112.871094 359.515625 110.066406 358.269531 107.292969 356.957031 C 104.519531 355.648438 101.78125 354.269531 99.074219 352.820312 C 96.367188 351.375 93.699219 349.863281 91.066406 348.285156 C 88.433594 346.707031 85.84375 345.066406 83.292969 343.363281 C 80.738281 341.65625 78.230469 339.890625 75.765625 338.0625 C 73.300781 336.234375 70.882812 334.347656 68.511719 332.398438 C 66.140625 330.453125 63.816406 328.449219 61.542969 326.390625 C 59.269531 324.328125 57.046875 322.214844 54.878906 320.042969 C 52.707031 317.875 50.59375 315.652344 48.53125 313.378906 C 46.472656 311.105469 44.46875 308.78125 42.519531 306.410156 C 40.574219 304.039062 38.6875 301.621094 36.859375 299.15625 C 35.03125 296.691406 33.265625 294.183594 31.558594 291.628906 C 29.855469 289.078125 28.214844 286.488281 26.636719 283.855469 C 25.058594 281.222656 23.546875 278.554688 22.101562 275.847656 C 20.652344 273.140625 19.273438 270.402344 17.964844 267.628906 C 16.652344 264.851562 15.40625 262.050781 14.234375 259.214844 C 13.058594 256.378906 11.957031 253.515625 10.921875 250.628906 C 9.886719 247.738281 8.925781 244.824219 8.035156 241.890625 C 7.144531 238.953125 6.324219 235.996094 5.582031 233.019531 C 4.835938 230.042969 4.164062 227.050781 3.5625 224.039062 C 2.964844 221.03125 2.441406 218.007812 1.992188 214.972656 C 1.539062 211.9375 1.164062 208.894531 0.863281 205.839844 C 0.5625 202.785156 0.335938 199.726562 0.1875 196.660156 C 0.0351562 193.597656 -0.0390625 190.53125 -0.0390625 187.460938 C -0.0390625 184.390625 0.0351562 181.324219 0.1875 178.261719 C 0.335938 175.195312 0.5625 172.136719 0.863281 169.082031 C 1.164062 166.027344 1.539062 162.984375 1.992188 159.949219 C 2.441406 156.914062 2.964844 153.890625 3.5625 150.882812 C 4.164062 147.871094 4.835938 144.878906 5.582031 141.902344 C 6.324219 138.925781 7.144531 135.96875 8.035156 133.03125 C 8.925781 130.097656 9.886719 127.183594 10.921875 124.292969 C 11.957031 121.40625 13.058594 118.542969 14.234375 115.707031 C 15.40625 112.871094 16.652344 110.066406 17.964844 107.292969 C 19.273438 104.519531 20.652344 101.78125 22.101562 99.074219 C 23.546875 96.367188 25.058594 93.699219 26.636719 91.066406 C 28.214844 88.433594 29.855469 85.84375 31.558594 83.292969 C 33.265625 80.738281 35.03125 78.230469 36.859375 75.765625 C 38.6875 73.300781 40.574219 70.882812 42.519531 68.511719 C 44.46875 66.140625 46.472656 63.816406 48.53125 61.542969 C 50.59375 59.269531 52.707031 57.046875 54.878906 54.878906 C 57.046875 52.707031 59.269531 50.59375 61.542969 48.53125 C 63.816406 46.472656 66.140625 44.46875 68.511719 42.519531 C 70.882812 40.574219 73.300781 38.6875 75.765625 36.859375 C 78.230469 35.03125 80.738281 33.265625 83.292969 31.558594 C 85.84375 29.855469 88.433594 28.214844 91.066406 26.636719 C 93.699219 25.058594 96.367188 23.546875 99.074219 22.101562 C 101.78125 20.652344 104.519531 19.273438 107.292969 17.964844 C 110.066406 16.652344 112.871094 15.40625 115.707031 14.234375 C 118.542969 13.058594 121.40625 11.957031 124.292969 10.921875 C 127.183594 9.886719 130.097656 8.925781 133.03125 8.035156 C 135.96875 7.144531 138.925781 6.324219 141.902344 5.578125 C 144.878906 4.835938 147.871094 4.164062 150.882812 3.5625 C 153.890625 2.964844 156.914062 2.441406 159.949219 1.992188 C 162.984375 1.539062 166.027344 1.164062 169.082031 0.863281 C 172.136719 0.5625 175.195312 0.335938 178.261719 0.1875 C 181.324219 0.0351562 184.390625 -0.0390625 187.460938 -0.0390625 C 190.53125 -0.0390625 193.597656 0.0351562 196.660156 0.1875 C 199.726562 0.335938 202.785156 0.5625 205.839844 0.863281 C 208.894531 1.164062 211.9375 1.539062 214.972656 1.992188 C 218.007812 2.441406 221.03125 2.964844 224.039062 3.5625 C 227.050781 4.164062 230.042969 4.835938 233.019531 5.578125 C 235.996094 6.324219 238.953125 7.144531 241.890625 8.035156 C 244.824219 8.925781 247.738281 9.886719 250.628906 10.921875 C 253.515625 11.957031 256.378906 13.058594 259.214844 14.234375 C 262.050781 15.40625 264.851562 16.652344 267.628906 17.964844 C 270.402344 19.273438 273.140625 20.652344 275.847656 22.101562 C 278.554688 23.546875 281.222656 25.058594 283.855469 26.636719 C 286.488281 28.214844 289.078125 29.855469 291.628906 31.558594 C 294.183594 33.265625 296.691406 35.03125 299.15625 36.859375 C 301.621094 38.6875 304.039062 40.574219 306.410156 42.519531 C 308.78125 44.46875 311.105469 46.472656 313.378906 48.53125 C 315.652344 50.59375 317.875 52.707031 320.042969 54.878906 C 322.214844 57.046875 324.328125 59.269531 326.390625 61.542969 C 328.449219 63.816406 330.453125 66.140625 332.398438 68.511719 C 334.347656 70.882812 336.234375 73.300781 338.0625 75.765625 C 339.890625 78.230469 341.65625 80.738281 343.363281 83.292969 C 345.066406 85.84375 346.707031 88.433594 348.285156 91.066406 C 349.863281 93.699219 351.375 96.367188 352.820312 99.074219 C 354.269531 101.78125 355.648438 104.519531 356.957031 107.292969 C 358.269531 110.066406 359.515625 112.871094 360.6875 115.707031 C 361.863281 118.542969 362.964844 121.40625 364 124.292969 C 365.035156 127.183594 365.996094 130.097656 366.886719 133.03125 C 367.777344 135.96875 368.597656 138.925781 369.339844 141.902344 C 370.085938 144.878906 370.757812 147.871094 371.359375 150.882812 C 371.957031 153.890625 372.480469 156.914062 372.929688 159.949219 C 373.382812 162.984375 373.757812 166.027344 374.058594 169.082031 C 374.359375 172.136719 374.585938 175.195312 374.734375 178.261719 C 374.886719 181.324219 374.960938 184.390625 374.960938 187.460938 Z M 374.960938 187.460938 " fill-opacity="1" fill-rule="nonzero"/><path fill="#ffffff" d="M 255.699219 109.734375 C 235.601562 109.734375 220.648438 98.484375 216.648438 95.085938 C 199.648438 82.835938 181.148438 78.4375 161.75 82.085938 C 150.398438 84.1875 142.148438 88.484375 139 90.335938 L 139 73.6875 L 146.148438 73.6875 C 147.898438 73.6875 149.25 72.285156 149.25 70.585938 C 149.25 68.886719 147.851562 67.484375 146.148438 67.484375 L 125.648438 67.484375 C 123.898438 67.484375 122.550781 68.886719 122.550781 70.585938 C 122.550781 72.285156 123.949219 73.6875 125.648438 73.6875 L 132.800781 73.6875 L 132.800781 258.535156 C 133.800781 258.285156 134.851562 258.136719 135.898438 258.136719 C 136.949219 258.136719 138 258.285156 139 258.535156 L 139 179.835938 C 143.550781 177.535156 151.050781 174.335938 160.601562 172.535156 C 164.699219 171.785156 169.351562 171.234375 174.5 171.234375 C 187.699219 171.234375 203.851562 174.734375 220.398438 186.6875 C 220.449219 186.734375 220.5 186.785156 220.601562 186.835938 C 225.699219 191.136719 252.5 211.335938 284.101562 191.285156 L 284.101562 101.9375 C 273.949219 107.636719 264.351562 109.734375 255.699219 109.734375 Z M 277.300781 185.585938 C 277.300781 187.285156 275.898438 188.6875 274.199219 188.6875 C 272.5 188.6875 271.101562 187.285156 271.101562 185.585938 L 271.101562 120.886719 C 260.300781 123.4375 249.351562 123.285156 238.449219 120.484375 C 236.800781 120.035156 235.800781 118.335938 236.199219 116.6875 C 236.648438 115.035156 238.351562 114.035156 240 114.4375 C 251.148438 117.285156 262.351562 117.085938 273.300781 113.835938 C 274.25 113.535156 275.25 113.734375 276.050781 114.335938 C 276.851562 114.9375 277.300781 115.835938 277.300781 116.835938 Z M 277.300781 185.585938 " fill-opacity="1" fill-rule="nonzero"/><path fill="#ffffff" d="M 135.898438 264.335938 C 132 264.335938 128.800781 267.835938 128.101562 272.484375 L 143.699219 272.484375 C 143 267.886719 139.800781 264.335938 135.898438 264.335938 Z M 135.898438 264.335938 " fill-opacity="1" fill-rule="nonzero"/><path fill="#ffffff" d="M 177.800781 301.234375 L 155.550781 301.234375 L 152.101562 284.484375 C 151.800781 283.136719 150.648438 278.734375 146.898438 278.734375 L 124.898438 278.734375 C 121.199219 278.734375 120 283.136719 119.699219 284.484375 L 116.25 301.234375 L 94 301.234375 C 92.300781 301.234375 90.898438 302.636719 90.898438 304.335938 C 90.898438 306.035156 92.300781 307.4375 94 307.4375 L 177.75 307.4375 C 179.449219 307.4375 180.851562 306.035156 180.851562 304.335938 C 180.898438 302.636719 179.5 301.234375 177.800781 301.234375 Z M 177.800781 301.234375 " fill-opacity="1" fill-rule="nonzero"/></svg>