<svg xmlns="http://www.w3.org/2000/svg" xmlns:xlink="http://www.w3.org/1999/xlink" width="500" zoomAndPan="magnify" viewBox="0 0 375 374.999991" height="500" preserveAspectRatio="xMidYMid meet" version="1.0"><path fill="#ffa726" d="M 375 187.5 C 375 190.570312 374.925781 193.636719 374.773438 196.699219 C 374.625 199.765625 374.398438 202.824219 374.097656 205.878906 C 373.796875 208.933594 373.421875 211.976562 372.96875 215.011719 C 372.519531 218.046875 371.996094 221.070312 371.398438 224.078125 C 370.796875 227.089844 370.125 230.082031 369.378906 233.058594 C 368.636719 236.035156 367.816406 238.992188 366.925781 241.929688 C 366.035156 244.863281 365.074219 247.777344 364.039062 250.667969 C 363.003906 253.554688 361.902344 256.417969 360.726562 259.253906 C 359.554688 262.089844 358.308594 264.890625 356.996094 267.667969 C 355.6875 270.441406 354.308594 273.179688 352.859375 275.886719 C 351.414062 278.59375 349.902344 281.261719 348.324219 283.894531 C 346.746094 286.527344 345.105469 289.117188 343.402344 291.667969 C 341.695312 294.222656 339.929688 296.730469 338.101562 299.195312 C 336.273438 301.660156 334.386719 304.078125 332.4375 306.449219 C 330.492188 308.820312 328.488281 311.144531 326.429688 313.417969 C 324.367188 315.691406 322.253906 317.914062 320.082031 320.082031 C 317.914062 322.253906 315.691406 324.367188 313.417969 326.429688 C 311.144531 328.488281 308.820312 330.492188 306.449219 332.4375 C 304.078125 334.386719 301.660156 336.273438 299.195312 338.101562 C 296.730469 339.929688 294.222656 341.695312 291.667969 343.402344 C 289.117188 345.105469 286.527344 346.746094 283.894531 348.324219 C 281.261719 349.902344 278.59375 351.414062 275.886719 352.859375 C 273.179688 354.308594 270.441406 355.6875 267.667969 356.996094 C 264.890625 358.308594 262.089844 359.554688 259.253906 360.726562 C 256.417969 361.902344 253.554688 363.003906 250.667969 364.039062 C 247.777344 365.074219 244.863281 366.035156 241.929688 366.925781 C 238.992188 367.816406 236.035156 368.636719 233.058594 369.378906 C 230.082031 370.125 227.089844 370.796875 224.078125 371.398438 C 221.070312 371.996094 218.046875 372.519531 215.011719 372.96875 C 211.976562 373.421875 208.933594 373.796875 205.878906 374.097656 C 202.824219 374.398438 199.765625 374.625 196.699219 374.773438 C 193.636719 374.925781 190.570312 375 187.5 375 C 184.429688 375 181.363281 374.925781 178.300781 374.773438 C 175.234375 374.625 172.175781 374.398438 169.121094 374.097656 C 166.066406 373.796875 163.023438 373.421875 159.988281 372.96875 C 156.953125 372.519531 153.929688 371.996094 150.921875 371.398438 C 147.910156 370.796875 144.917969 370.125 141.941406 369.378906 C 138.964844 368.636719 136.007812 367.816406 133.070312 366.925781 C 130.136719 366.035156 127.222656 365.074219 124.332031 364.039062 C 121.445312 363.003906 118.582031 361.902344 115.746094 360.726562 C 112.910156 359.554688 110.105469 358.308594 107.332031 356.996094 C 104.558594 355.6875 101.820312 354.308594 99.113281 352.859375 C 96.40625 351.414062 93.738281 349.902344 91.105469 348.324219 C 88.472656 346.746094 85.882812 345.105469 83.332031 343.402344 C 80.777344 341.695312 78.269531 339.929688 75.804688 338.101562 C 73.339844 336.273438 70.921875 334.386719 68.550781 332.4375 C 66.179688 330.492188 63.855469 328.488281 61.582031 326.429688 C 59.308594 324.367188 57.085938 322.253906 54.917969 320.082031 C 52.746094 317.914062 50.632812 315.691406 48.570312 313.417969 C 46.511719 311.144531 44.507812 308.820312 42.558594 306.449219 C 40.613281 304.078125 38.726562 301.660156 36.898438 299.195312 C 35.070312 296.730469 33.304688 294.222656 31.597656 291.667969 C 29.894531 289.117188 28.253906 286.527344 26.675781 283.894531 C 25.097656 281.261719 23.585938 278.59375 22.140625 275.886719 C 20.691406 273.179688 19.3125 270.441406 18.003906 267.667969 C 16.691406 264.890625 15.445312 262.089844 14.273438 259.253906 C 13.097656 256.417969 11.996094 253.554688 10.960938 250.667969 C 9.925781 247.777344 8.964844 244.863281 8.074219 241.929688 C 7.183594 238.992188 6.363281 236.035156 5.617188 233.058594 C 4.875 230.082031 4.203125 227.089844 3.601562 224.078125 C 3.003906 221.070312 2.480469 218.046875 2.03125 215.011719 C 1.578125 211.976562 1.203125 208.933594 0.902344 205.878906 C 0.601562 202.824219 0.375 199.765625 0.226562 196.699219 C 0.0742188 193.636719 0 190.570312 0 187.5 C 0 184.429688 0.0742188 181.363281 0.226562 178.300781 C 0.375 175.234375 0.601562 172.175781 0.902344 169.121094 C 1.203125 166.066406 1.578125 163.023438 2.03125 159.988281 C 2.480469 156.953125 3.003906 153.929688 3.601562 150.921875 C 4.203125 147.910156 4.875 144.917969 5.617188 141.941406 C 6.363281 138.964844 7.183594 136.007812 8.074219 133.070312 C 8.964844 130.136719 9.925781 127.222656 10.960938 124.332031 C 11.996094 121.445312 13.097656 118.582031 14.273438 115.746094 C 15.445312 112.910156 16.691406 110.105469 18.003906 107.332031 C 19.3125 104.558594 20.691406 101.820312 22.140625 99.113281 C 23.585938 96.40625 25.097656 93.738281 26.675781 91.105469 C 28.253906 88.472656 29.894531 85.882812 31.597656 83.332031 C 33.304688 80.777344 35.070312 78.269531 36.898438 75.804688 C 38.726562 73.339844 40.613281 70.921875 42.558594 68.550781 C 44.507812 66.179688 46.511719 63.855469 48.570312 61.582031 C 50.632812 59.308594 52.746094 57.085938 54.917969 54.917969 C 57.085938 52.746094 59.308594 50.632812 61.582031 48.570312 C 63.855469 46.511719 66.179688 44.507812 68.550781 42.558594 C 70.921875 40.613281 73.339844 38.726562 75.804688 36.898438 C 78.269531 35.070312 80.777344 33.304688 83.332031 31.597656 C 85.882812 29.894531 88.472656 28.253906 91.105469 26.675781 C 93.738281 25.097656 96.40625 23.585938 99.113281 22.140625 C 101.820312 20.691406 104.558594 19.3125 107.332031 18.003906 C 110.105469 16.691406 112.910156 15.445312 115.746094 14.273438 C 118.582031 13.097656 121.445312 11.996094 124.332031 10.960938 C 127.222656 9.925781 130.136719 8.964844 133.070312 8.074219 C 136.007812 7.183594 138.964844 6.363281 141.941406 5.617188 C 144.917969 4.875 147.910156 4.203125 150.921875 3.601562 C 153.929688 3.003906 156.953125 2.480469 159.988281 2.03125 C 163.023438 1.578125 166.066406 1.203125 169.121094 0.902344 C 172.175781 0.601562 175.234375 0.375 178.300781 0.226562 C 181.363281 0.0742188 184.429688 0 187.5 0 C 190.570312 0 193.636719 0.0742188 196.699219 0.226562 C 199.765625 0.375 202.824219 0.601562 205.878906 0.902344 C 208.933594 1.203125 211.976562 1.578125 215.011719 2.03125 C 218.046875 2.480469 221.070312 3.003906 224.078125 3.601562 C 227.089844 4.203125 230.082031 4.875 233.058594 5.617188 C 236.035156 6.363281 238.992188 7.183594 241.929688 8.074219 C 244.863281 8.964844 247.777344 9.925781 250.667969 10.960938 C 253.554688 11.996094 256.417969 13.097656 259.253906 14.273438 C 262.089844 15.445312 264.890625 16.691406 267.667969 18.003906 C 270.441406 19.3125 273.179688 20.691406 275.886719 22.140625 C 278.59375 23.585938 281.261719 25.097656 283.894531 26.675781 C 286.527344 28.253906 289.117188 29.894531 291.667969 31.597656 C 294.222656 33.304688 296.730469 35.070312 299.195312 36.898438 C 301.660156 38.726562 304.078125 40.613281 306.449219 42.558594 C 308.820312 44.507812 311.144531 46.511719 313.417969 48.570312 C 315.691406 50.632812 317.914062 52.746094 320.082031 54.917969 C 322.253906 57.085938 324.367188 59.308594 326.429688 61.582031 C 328.488281 63.855469 330.492188 66.179688 332.4375 68.550781 C 334.386719 70.921875 336.273438 73.339844 338.101562 75.804688 C 339.929688 78.269531 341.695312 80.777344 343.402344 83.332031 C 345.105469 85.882812 346.746094 88.472656 348.324219 91.105469 C 349.902344 93.738281 351.414062 96.40625 352.859375 99.113281 C 354.308594 101.820312 355.6875 104.558594 356.996094 107.332031 C 358.308594 110.105469 359.554688 112.910156 360.726562 115.746094 C 361.902344 118.582031 363.003906 121.445312 364.039062 124.332031 C 365.074219 127.222656 366.035156 130.136719 366.925781 133.070312 C 367.816406 136.007812 368.636719 138.964844 369.378906 141.941406 C 370.125 144.917969 370.796875 147.910156 371.398438 150.921875 C 371.996094 153.929688 372.519531 156.953125 372.96875 159.988281 C 373.421875 163.023438 373.796875 166.066406 374.097656 169.121094 C 374.398438 172.175781 374.625 175.234375 374.773438 178.300781 C 374.925781 181.363281 375 184.429688 375 187.5 Z M 375 187.5 " fill-opacity="1" fill-rule="nonzero"/><path fill="#ffffff" d="M 120.75 139.550781 C 136.199219 145.351562 156.75 148.601562 178.699219 148.601562 C 200.648438 148.601562 221.199219 145.398438 236.648438 139.550781 C 250.949219 134.148438 259.148438 127.050781 259.148438 120.050781 C 259.148438 113.050781 250.949219 106 236.648438 100.601562 C 221.199219 94.800781 200.648438 91.550781 178.699219 91.550781 C 156.75 91.550781 136.199219 94.75 120.75 100.601562 C 106.449219 106 98.25 113.101562 98.25 120.050781 C 98.25 127.050781 106.449219 134.148438 120.75 139.550781 Z M 120.75 139.550781 " fill-opacity="1" fill-rule="nonzero"/><path fill="#ffffff" d="M 104.949219 240.800781 L 104.949219 197.800781 C 104.949219 196.148438 106.300781 194.800781 107.949219 194.800781 L 123 194.800781 L 95.25 159.25 L 67.5 194.800781 L 82.550781 194.800781 C 84.199219 194.800781 85.550781 196.148438 85.550781 197.800781 L 85.550781 240.800781 Z M 104.949219 240.800781 " fill-opacity="1" fill-rule="nonzero"/><path fill="#ffffff" d="M 304.351562 194.398438 C 302.398438 194.050781 300.851562 192.449219 300.550781 190.5 C 299.601562 184.449219 297.199219 178.648438 293.550781 173.648438 C 292.351562 172.050781 292.351562 169.851562 293.5 168.199219 L 295.300781 165.550781 L 293.101562 163.351562 L 290.449219 165.148438 C 288.800781 166.300781 286.601562 166.25 285 165.101562 C 280.050781 161.5 274.199219 159.050781 268.148438 158.101562 C 266.199219 157.800781 264.601562 156.25 264.25 154.300781 L 263.648438 151.148438 L 260.550781 151.148438 L 259.949219 154.300781 C 259.601562 156.25 258 157.800781 256.050781 158.101562 C 250 159.050781 244.199219 161.449219 239.199219 165.101562 C 237.601562 166.25 235.398438 166.300781 233.75 165.148438 L 231.101562 163.351562 L 228.898438 165.550781 L 230.699219 168.199219 C 231.851562 169.851562 231.800781 172.050781 230.648438 173.648438 C 227.050781 178.601562 224.601562 184.449219 223.648438 190.5 C 223.351562 192.449219 221.800781 194.050781 219.851562 194.398438 L 216.699219 195 L 216.699219 198.101562 L 219.851562 198.699219 C 221.800781 199.050781 223.351562 200.648438 223.648438 202.601562 C 224.601562 208.648438 227 214.449219 230.648438 219.449219 C 231.800781 221.050781 231.851562 223.25 230.699219 224.898438 L 228.898438 227.550781 L 231.101562 229.75 L 233.75 227.949219 C 235.398438 226.800781 237.601562 226.851562 239.199219 228 C 244.148438 231.601562 250 234.050781 256.050781 235 C 258 235.300781 259.601562 236.851562 259.949219 238.800781 L 260.550781 241.949219 L 263.648438 241.949219 L 264.25 238.800781 C 264.601562 236.851562 266.199219 235.300781 268.148438 235 C 274.199219 234.050781 280 231.648438 285 228 C 286.601562 226.851562 288.800781 226.800781 290.449219 227.949219 L 293.101562 229.75 L 295.300781 227.550781 L 293.5 224.898438 C 292.351562 223.25 292.398438 221.050781 293.550781 219.449219 C 297.148438 214.5 299.601562 208.648438 300.550781 202.601562 C 300.851562 200.648438 302.398438 199.050781 304.351562 198.699219 L 307.5 198.101562 L 307.5 195 Z M 262.101562 226.449219 C 245.601562 226.449219 232.199219 213.050781 232.199219 196.550781 C 232.199219 180.050781 245.601562 166.648438 262.101562 166.648438 C 278.601562 166.648438 292 180.050781 292 196.550781 C 292 213.050781 278.601562 226.449219 262.101562 226.449219 Z M 262.101562 226.449219 " fill-opacity="1" fill-rule="nonzero"/><path fill="#ffffff" d="M 254.898438 244.050781 L 254.25 240.75 C 247.851562 239.601562 241.75 237.101562 236.398438 233.351562 L 233.601562 235.25 C 231.699219 236.550781 229.148438 236.300781 227.550781 234.699219 L 223.949219 231.101562 C 222.351562 229.5 222.101562 226.949219 223.398438 225.050781 L 225.300781 222.25 C 221.601562 216.898438 219.050781 210.800781 217.898438 204.398438 L 214.601562 203.75 C 212.351562 203.300781 210.75 201.351562 210.75 199.101562 L 210.75 194 C 210.75 191.699219 212.351562 189.75 214.601562 189.351562 L 217.898438 188.699219 C 219.050781 182.300781 221.550781 176.199219 225.300781 170.851562 L 223.398438 168.050781 C 222.101562 166.148438 222.351562 163.601562 223.949219 162 L 227.550781 158.398438 C 229.148438 156.800781 231.699219 156.550781 233.601562 157.851562 L 236.398438 159.75 C 241.75 156.050781 247.851562 153.5 254.25 152.351562 L 254.898438 149.050781 C 255.300781 146.949219 257.050781 145.398438 259.148438 145.199219 L 259.148438 133.050781 C 254.699219 137.601562 247.800781 141.75 238.75 145.148438 C 222.648438 151.199219 201.351562 154.550781 178.699219 154.550781 C 156.050781 154.550781 134.75 151.199219 118.648438 145.148438 C 109.601562 141.75 102.699219 137.601562 98.25 133.050781 L 98.25 153.351562 L 131.5 195.949219 C 132.199219 196.851562 132.351562 198.050781 131.851562 199.101562 C 131.351562 200.148438 130.300781 200.800781 129.148438 200.800781 L 111 200.800781 L 111 225 C 114 226.699219 117.449219 228.25 121.300781 229.648438 C 136.699219 235.351562 157.101562 238.5 178.75 238.5 C 193.199219 238.5 207.398438 237.050781 219.800781 234.351562 C 221.398438 234 223 235 223.351562 236.648438 C 223.699219 238.300781 222.699219 239.851562 221.050781 240.199219 C 208.199219 243 193.550781 244.5 178.699219 244.5 C 156.351562 244.5 135.25 241.25 119.199219 235.300781 C 116.25 234.199219 113.5 233.050781 110.949219 231.75 L 110.949219 243.800781 C 110.949219 245.449219 109.601562 246.800781 107.949219 246.800781 L 98.25 246.800781 L 98.25 254.949219 C 98.25 262 106.648438 269.199219 121.25 274.601562 C 136.648438 280.300781 157.050781 283.449219 178.699219 283.449219 C 200.351562 283.449219 220.75 280.300781 236.148438 274.601562 C 250.75 269.148438 259.148438 262 259.148438 254.949219 L 259.148438 247.898438 C 257.050781 247.699219 255.300781 246.148438 254.898438 244.050781 Z M 202.601562 198.199219 C 194.851562 199.050781 186.800781 199.5 178.699219 199.5 C 164.898438 199.5 151.75 198.300781 139.601562 195.898438 C 138 195.601562 136.898438 194 137.25 192.398438 C 137.550781 190.800781 139.148438 189.699219 140.75 190.050781 C 152.351562 192.351562 165.5 193.550781 178.699219 193.550781 C 186.601562 193.550781 194.449219 193.148438 201.949219 192.300781 C 203.601562 192.101562 205.050781 193.300781 205.25 194.949219 C 205.398438 196.550781 204.25 198.050781 202.601562 198.199219 Z M 202.601562 198.199219 " fill-opacity="1" fill-rule="nonzero"/><path fill="#ffffff" d="M 262.101562 172.601562 C 248.898438 172.601562 238.148438 183.351562 238.148438 196.550781 C 238.148438 209.75 248.898438 220.5 262.101562 220.5 C 275.300781 220.5 286.050781 209.75 286.050781 196.550781 C 286.050781 183.351562 275.300781 172.601562 262.101562 172.601562 Z M 262.101562 172.601562 " fill-opacity="1" fill-rule="nonzero"/></svg>