<svg xmlns="http://www.w3.org/2000/svg" xmlns:xlink="http://www.w3.org/1999/xlink" width="500" zoomAndPan="magnify" viewBox="0 0 375 374.999991" height="500" preserveAspectRatio="xMidYMid meet" version="1.0"><defs><clipPath id="ac8832c73b"><path d="M 124.5 124.5 L 274.5 124.5 L 274.5 274.5 L 124.5 274.5 Z M 124.5 124.5 " clip-rule="nonzero"/></clipPath></defs><g clip-path="url(#ac8832c73b)"><path fill="#ffa726" d="M 274.5 199.5 C 274.5 200.726562 274.46875 201.953125 274.410156 203.179688 C 274.347656 204.40625 274.257812 205.628906 274.140625 206.851562 C 274.019531 208.074219 273.867188 209.289062 273.6875 210.503906 C 273.507812 211.71875 273.296875 212.929688 273.058594 214.132812 C 272.820312 215.335938 272.550781 216.53125 272.253906 217.722656 C 271.953125 218.914062 271.625 220.097656 271.269531 221.269531 C 270.914062 222.445312 270.527344 223.609375 270.117188 224.765625 C 269.703125 225.921875 269.261719 227.066406 268.789062 228.203125 C 268.320312 229.335938 267.824219 230.457031 267.300781 231.566406 C 266.773438 232.675781 266.222656 233.773438 265.644531 234.855469 C 265.066406 235.9375 264.460938 237.003906 263.828125 238.058594 C 263.199219 239.109375 262.542969 240.148438 261.859375 241.167969 C 261.179688 242.1875 260.472656 243.191406 259.742188 244.175781 C 259.007812 245.164062 258.253906 246.128906 257.476562 247.078125 C 256.695312 248.027344 255.894531 248.957031 255.070312 249.867188 C 254.246094 250.777344 253.402344 251.664062 252.53125 252.53125 C 251.664062 253.402344 250.777344 254.246094 249.867188 255.070312 C 248.957031 255.894531 248.027344 256.695312 247.078125 257.476562 C 246.128906 258.253906 245.164062 259.007812 244.175781 259.742188 C 243.191406 260.472656 242.1875 261.179688 241.167969 261.859375 C 240.148438 262.542969 239.109375 263.199219 238.058594 263.828125 C 237.003906 264.460938 235.9375 265.066406 234.855469 265.644531 C 233.773438 266.222656 232.675781 266.773438 231.566406 267.300781 C 230.457031 267.824219 229.335938 268.320312 228.203125 268.789062 C 227.066406 269.261719 225.921875 269.703125 224.765625 270.117188 C 223.609375 270.527344 222.445312 270.914062 221.269531 271.269531 C 220.097656 271.625 218.914062 271.953125 217.722656 272.253906 C 216.53125 272.550781 215.335938 272.820312 214.132812 273.058594 C 212.929688 273.296875 211.71875 273.507812 210.503906 273.6875 C 209.289062 273.867188 208.074219 274.019531 206.851562 274.140625 C 205.628906 274.257812 204.40625 274.347656 203.179688 274.410156 C 201.953125 274.46875 200.726562 274.5 199.5 274.5 C 198.273438 274.5 197.046875 274.46875 195.820312 274.410156 C 194.59375 274.347656 193.371094 274.257812 192.148438 274.140625 C 190.925781 274.019531 189.710938 273.867188 188.496094 273.6875 C 187.28125 273.507812 186.070312 273.296875 184.867188 273.058594 C 183.664062 272.820312 182.46875 272.550781 181.277344 272.253906 C 180.085938 271.953125 178.902344 271.625 177.730469 271.269531 C 176.554688 270.914062 175.390625 270.527344 174.234375 270.117188 C 173.078125 269.703125 171.933594 269.261719 170.796875 268.789062 C 169.664062 268.320312 168.542969 267.824219 167.433594 267.300781 C 166.324219 266.773438 165.226562 266.222656 164.144531 265.644531 C 163.0625 265.066406 161.996094 264.460938 160.941406 263.828125 C 159.890625 263.199219 158.851562 262.542969 157.832031 261.859375 C 156.8125 261.179688 155.808594 260.472656 154.824219 259.742188 C 153.835938 259.007812 152.871094 258.253906 151.921875 257.476562 C 150.972656 256.695312 150.042969 255.894531 149.132812 255.070312 C 148.222656 254.246094 147.335938 253.402344 146.46875 252.53125 C 145.597656 251.664062 144.753906 250.777344 143.929688 249.867188 C 143.105469 248.957031 142.304688 248.027344 141.523438 247.078125 C 140.746094 246.128906 139.992188 245.164062 139.257812 244.175781 C 138.527344 243.191406 137.820312 242.1875 137.140625 241.167969 C 136.457031 240.148438 135.800781 239.109375 135.171875 238.058594 C 134.539062 237.003906 133.933594 235.9375 133.355469 234.855469 C 132.777344 233.773438 132.226562 232.675781 131.699219 231.566406 C 131.175781 230.457031 130.679688 229.335938 130.210938 228.203125 C 129.738281 227.066406 129.296875 225.921875 128.882812 224.765625 C 128.46875 223.609375 128.085938 222.445312 127.730469 221.269531 C 127.375 220.097656 127.046875 218.914062 126.746094 217.722656 C 126.449219 216.53125 126.179688 215.335938 125.941406 214.132812 C 125.703125 212.929688 125.492188 211.71875 125.3125 210.503906 C 125.132812 209.289062 124.980469 208.074219 124.859375 206.851562 C 124.742188 205.628906 124.652344 204.40625 124.589844 203.179688 C 124.53125 201.953125 124.5 200.726562 124.5 199.5 C 124.5 198.273438 124.53125 197.046875 124.589844 195.820312 C 124.652344 194.59375 124.742188 193.371094 124.859375 192.148438 C 124.980469 190.925781 125.132812 189.710938 125.3125 188.496094 C 125.492188 187.28125 125.703125 186.070312 125.941406 184.867188 C 126.179688 183.664062 126.449219 182.46875 126.746094 181.277344 C 127.046875 180.085938 127.375 178.902344 127.730469 177.730469 C 128.085938 176.554688 128.46875 175.390625 128.882812 174.234375 C 129.296875 173.078125 129.738281 171.933594 130.210938 170.796875 C 130.679688 169.664062 131.175781 168.542969 131.699219 167.433594 C 132.226562 166.324219 132.777344 165.226562 133.355469 164.144531 C 133.933594 163.0625 134.539062 161.996094 135.171875 160.941406 C 135.800781 159.890625 136.457031 158.851562 137.140625 157.832031 C 137.820312 156.8125 138.527344 155.808594 139.257812 154.824219 C 139.992188 153.835938 140.746094 152.871094 141.523438 151.921875 C 142.304688 150.972656 143.105469 150.042969 143.929688 149.132812 C 144.753906 148.222656 145.597656 147.335938 146.46875 146.46875 C 147.335938 145.597656 148.222656 144.753906 149.132812 143.929688 C 150.042969 143.105469 150.972656 142.304688 151.921875 141.523438 C 152.871094 140.746094 153.835938 139.992188 154.824219 139.257812 C 155.808594 138.527344 156.8125 137.820312 157.832031 137.140625 C 158.851562 136.457031 159.890625 135.800781 160.941406 135.171875 C 161.996094 134.539062 163.0625 133.933594 164.144531 133.355469 C 165.226562 132.777344 166.324219 132.226562 167.433594 131.699219 C 168.542969 131.175781 169.664062 130.679688 170.796875 130.210938 C 171.933594 129.738281 173.078125 129.296875 174.234375 128.882812 C 175.390625 128.46875 176.554688 128.085938 177.730469 127.730469 C 178.902344 127.375 180.085938 127.046875 181.277344 126.746094 C 182.46875 126.449219 183.664062 126.179688 184.867188 125.941406 C 186.070312 125.703125 187.28125 125.492188 188.496094 125.3125 C 189.710938 125.132812 190.925781 124.980469 192.148438 124.859375 C 193.371094 124.742188 194.59375 124.652344 195.820312 124.589844 C 197.046875 124.53125 198.273438 124.5 199.5 124.5 C 200.726562 124.5 201.953125 124.53125 203.179688 124.589844 C 204.40625 124.652344 205.628906 124.742188 206.851562 124.859375 C 208.074219 124.980469 209.289062 125.132812 210.503906 125.3125 C 211.71875 125.492188 212.929688 125.703125 214.132812 125.941406 C 215.335938 126.179688 216.53125 126.449219 217.722656 126.746094 C 218.914062 127.046875 220.097656 127.375 221.269531 127.730469 C 222.445312 128.085938 223.609375 128.46875 224.765625 128.882812 C 225.921875 129.296875 227.066406 129.738281 228.203125 130.210938 C 229.335938 130.679688 230.457031 131.175781 231.566406 131.699219 C 232.675781 132.226562 233.773438 132.777344 234.855469 133.355469 C 235.9375 133.933594 237.003906 134.539062 238.058594 135.171875 C 239.109375 135.800781 240.148438 136.457031 241.167969 137.140625 C 242.1875 137.820312 243.191406 138.527344 244.175781 139.257812 C 245.164062 139.992188 246.128906 140.746094 247.078125 141.523438 C 248.027344 142.304688 248.957031 143.105469 249.867188 143.929688 C 250.777344 144.753906 251.664062 145.597656 252.53125 146.46875 C 253.402344 147.335938 254.246094 148.222656 255.070312 149.132812 C 255.894531 150.042969 256.695312 150.972656 257.476562 151.921875 C 258.253906 152.871094 259.007812 153.835938 259.742188 154.824219 C 260.472656 155.808594 261.179688 156.8125 261.859375 157.832031 C 262.542969 158.851562 263.199219 159.890625 263.828125 160.941406 C 264.460938 161.996094 265.066406 163.0625 265.644531 164.144531 C 266.222656 165.226562 266.773438 166.324219 267.300781 167.433594 C 267.824219 168.542969 268.320312 169.664062 268.789062 170.796875 C 269.261719 171.933594 269.703125 173.078125 270.117188 174.234375 C 270.527344 175.390625 270.914062 176.554688 271.269531 177.730469 C 271.625 178.902344 271.953125 180.085938 272.253906 181.277344 C 272.550781 182.46875 272.820312 183.664062 273.058594 184.867188 C 273.296875 186.070312 273.507812 187.28125 273.6875 188.496094 C 273.867188 189.710938 274.019531 190.925781 274.140625 192.148438 C 274.257812 193.371094 274.347656 194.59375 274.410156 195.820312 C 274.46875 197.046875 274.5 198.273438 274.5 199.5 Z M 274.5 199.5 " fill-opacity="1" fill-rule="nonzero"/></g><path fill="#ffffff" d="M 172.800781 180.320312 C 178.980469 182.640625 187.199219 183.941406 195.980469 183.941406 C 204.761719 183.941406 212.980469 182.660156 219.160156 180.320312 C 224.878906 178.160156 228.160156 175.320312 228.160156 172.519531 C 228.160156 169.71875 224.878906 166.898438 219.160156 164.738281 C 212.980469 162.421875 204.761719 161.121094 195.980469 161.121094 C 187.199219 161.121094 178.980469 162.398438 172.800781 164.738281 C 167.078125 166.898438 163.800781 169.738281 163.800781 172.519531 C 163.800781 175.320312 167.078125 178.160156 172.800781 180.320312 Z M 172.800781 180.320312 " fill-opacity="1" fill-rule="nonzero"/><path fill="#ffffff" d="M 166.480469 220.820312 L 166.480469 203.621094 C 166.480469 202.960938 167.019531 202.421875 167.679688 202.421875 L 173.699219 202.421875 L 162.601562 188.199219 L 151.5 202.421875 L 157.519531 202.421875 C 158.179688 202.421875 158.71875 202.960938 158.71875 203.621094 L 158.71875 220.820312 Z M 166.480469 220.820312 " fill-opacity="1" fill-rule="nonzero"/><path fill="#ffffff" d="M 246.238281 202.261719 C 245.460938 202.121094 244.839844 201.480469 244.71875 200.699219 C 244.339844 198.28125 243.378906 195.960938 241.921875 193.960938 C 241.441406 193.320312 241.441406 192.441406 241.898438 191.78125 L 242.621094 190.71875 L 241.738281 189.839844 L 240.679688 190.558594 C 240.019531 191.019531 239.140625 191 238.5 190.539062 C 236.519531 189.101562 234.179688 188.121094 231.761719 187.738281 C 230.980469 187.621094 230.339844 187 230.199219 186.21875 L 229.960938 184.960938 L 228.71875 184.960938 L 228.480469 186.21875 C 228.339844 187 227.699219 187.621094 226.921875 187.738281 C 224.5 188.121094 222.179688 189.078125 220.179688 190.539062 C 219.539062 191 218.660156 191.019531 218 190.558594 L 216.941406 189.839844 L 216.058594 190.71875 L 216.78125 191.78125 C 217.238281 192.441406 217.21875 193.320312 216.761719 193.960938 C 215.320312 195.941406 214.339844 198.28125 213.960938 200.699219 C 213.839844 201.480469 213.21875 202.121094 212.441406 202.261719 L 211.179688 202.5 L 211.179688 203.738281 L 212.441406 203.980469 C 213.21875 204.121094 213.839844 204.761719 213.960938 205.539062 C 214.339844 207.960938 215.300781 210.28125 216.761719 212.28125 C 217.21875 212.921875 217.238281 213.800781 216.78125 214.460938 L 216.058594 215.519531 L 216.941406 216.398438 L 218 215.679688 C 218.660156 215.21875 219.539062 215.238281 220.179688 215.699219 C 222.160156 217.140625 224.5 218.121094 226.921875 218.5 C 227.699219 218.621094 228.339844 219.238281 228.480469 220.019531 L 228.71875 221.28125 L 229.960938 221.28125 L 230.199219 220.019531 C 230.339844 219.238281 230.980469 218.621094 231.761719 218.5 C 234.179688 218.121094 236.5 217.160156 238.5 215.699219 C 239.140625 215.238281 240.019531 215.21875 240.679688 215.679688 L 241.738281 216.398438 L 242.621094 215.519531 L 241.898438 214.460938 C 241.441406 213.800781 241.460938 212.921875 241.921875 212.28125 C 243.359375 210.300781 244.339844 207.960938 244.71875 205.539062 C 244.839844 204.761719 245.460938 204.121094 246.238281 203.980469 L 247.5 203.738281 L 247.5 202.5 Z M 229.339844 215.078125 C 222.738281 215.078125 217.378906 209.71875 217.378906 203.121094 C 217.378906 196.519531 222.738281 191.160156 229.339844 191.160156 C 235.941406 191.160156 241.300781 196.519531 241.300781 203.121094 C 241.300781 209.71875 235.941406 215.078125 229.339844 215.078125 Z M 229.339844 215.078125 " fill-opacity="1" fill-rule="nonzero"/><path fill="#ffffff" d="M 226.460938 222.121094 L 226.199219 220.800781 C 223.640625 220.339844 221.199219 219.339844 219.058594 217.839844 L 217.941406 218.601562 C 217.179688 219.121094 216.160156 219.019531 215.519531 218.378906 L 214.078125 216.941406 C 213.441406 216.300781 213.339844 215.28125 213.859375 214.519531 L 214.621094 213.398438 C 213.140625 211.261719 212.121094 208.820312 211.660156 206.261719 L 210.339844 206 C 209.441406 205.820312 208.800781 205.039062 208.800781 204.140625 L 208.800781 202.101562 C 208.800781 201.179688 209.441406 200.398438 210.339844 200.238281 L 211.660156 199.980469 C 212.121094 197.421875 213.121094 194.980469 214.621094 192.839844 L 213.859375 191.71875 C 213.339844 190.960938 213.441406 189.941406 214.078125 189.300781 L 215.519531 187.859375 C 216.160156 187.21875 217.179688 187.121094 217.941406 187.640625 L 219.058594 188.398438 C 221.199219 186.921875 223.640625 185.898438 226.199219 185.441406 L 226.460938 184.121094 C 226.621094 183.28125 227.320312 182.660156 228.160156 182.578125 L 228.160156 177.71875 C 226.378906 179.539062 223.621094 181.199219 220 182.558594 C 213.558594 184.980469 205.039062 186.320312 195.980469 186.320312 C 186.921875 186.320312 178.398438 184.980469 171.960938 182.558594 C 168.339844 181.199219 165.578125 179.539062 163.800781 177.71875 L 163.800781 185.839844 L 177.101562 202.878906 C 177.378906 203.238281 177.441406 203.71875 177.238281 204.140625 C 177.039062 204.558594 176.621094 204.820312 176.160156 204.820312 L 168.898438 204.820312 L 168.898438 214.5 C 170.101562 215.179688 171.480469 215.800781 173.019531 216.359375 C 179.179688 218.640625 187.339844 219.898438 196 219.898438 C 201.78125 219.898438 207.460938 219.320312 212.421875 218.238281 C 213.058594 218.101562 213.699219 218.5 213.839844 219.160156 C 213.980469 219.820312 213.578125 220.441406 212.921875 220.578125 C 207.78125 221.699219 201.921875 222.300781 195.980469 222.300781 C 187.039062 222.300781 178.601562 221 172.179688 218.621094 C 171 218.179688 169.898438 217.71875 168.878906 217.199219 L 168.878906 222.019531 C 168.878906 222.679688 168.339844 223.21875 167.679688 223.21875 L 163.800781 223.21875 L 163.800781 226.480469 C 163.800781 229.300781 167.160156 232.179688 173 234.339844 C 179.160156 236.621094 187.320312 237.878906 195.980469 237.878906 C 204.640625 237.878906 212.800781 236.621094 218.960938 234.339844 C 224.800781 232.160156 228.160156 229.300781 228.160156 226.480469 L 228.160156 223.660156 C 227.320312 223.578125 226.621094 222.960938 226.460938 222.121094 Z M 205.539062 203.78125 C 202.441406 204.121094 199.21875 204.300781 195.980469 204.300781 C 190.460938 204.300781 185.199219 203.820312 180.339844 202.859375 C 179.699219 202.738281 179.261719 202.101562 179.398438 201.460938 C 179.519531 200.820312 180.160156 200.378906 180.800781 200.519531 C 185.441406 201.441406 190.699219 201.921875 195.980469 201.921875 C 199.140625 201.921875 202.28125 201.761719 205.28125 201.421875 C 205.941406 201.339844 206.519531 201.820312 206.601562 202.480469 C 206.660156 203.121094 206.199219 203.71875 205.539062 203.78125 Z M 205.539062 203.78125 " fill-opacity="1" fill-rule="nonzero"/><path fill="#ffffff" d="M 229.339844 193.539062 C 224.058594 193.539062 219.761719 197.839844 219.761719 203.121094 C 219.761719 208.398438 224.058594 212.699219 229.339844 212.699219 C 234.621094 212.699219 238.921875 208.398438 238.921875 203.121094 C 238.921875 197.839844 234.621094 193.539062 229.339844 193.539062 Z M 229.339844 193.539062 " fill-opacity="1" fill-rule="nonzero"/></svg>