<svg xmlns="http://www.w3.org/2000/svg" xmlns:xlink="http://www.w3.org/1999/xlink" width="500" zoomAndPan="magnify" viewBox="0 0 375 374.999991" height="500" preserveAspectRatio="xMidYMid meet" version="1.0"><defs><clipPath id="503c52fc8c"><path d="M 0.03125 30.570312 L 369.71875 30.570312 L 369.71875 271.683594 L 0.03125 271.683594 Z M 0.03125 30.570312 " clip-rule="nonzero"/></clipPath><clipPath id="f41381f965"><path d="M 0.03125 101.445312 L 369.71875 101.445312 L 369.71875 344.066406 L 0.03125 344.066406 Z M 0.03125 101.445312 " clip-rule="nonzero"/></clipPath><clipPath id="253acbeac7"><path d="M 92.589844 101.445312 L 369.71875 101.445312 L 369.71875 344.066406 L 92.589844 344.066406 Z M 92.589844 101.445312 " clip-rule="nonzero"/></clipPath></defs><g clip-path="url(#503c52fc8c)"><path fill="#f9a72b" d="M 125.222656 214.355469 L 98.417969 95.066406 L 342.128906 95.066406 C 347.765625 95.066406 351.957031 100.277344 350.730469 105.773438 L 329 203.28125 C 327.554688 209.753906 321.804688 214.355469 315.164062 214.355469 Z M 369.410156 94.6875 C 371.171875 86.773438 365.144531 79.269531 357.027344 79.269531 L 94.871094 79.269531 L 87.609375 46.957031 C 86.523438 42.128906 82.476562 38.523438 77.546875 37.992188 L 8.785156 30.617188 C 4.441406 30.152344 0.542969 33.289062 0.0742188 37.625 C -0.390625 41.964844 2.753906 45.855469 7.097656 46.324219 L 72.835938 53.375 L 120.210938 264.230469 C 121.183594 268.558594 125.03125 271.636719 129.476562 271.636719 L 334.261719 271.636719 C 338.632812 271.636719 342.171875 268.097656 342.171875 263.738281 C 342.171875 259.375 338.632812 255.839844 334.261719 255.839844 L 142.140625 255.839844 C 137.699219 255.839844 133.851562 252.761719 132.878906 248.4375 L 128.769531 230.152344 L 327.851562 230.152344 C 334.496094 230.152344 340.246094 225.546875 341.6875 219.078125 L 369.410156 94.6875 " fill-opacity="1" fill-rule="nonzero"/></g><g clip-path="url(#f41381f965)"><path stroke-linecap="butt" transform="matrix(0.0133951, 0, 0, -0.0133729, 0.0296707, 344.067957)" fill="none" stroke-linejoin="miter" d="M 13601.491289 2248.138953 C 13601.491289 1282.739254 12818.787527 499.903795 11853.239033 499.903795 C 10887.69054 499.903795 10104.986778 1282.739254 10104.986778 2248.138953 C 10104.986778 3213.830754 10887.69054 3996.37411 11853.239033 3996.37411 C 12818.787527 3996.37411 13601.491289 3213.830754 13601.491289 2248.138953 Z M 13601.491289 2248.138953 " stroke="#f9a72b" stroke-width="1000" stroke-opacity="1" stroke-miterlimit="10"/></g><g clip-path="url(#253acbeac7)"><path stroke-linecap="butt" transform="matrix(0.0133951, 0, 0, -0.0133729, 0.0296707, 344.067957)" fill="none" stroke-linejoin="miter" d="M 24555.552917 2248.138953 C 24555.552917 1282.739254 23772.849155 499.903795 22807.300662 499.903795 C 21842.043787 499.903795 21059.340025 1282.739254 21059.340025 2248.138953 C 21059.340025 3213.830754 21842.043787 3996.37411 22807.300662 3996.37411 C 23772.849155 3996.37411 24555.552917 3213.830754 24555.552917 2248.138953 Z M 24555.552917 2248.138953 " stroke="#f9a72b" stroke-width="1000" stroke-opacity="1" stroke-miterlimit="10"/></g></svg>