<svg xmlns="http://www.w3.org/2000/svg" xmlns:xlink="http://www.w3.org/1999/xlink" width="500" zoomAndPan="magnify" viewBox="0 0 375 374.999991" height="500" preserveAspectRatio="xMidYMid meet" version="1.0"><defs><clipPath id="960f862fef"><path d="M 112.515625 123.804688 L 262.480469 123.804688 L 262.480469 221.863281 L 112.515625 221.863281 Z M 112.515625 123.804688 " clip-rule="nonzero"/></clipPath><clipPath id="c53ac6b1fa"><path d="M 112.515625 152.628906 L 262.480469 152.628906 L 262.480469 251.304688 L 112.515625 251.304688 Z M 112.515625 152.628906 " clip-rule="nonzero"/></clipPath><clipPath id="8591756cfe"><path d="M 150.0625 152.628906 L 262.480469 152.628906 L 262.480469 251.304688 L 150.0625 251.304688 Z M 150.0625 152.628906 " clip-rule="nonzero"/></clipPath></defs><g clip-path="url(#960f862fef)"><path fill="#f9a72b" d="M 163.300781 198.550781 L 152.429688 150.035156 L 251.289062 150.035156 C 253.578125 150.035156 255.277344 152.15625 254.777344 154.390625 L 245.964844 194.042969 C 245.378906 196.675781 243.046875 198.550781 240.351562 198.550781 Z M 262.355469 149.878906 C 263.070312 146.664062 260.625 143.609375 257.332031 143.609375 L 150.988281 143.609375 L 148.042969 130.46875 C 147.605469 128.503906 145.960938 127.039062 143.960938 126.824219 L 116.070312 123.824219 C 114.308594 123.632812 112.726562 124.910156 112.535156 126.675781 C 112.347656 128.4375 113.621094 130.019531 115.382812 130.210938 L 142.050781 133.078125 L 161.269531 218.835938 C 161.664062 220.59375 163.226562 221.84375 165.027344 221.84375 L 248.097656 221.84375 C 249.871094 221.84375 251.308594 220.40625 251.308594 218.632812 C 251.308594 216.859375 249.871094 215.421875 248.097656 215.421875 L 170.164062 215.421875 C 168.363281 215.421875 166.800781 214.167969 166.40625 212.410156 L 164.742188 204.972656 L 245.5 204.972656 C 248.195312 204.972656 250.527344 203.101562 251.113281 200.46875 L 262.355469 149.878906 " fill-opacity="1" fill-rule="nonzero"/></g><g clip-path="url(#c53ac6b1fa)"><path stroke-linecap="butt" transform="matrix(0.00543372, 0, 0, -0.00543872, 112.517311, 251.303244)" fill="none" stroke-linejoin="miter" d="M 13601.807485 2248.510292 C 13601.807485 1282.492008 12818.936274 500.340401 11853.467002 500.340401 C 10887.99773 500.340401 10105.126518 1282.492008 10105.126518 2248.510292 C 10105.126518 3213.810347 10887.99773 3996.680184 11853.467002 3996.680184 C 12818.936274 3996.680184 13601.807485 3213.810347 13601.807485 2248.510292 Z M 13601.807485 2248.510292 " stroke="#f9a72b" stroke-width="1000" stroke-opacity="1" stroke-miterlimit="10"/></g><g clip-path="url(#8591756cfe)"><path stroke-linecap="butt" transform="matrix(0.00543372, 0, 0, -0.00543872, 112.517311, 251.303244)" fill="none" stroke-linejoin="miter" d="M 24555.534436 2248.510292 C 24555.534436 1282.492008 23772.663225 500.340401 22807.193953 500.340401 C 21841.724681 500.340401 21059.57236 1282.492008 21059.57236 2248.510292 C 21059.57236 3213.810347 21841.724681 3996.680184 22807.193953 3996.680184 C 23772.663225 3996.680184 24555.534436 3213.810347 24555.534436 2248.510292 Z M 24555.534436 2248.510292 " stroke="#f9a72b" stroke-width="1000" stroke-opacity="1" stroke-miterlimit="10"/></g></svg>