<svg xmlns="http://www.w3.org/2000/svg" xmlns:xlink="http://www.w3.org/1999/xlink" width="500" zoomAndPan="magnify" viewBox="0 0 375 374.999991" height="500" preserveAspectRatio="xMidYMid meet" version="1.0"><defs><clipPath id="7e86882823"><path d="M 112.5 112.5 L 262.5 112.5 L 262.5 262.5 L 112.5 262.5 Z M 112.5 112.5 " clip-rule="nonzero"/></clipPath></defs><g clip-path="url(#7e86882823)"><path fill="#ffa726" d="M 262.5 187.5 C 262.5 188.726562 262.46875 189.953125 262.410156 191.179688 C 262.347656 192.40625 262.257812 193.628906 262.140625 194.851562 C 262.019531 196.074219 261.867188 197.289062 261.6875 198.503906 C 261.507812 199.71875 261.296875 200.929688 261.058594 202.132812 C 260.820312 203.335938 260.550781 204.53125 260.253906 205.722656 C 259.953125 206.914062 259.625 208.097656 259.269531 209.269531 C 258.914062 210.445312 258.527344 211.609375 258.117188 212.765625 C 257.703125 213.921875 257.261719 215.066406 256.789062 216.203125 C 256.320312 217.335938 255.824219 218.457031 255.300781 219.566406 C 254.773438 220.675781 254.222656 221.773438 253.644531 222.855469 C 253.066406 223.9375 252.460938 225.003906 251.828125 226.058594 C 251.199219 227.109375 250.542969 228.148438 249.859375 229.167969 C 249.179688 230.1875 248.472656 231.191406 247.742188 232.175781 C 247.007812 233.164062 246.253906 234.128906 245.476562 235.078125 C 244.695312 236.027344 243.894531 236.957031 243.070312 237.867188 C 242.246094 238.777344 241.402344 239.664062 240.53125 240.53125 C 239.664062 241.402344 238.777344 242.246094 237.867188 243.070312 C 236.957031 243.894531 236.027344 244.695312 235.078125 245.476562 C 234.128906 246.253906 233.164062 247.007812 232.175781 247.742188 C 231.191406 248.472656 230.1875 249.179688 229.167969 249.859375 C 228.148438 250.542969 227.109375 251.199219 226.058594 251.828125 C 225.003906 252.460938 223.9375 253.066406 222.855469 253.644531 C 221.773438 254.222656 220.675781 254.773438 219.566406 255.300781 C 218.457031 255.824219 217.335938 256.320312 216.203125 256.789062 C 215.066406 257.261719 213.921875 257.703125 212.765625 258.117188 C 211.609375 258.527344 210.445312 258.914062 209.269531 259.269531 C 208.097656 259.625 206.914062 259.953125 205.722656 260.253906 C 204.53125 260.550781 203.335938 260.820312 202.132812 261.058594 C 200.929688 261.296875 199.71875 261.507812 198.503906 261.6875 C 197.289062 261.867188 196.074219 262.019531 194.851562 262.140625 C 193.628906 262.257812 192.40625 262.347656 191.179688 262.410156 C 189.953125 262.46875 188.726562 262.5 187.5 262.5 C 186.273438 262.5 185.046875 262.46875 183.820312 262.410156 C 182.59375 262.347656 181.371094 262.257812 180.148438 262.140625 C 178.925781 262.019531 177.710938 261.867188 176.496094 261.6875 C 175.28125 261.507812 174.070312 261.296875 172.867188 261.058594 C 171.664062 260.820312 170.46875 260.550781 169.277344 260.253906 C 168.085938 259.953125 166.902344 259.625 165.730469 259.269531 C 164.554688 258.914062 163.390625 258.527344 162.234375 258.117188 C 161.078125 257.703125 159.933594 257.261719 158.796875 256.789062 C 157.664062 256.320312 156.542969 255.824219 155.433594 255.300781 C 154.324219 254.773438 153.226562 254.222656 152.144531 253.644531 C 151.0625 253.066406 149.996094 252.460938 148.941406 251.828125 C 147.890625 251.199219 146.851562 250.542969 145.832031 249.859375 C 144.8125 249.179688 143.808594 248.472656 142.824219 247.742188 C 141.835938 247.007812 140.871094 246.253906 139.921875 245.476562 C 138.972656 244.695312 138.042969 243.894531 137.132812 243.070312 C 136.222656 242.246094 135.335938 241.402344 134.46875 240.53125 C 133.597656 239.664062 132.753906 238.777344 131.929688 237.867188 C 131.105469 236.957031 130.304688 236.027344 129.523438 235.078125 C 128.746094 234.128906 127.992188 233.164062 127.257812 232.175781 C 126.527344 231.191406 125.820312 230.1875 125.140625 229.167969 C 124.457031 228.148438 123.800781 227.109375 123.171875 226.058594 C 122.539062 225.003906 121.933594 223.9375 121.355469 222.855469 C 120.777344 221.773438 120.226562 220.675781 119.699219 219.566406 C 119.175781 218.457031 118.679688 217.335938 118.210938 216.203125 C 117.738281 215.066406 117.296875 213.921875 116.882812 212.765625 C 116.46875 211.609375 116.085938 210.445312 115.730469 209.269531 C 115.375 208.097656 115.046875 206.914062 114.746094 205.722656 C 114.449219 204.53125 114.179688 203.335938 113.941406 202.132812 C 113.703125 200.929688 113.492188 199.71875 113.3125 198.503906 C 113.132812 197.289062 112.980469 196.074219 112.859375 194.851562 C 112.742188 193.628906 112.652344 192.40625 112.589844 191.179688 C 112.53125 189.953125 112.5 188.726562 112.5 187.5 C 112.5 186.273438 112.53125 185.046875 112.589844 183.820312 C 112.652344 182.59375 112.742188 181.371094 112.859375 180.148438 C 112.980469 178.925781 113.132812 177.710938 113.3125 176.496094 C 113.492188 175.28125 113.703125 174.070312 113.941406 172.867188 C 114.179688 171.664062 114.449219 170.46875 114.746094 169.277344 C 115.046875 168.085938 115.375 166.902344 115.730469 165.730469 C 116.085938 164.554688 116.46875 163.390625 116.882812 162.234375 C 117.296875 161.078125 117.738281 159.933594 118.210938 158.796875 C 118.679688 157.664062 119.175781 156.542969 119.699219 155.433594 C 120.226562 154.324219 120.777344 153.226562 121.355469 152.144531 C 121.933594 151.0625 122.539062 149.996094 123.171875 148.941406 C 123.800781 147.890625 124.457031 146.851562 125.140625 145.832031 C 125.820312 144.8125 126.527344 143.808594 127.257812 142.824219 C 127.992188 141.835938 128.746094 140.871094 129.523438 139.921875 C 130.304688 138.972656 131.105469 138.042969 131.929688 137.132812 C 132.753906 136.222656 133.597656 135.335938 134.46875 134.46875 C 135.335938 133.597656 136.222656 132.753906 137.132812 131.929688 C 138.042969 131.105469 138.972656 130.304688 139.921875 129.523438 C 140.871094 128.746094 141.835938 127.992188 142.824219 127.257812 C 143.808594 126.527344 144.8125 125.820312 145.832031 125.140625 C 146.851562 124.457031 147.890625 123.800781 148.941406 123.171875 C 149.996094 122.539062 151.0625 121.933594 152.144531 121.355469 C 153.226562 120.777344 154.324219 120.226562 155.433594 119.699219 C 156.542969 119.175781 157.664062 118.679688 158.796875 118.210938 C 159.933594 117.738281 161.078125 117.296875 162.234375 116.882812 C 163.390625 116.46875 164.554688 116.085938 165.730469 115.730469 C 166.902344 115.375 168.085938 115.046875 169.277344 114.746094 C 170.46875 114.449219 171.664062 114.179688 172.867188 113.941406 C 174.070312 113.703125 175.28125 113.492188 176.496094 113.3125 C 177.710938 113.132812 178.925781 112.980469 180.148438 112.859375 C 181.371094 112.742188 182.59375 112.652344 183.820312 112.589844 C 185.046875 112.53125 186.273438 112.5 187.5 112.5 C 188.726562 112.5 189.953125 112.53125 191.179688 112.589844 C 192.40625 112.652344 193.628906 112.742188 194.851562 112.859375 C 196.074219 112.980469 197.289062 113.132812 198.503906 113.3125 C 199.71875 113.492188 200.929688 113.703125 202.132812 113.941406 C 203.335938 114.179688 204.53125 114.449219 205.722656 114.746094 C 206.914062 115.046875 208.097656 115.375 209.269531 115.730469 C 210.445312 116.085938 211.609375 116.46875 212.765625 116.882812 C 213.921875 117.296875 215.066406 117.738281 216.203125 118.210938 C 217.335938 118.679688 218.457031 119.175781 219.566406 119.699219 C 220.675781 120.226562 221.773438 120.777344 222.855469 121.355469 C 223.9375 121.933594 225.003906 122.539062 226.058594 123.171875 C 227.109375 123.800781 228.148438 124.457031 229.167969 125.140625 C 230.1875 125.820312 231.191406 126.527344 232.175781 127.257812 C 233.164062 127.992188 234.128906 128.746094 235.078125 129.523438 C 236.027344 130.304688 236.957031 131.105469 237.867188 131.929688 C 238.777344 132.753906 239.664062 133.597656 240.53125 134.46875 C 241.402344 135.335938 242.246094 136.222656 243.070312 137.132812 C 243.894531 138.042969 244.695312 138.972656 245.476562 139.921875 C 246.253906 140.871094 247.007812 141.835938 247.742188 142.824219 C 248.472656 143.808594 249.179688 144.8125 249.859375 145.832031 C 250.542969 146.851562 251.199219 147.890625 251.828125 148.941406 C 252.460938 149.996094 253.066406 151.0625 253.644531 152.144531 C 254.222656 153.226562 254.773438 154.324219 255.300781 155.433594 C 255.824219 156.542969 256.320312 157.664062 256.789062 158.796875 C 257.261719 159.933594 257.703125 161.078125 258.117188 162.234375 C 258.527344 163.390625 258.914062 164.554688 259.269531 165.730469 C 259.625 166.902344 259.953125 168.085938 260.253906 169.277344 C 260.550781 170.46875 260.820312 171.664062 261.058594 172.867188 C 261.296875 174.070312 261.507812 175.28125 261.6875 176.496094 C 261.867188 177.710938 262.019531 178.925781 262.140625 180.148438 C 262.257812 181.371094 262.347656 182.59375 262.410156 183.820312 C 262.46875 185.046875 262.5 186.273438 262.5 187.5 Z M 262.5 187.5 " fill-opacity="1" fill-rule="nonzero"/></g><path fill="#ffffff" d="M 187.5 154.246094 C 165.621094 154.246094 147.820312 172.046875 147.820312 193.925781 C 147.820312 215.804688 165.621094 233.625 187.5 233.625 C 209.378906 233.625 227.179688 215.824219 227.179688 193.945312 C 227.179688 172.066406 209.378906 154.246094 187.5 154.246094 Z M 211.339844 217.523438 C 211.28125 217.625 211.179688 217.703125 211.101562 217.765625 C 205.039062 223.765625 196.699219 227.484375 187.519531 227.484375 C 178.339844 227.484375 170 223.785156 163.941406 217.765625 C 163.878906 217.726562 163.839844 217.683594 163.800781 217.644531 C 163.761719 217.605469 163.71875 217.566406 163.679688 217.503906 C 157.679688 211.445312 153.960938 203.105469 153.960938 193.925781 C 153.960938 184.746094 157.660156 176.40625 163.660156 170.34375 C 163.738281 170.246094 163.820312 170.144531 163.921875 170.085938 C 169.980469 164.085938 178.320312 160.386719 187.5 160.386719 C 206 160.386719 221.058594 175.445312 221.058594 193.945312 C 221.058594 203.125 217.339844 211.464844 211.339844 217.523438 Z M 211.339844 217.523438 " fill-opacity="1" fill-rule="nonzero"/><path fill="#ffffff" d="M 213.199219 193.945312 C 213.199219 193.34375 213.679688 192.863281 214.28125 192.863281 L 218.898438 192.863281 C 218.339844 176.40625 205.058594 163.105469 188.578125 162.546875 L 188.578125 167.164062 C 188.578125 167.765625 188.101562 168.246094 187.5 168.246094 C 186.898438 168.246094 186.421875 167.765625 186.421875 167.164062 L 186.421875 162.546875 C 169.960938 163.105469 156.660156 176.386719 156.101562 192.863281 L 160.71875 192.863281 C 161.320312 192.863281 161.800781 193.34375 161.800781 193.945312 C 161.800781 194.546875 161.320312 195.023438 160.71875 195.023438 L 156.101562 195.023438 C 156.660156 211.484375 169.941406 224.785156 186.421875 225.34375 L 186.421875 220.726562 C 186.421875 220.125 186.898438 219.644531 187.5 219.644531 C 188.101562 219.644531 188.578125 220.125 188.578125 220.726562 L 188.578125 225.34375 C 205.039062 224.785156 218.339844 211.503906 218.898438 195.023438 L 214.28125 195.023438 C 213.679688 195.003906 213.199219 194.523438 213.199219 193.945312 Z M 199.558594 207.804688 C 199.359375 207.984375 199.101562 208.066406 198.859375 208.066406 C 198.699219 208.066406 198.519531 208.023438 198.378906 207.945312 L 181.800781 199.445312 C 181.558594 199.324219 181.359375 199.105469 181.28125 198.84375 L 175.160156 181.246094 C 175.019531 180.824219 175.140625 180.363281 175.460938 180.085938 C 175.800781 179.804688 176.261719 179.746094 176.660156 179.945312 L 193.238281 188.445312 C 193.480469 188.566406 193.679688 188.785156 193.761719 189.046875 L 199.878906 206.644531 C 200 207.046875 199.878906 207.503906 199.558594 207.804688 Z M 199.558594 207.804688 " fill-opacity="1" fill-rule="nonzero"/><path fill="#ffffff" d="M 191.859375 190.144531 L 178.039062 183.066406 L 183.140625 197.726562 L 196.960938 204.804688 Z M 191.5 194.226562 C 191.421875 195.285156 190.941406 196.265625 190.140625 196.964844 C 189.378906 197.625 188.441406 197.945312 187.519531 197.945312 C 186.398438 197.945312 185.28125 197.484375 184.5 196.566406 C 183.800781 195.765625 183.460938 194.726562 183.519531 193.664062 C 183.601562 192.605469 184.078125 191.625 184.878906 190.925781 C 185.679688 190.226562 186.71875 189.886719 187.78125 189.945312 C 188.839844 190.023438 189.820312 190.503906 190.519531 191.304688 C 191.21875 192.125 191.558594 193.144531 191.5 194.226562 Z M 191.5 194.226562 " fill-opacity="1" fill-rule="nonzero"/><path fill="#ffffff" d="M 189.359375 194.066406 C 189.320312 194.566406 189.101562 195.003906 188.71875 195.34375 C 187.941406 196.023438 186.78125 195.925781 186.101562 195.164062 C 185.78125 194.785156 185.621094 194.304688 185.640625 193.824219 C 185.679688 193.324219 185.898438 192.886719 186.28125 192.546875 C 186.621094 192.246094 187.039062 192.085938 187.5 192.085938 C 187.539062 192.085938 187.578125 192.085938 187.640625 192.085938 C 187.878906 192.105469 188.121094 192.164062 188.339844 192.285156 C 188.558594 192.386719 188.761719 192.546875 188.921875 192.726562 C 189.21875 193.085938 189.378906 193.566406 189.359375 194.066406 Z M 189.359375 194.066406 " fill-opacity="1" fill-rule="nonzero"/><path fill="#ffffff" d="M 194.179688 152.644531 C 191.980469 152.285156 189.761719 152.125 187.5 152.125 C 185.238281 152.125 183 152.304688 180.820312 152.644531 C 182.339844 150.546875 184.800781 149.265625 187.5 149.265625 C 190.199219 149.265625 192.660156 150.523438 194.179688 152.644531 Z M 194.179688 152.644531 " fill-opacity="1" fill-rule="nonzero"/><path fill="#ffffff" d="M 194.019531 138.703125 C 194.019531 139.304688 193.539062 139.785156 192.941406 139.785156 L 188.558594 139.785156 L 188.558594 147.183594 C 188.199219 147.144531 187.839844 147.125 187.480469 147.125 C 187.121094 147.125 186.761719 147.144531 186.398438 147.183594 L 186.398438 139.785156 L 182.019531 139.785156 C 181.421875 139.785156 180.941406 139.304688 180.941406 138.703125 C 180.941406 138.105469 181.421875 137.625 182.019531 137.625 L 192.941406 137.625 C 193.539062 137.625 194.019531 138.105469 194.019531 138.703125 Z M 194.019531 138.703125 " fill-opacity="1" fill-rule="nonzero"/></svg>