<svg xmlns="http://www.w3.org/2000/svg" xmlns:xlink="http://www.w3.org/1999/xlink" width="500" zoomAndPan="magnify" viewBox="0 0 375 374.999991" height="500" preserveAspectRatio="xMidYMid meet" version="1.0"><defs><clipPath id="4e7cca7866"><path d="M 112.5 112.5 L 262.5 112.5 L 262.5 262.5 L 112.5 262.5 Z M 112.5 112.5 " clip-rule="nonzero"/></clipPath></defs><g clip-path="url(#4e7cca7866)"><path fill="#ffb300" d="M 187.5 112.5 C 188.726562 112.5 189.953125 112.53125 191.179688 112.589844 C 192.40625 112.652344 193.628906 112.742188 194.851562 112.859375 C 196.074219 112.980469 197.289062 113.132812 198.503906 113.3125 C 199.71875 113.492188 200.929688 113.703125 202.132812 113.941406 C 203.335938 114.179688 204.53125 114.449219 205.722656 114.746094 C 206.914062 115.046875 208.097656 115.375 209.269531 115.730469 C 210.445312 116.085938 211.609375 116.46875 212.765625 116.882812 C 213.921875 117.296875 215.066406 117.738281 216.203125 118.210938 C 217.335938 118.679688 218.457031 119.175781 219.566406 119.699219 C 220.675781 120.226562 221.773438 120.777344 222.855469 121.355469 C 223.9375 121.933594 225.003906 122.539062 226.058594 123.171875 C 227.109375 123.800781 228.148438 124.457031 229.167969 125.140625 C 230.1875 125.820312 231.191406 126.527344 232.175781 127.257812 C 233.164062 127.992188 234.128906 128.746094 235.078125 129.523438 C 236.027344 130.304688 236.957031 131.105469 237.867188 131.929688 C 238.777344 132.753906 239.664062 133.597656 240.53125 134.46875 C 241.402344 135.335938 242.246094 136.222656 243.070312 137.132812 C 243.894531 138.042969 244.695312 138.972656 245.476562 139.921875 C 246.253906 140.871094 247.007812 141.835938 247.742188 142.824219 C 248.472656 143.808594 249.179688 144.8125 249.859375 145.832031 C 250.542969 146.851562 251.199219 147.890625 251.828125 148.941406 C 252.460938 149.996094 253.066406 151.0625 253.644531 152.144531 C 254.222656 153.226562 254.773438 154.324219 255.300781 155.433594 C 255.824219 156.542969 256.320312 157.664062 256.789062 158.796875 C 257.261719 159.933594 257.703125 161.078125 258.117188 162.234375 C 258.53125 163.390625 258.914062 164.554688 259.269531 165.730469 C 259.625 166.902344 259.953125 168.085938 260.253906 169.277344 C 260.550781 170.46875 260.820312 171.664062 261.058594 172.867188 C 261.296875 174.070312 261.507812 175.28125 261.6875 176.496094 C 261.867188 177.710938 262.019531 178.925781 262.140625 180.148438 C 262.257812 181.371094 262.347656 182.59375 262.410156 183.820312 C 262.46875 185.046875 262.5 186.273438 262.5 187.5 C 262.5 188.726562 262.46875 189.953125 262.410156 191.179688 C 262.347656 192.40625 262.257812 193.628906 262.140625 194.851562 C 262.019531 196.074219 261.867188 197.289062 261.6875 198.503906 C 261.507812 199.71875 261.296875 200.929688 261.058594 202.132812 C 260.820312 203.335938 260.550781 204.53125 260.253906 205.722656 C 259.953125 206.914062 259.625 208.097656 259.269531 209.269531 C 258.914062 210.445312 258.53125 211.609375 258.117188 212.765625 C 257.703125 213.921875 257.261719 215.066406 256.789062 216.203125 C 256.320312 217.335938 255.824219 218.457031 255.300781 219.566406 C 254.773438 220.675781 254.222656 221.773438 253.644531 222.855469 C 253.066406 223.9375 252.460938 225.003906 251.828125 226.058594 C 251.199219 227.109375 250.542969 228.148438 249.859375 229.167969 C 249.179688 230.1875 248.472656 231.191406 247.742188 232.175781 C 247.007812 233.164062 246.253906 234.128906 245.476562 235.078125 C 244.695312 236.027344 243.894531 236.957031 243.070312 237.867188 C 242.246094 238.777344 241.402344 239.664062 240.53125 240.53125 C 239.664062 241.402344 238.777344 242.246094 237.867188 243.070312 C 236.957031 243.894531 236.027344 244.695312 235.078125 245.476562 C 234.128906 246.253906 233.164062 247.007812 232.175781 247.742188 C 231.191406 248.472656 230.1875 249.179688 229.167969 249.859375 C 228.148438 250.542969 227.109375 251.199219 226.058594 251.828125 C 225.003906 252.460938 223.9375 253.066406 222.855469 253.644531 C 221.773438 254.222656 220.675781 254.773438 219.566406 255.300781 C 218.457031 255.824219 217.335938 256.320312 216.203125 256.789062 C 215.066406 257.261719 213.921875 257.703125 212.765625 258.117188 C 211.609375 258.53125 210.445312 258.914062 209.269531 259.269531 C 208.097656 259.625 206.914062 259.953125 205.722656 260.253906 C 204.53125 260.550781 203.335938 260.820312 202.132812 261.058594 C 200.929688 261.296875 199.71875 261.507812 198.503906 261.6875 C 197.289062 261.867188 196.074219 262.019531 194.851562 262.140625 C 193.628906 262.257812 192.40625 262.347656 191.179688 262.410156 C 189.953125 262.46875 188.726562 262.5 187.5 262.5 C 186.273438 262.5 185.046875 262.46875 183.820312 262.410156 C 182.59375 262.347656 181.371094 262.257812 180.148438 262.140625 C 178.925781 262.019531 177.710938 261.867188 176.496094 261.6875 C 175.28125 261.507812 174.070312 261.296875 172.867188 261.058594 C 171.664062 260.820312 170.46875 260.550781 169.277344 260.253906 C 168.085938 259.953125 166.902344 259.625 165.730469 259.269531 C 164.554688 258.914062 163.390625 258.53125 162.234375 258.117188 C 161.078125 257.703125 159.933594 257.261719 158.796875 256.789062 C 157.664062 256.320312 156.542969 255.824219 155.433594 255.300781 C 154.324219 254.773438 153.226562 254.222656 152.144531 253.644531 C 151.0625 253.066406 149.996094 252.460938 148.941406 251.828125 C 147.890625 251.199219 146.851562 250.542969 145.832031 249.859375 C 144.8125 249.179688 143.808594 248.472656 142.824219 247.742188 C 141.835938 247.007812 140.871094 246.253906 139.921875 245.476562 C 138.972656 244.695312 138.042969 243.894531 137.132812 243.070312 C 136.222656 242.246094 135.335938 241.402344 134.46875 240.53125 C 133.597656 239.664062 132.753906 238.777344 131.929688 237.867188 C 131.105469 236.957031 130.304688 236.027344 129.523438 235.078125 C 128.746094 234.128906 127.992188 233.164062 127.257812 232.175781 C 126.527344 231.191406 125.820312 230.1875 125.140625 229.167969 C 124.457031 228.148438 123.800781 227.109375 123.171875 226.058594 C 122.539062 225.003906 121.933594 223.9375 121.355469 222.855469 C 120.777344 221.773438 120.226562 220.675781 119.699219 219.566406 C 119.175781 218.457031 118.679688 217.335938 118.210938 216.203125 C 117.738281 215.066406 117.296875 213.921875 116.882812 212.765625 C 116.46875 211.609375 116.085938 210.445312 115.730469 209.269531 C 115.375 208.097656 115.046875 206.914062 114.746094 205.722656 C 114.449219 204.53125 114.179688 203.335938 113.941406 202.132812 C 113.703125 200.929688 113.492188 199.71875 113.3125 198.503906 C 113.132812 197.289062 112.980469 196.074219 112.859375 194.851562 C 112.742188 193.628906 112.652344 192.40625 112.589844 191.179688 C 112.53125 189.953125 112.5 188.726562 112.5 187.5 C 112.5 186.273438 112.53125 185.046875 112.589844 183.820312 C 112.652344 182.59375 112.742188 181.371094 112.859375 180.148438 C 112.980469 178.925781 113.132812 177.710938 113.3125 176.496094 C 113.492188 175.28125 113.703125 174.070312 113.941406 172.867188 C 114.179688 171.664062 114.449219 170.46875 114.746094 169.277344 C 115.046875 168.085938 115.375 166.902344 115.730469 165.730469 C 116.085938 164.554688 116.46875 163.390625 116.882812 162.234375 C 117.296875 161.078125 117.738281 159.933594 118.210938 158.796875 C 118.679688 157.664062 119.175781 156.542969 119.699219 155.433594 C 120.226562 154.324219 120.777344 153.226562 121.355469 152.144531 C 121.933594 151.0625 122.539062 149.996094 123.171875 148.941406 C 123.800781 147.890625 124.457031 146.851562 125.140625 145.832031 C 125.820312 144.8125 126.527344 143.808594 127.257812 142.824219 C 127.992188 141.835938 128.746094 140.871094 129.523438 139.921875 C 130.304688 138.972656 131.105469 138.042969 131.929688 137.132812 C 132.753906 136.222656 133.597656 135.335938 134.46875 134.46875 C 135.335938 133.597656 136.222656 132.753906 137.132812 131.929688 C 138.042969 131.105469 138.972656 130.304688 139.921875 129.523438 C 140.871094 128.746094 141.835938 127.992188 142.824219 127.257812 C 143.808594 126.527344 144.8125 125.820312 145.832031 125.140625 C 146.851562 124.457031 147.890625 123.800781 148.941406 123.171875 C 149.996094 122.539062 151.0625 121.933594 152.144531 121.355469 C 153.226562 120.777344 154.324219 120.226562 155.433594 119.699219 C 156.542969 119.175781 157.664062 118.679688 158.796875 118.210938 C 159.933594 117.738281 161.078125 117.296875 162.234375 116.882812 C 163.390625 116.46875 164.554688 116.085938 165.730469 115.730469 C 166.902344 115.375 168.085938 115.046875 169.277344 114.746094 C 170.46875 114.449219 171.664062 114.179688 172.867188 113.941406 C 174.070312 113.703125 175.28125 113.492188 176.496094 113.3125 C 177.710938 113.132812 178.925781 112.980469 180.148438 112.859375 C 181.371094 112.742188 182.59375 112.652344 183.820312 112.589844 C 185.046875 112.53125 186.273438 112.5 187.5 112.5 Z M 187.5 112.5 " fill-opacity="1" fill-rule="evenodd"/></g><path fill="#fefefe" d="M 170.25 206.648438 C 169.550781 196.851562 166.949219 192.949219 164.601562 189.449219 C 162.398438 186.25 160.351562 183.199219 160.351562 176.699219 C 160.351562 164.25 170.5 154.148438 182.949219 154.148438 C 190.648438 154.148438 197.75 158.050781 201.898438 164.398438 L 193.300781 169.398438 C 192.148438 170.101562 191.449219 171.351562 191.550781 172.699219 C 191.648438 174 192.5 175.199219 193.75 175.699219 L 196.550781 176.800781 L 192.699219 182.949219 C 191.851562 184.300781 192.050781 186.050781 193.148438 187.199219 C 193.800781 187.898438 194.699219 188.300781 195.699219 188.300781 C 196.25 188.300781 196.851562 188.148438 197.351562 187.851562 L 204.351562 184.050781 C 203.550781 186.148438 202.449219 187.75 201.300781 189.449219 C 198.949219 192.949219 196.351562 196.851562 195.648438 206.648438 C 194.398438 205.949219 193 205.550781 191.449219 205.550781 L 182.699219 205.550781 C 182.449219 204.148438 182.601562 202.75 183.050781 201.398438 C 183.75 199.5 184.351562 197.601562 184.898438 195.699219 L 185 195.300781 L 185.398438 195.351562 C 187.351562 195.398438 189.25 195.398438 191.199219 195.351562 C 191.75 195.351562 192.148438 194.851562 192.148438 194.300781 C 192.148438 193.800781 191.699219 193.351562 191.148438 193.351562 C 191.148438 193.351562 191.101562 193.351562 191.101562 193.351562 C 189.449219 193.398438 187.75 193.398438 186.101562 193.300781 L 185.5 193.300781 L 185.601562 192.75 C 186.050781 190.648438 186.699219 186.898438 184.75 185.351562 C 183 183.949219 180.398438 185.300781 178.851562 186.25 C 177.148438 187.300781 173.949219 189.398438 174.648438 191.75 C 175.398438 194.148438 180.351562 194.851562 182.398438 195.101562 L 183 195.148438 L 182.800781 195.75 C 182.351562 197.398438 181.800781 199.050781 181.199219 200.699219 C 180.601562 202.300781 180.449219 203.949219 180.699219 205.550781 L 174.449219 205.550781 C 172.949219 205.550781 171.5 205.949219 170.25 206.648438 Z M 183.398438 178.199219 C 183.949219 178.199219 184.398438 177.75 184.398438 177.199219 L 184.398438 175.800781 C 184.398438 175.25 183.949219 174.800781 183.398438 174.800781 C 182.851562 174.800781 182.398438 175.25 182.398438 175.800781 L 182.398438 177.199219 C 182.398438 177.75 182.851562 178.199219 183.398438 178.199219 Z M 190.050781 180.101562 C 190.449219 180.101562 190.75 179.898438 190.949219 179.601562 L 191.648438 178.398438 C 191.898438 177.949219 191.75 177.300781 191.25 177.050781 C 190.800781 176.75 190.199219 176.949219 189.898438 177.398438 L 189.199219 178.601562 C 188.949219 179.101562 189.101562 179.699219 189.550781 180 C 189.75 180.050781 189.898438 180.101562 190.050781 180.101562 Z M 176.648438 179.851562 C 176.800781 179.851562 177 179.800781 177.148438 179.75 C 177.601562 179.449219 177.800781 178.851562 177.5 178.351562 L 176.800781 177.148438 C 176.550781 176.699219 175.949219 176.5 175.449219 176.800781 C 174.949219 177.101562 174.800781 177.699219 175.101562 178.148438 L 175.800781 179.351562 C 175.949219 179.699219 176.300781 179.851562 176.648438 179.851562 Z M 176.648438 179.851562 " fill-opacity="1" fill-rule="evenodd"/><path fill="#fefefe" d="M 191.449219 220.550781 L 174.449219 220.550781 C 171.199219 220.550781 168.5 218.148438 168 215.050781 L 182.949219 215.050781 C 183.5 215.050781 183.949219 214.601562 183.949219 214.050781 C 183.949219 213.5 183.5 213.050781 182.949219 213.050781 L 168 213.050781 C 168.5 209.949219 171.199219 207.550781 174.449219 207.550781 L 191.449219 207.550781 C 195.050781 207.550781 197.949219 210.449219 197.949219 214.050781 C 197.949219 217.601562 195.050781 220.550781 191.449219 220.550781 Z M 191.449219 220.550781 " fill-opacity="1" fill-rule="evenodd"/><path fill="#fefefe" d="M 187 230.148438 L 178.898438 230.148438 C 175.449219 230.148438 172.601562 227.300781 172.601562 223.851562 L 172.601562 222.351562 C 173.199219 222.449219 173.800781 222.550781 174.449219 222.550781 L 191.449219 222.550781 C 192.101562 222.550781 192.699219 222.449219 193.300781 222.351562 L 193.300781 223.851562 C 193.300781 227.300781 190.449219 230.148438 187 230.148438 Z M 187 230.148438 " fill-opacity="1" fill-rule="evenodd"/><path fill="#fefefe" d="M 183.550781 151.25 C 182.699219 151.25 182.050781 150.601562 182.050781 149.75 L 182.050781 146.351562 C 182.050781 145.550781 182.699219 144.851562 183.550781 144.851562 C 184.351562 144.851562 185.050781 145.550781 185.050781 146.351562 L 185.050781 149.75 C 185.050781 150.601562 184.351562 151.25 183.550781 151.25 Z M 183.550781 151.25 " fill-opacity="1" fill-rule="evenodd"/><path fill="#fefefe" d="M 199.898438 155.949219 C 199.648438 155.949219 199.398438 155.898438 199.148438 155.75 C 198.449219 155.351562 198.199219 154.449219 198.601562 153.699219 L 200.300781 150.75 C 200.75 150.050781 201.648438 149.800781 202.351562 150.199219 C 203.101562 150.648438 203.351562 151.550781 202.898438 152.25 L 201.199219 155.199219 C 200.949219 155.699219 200.449219 155.949219 199.898438 155.949219 Z M 199.898438 155.949219 " fill-opacity="1" fill-rule="evenodd"/><path fill="#fefefe" d="M 167 155.398438 C 166.5 155.398438 166 155.101562 165.699219 154.648438 L 164 151.699219 C 163.601562 150.949219 163.851562 150.050781 164.550781 149.648438 C 165.25 149.199219 166.199219 149.449219 166.601562 150.199219 L 168.300781 153.148438 C 168.699219 153.851562 168.449219 154.75 167.75 155.199219 C 167.5 155.300781 167.25 155.398438 167 155.398438 Z M 167 155.398438 " fill-opacity="1" fill-rule="evenodd"/><path fill="#fefefe" d="M 195.699219 186.300781 C 195.300781 186.300781 194.898438 186.148438 194.601562 185.800781 C 194.148438 185.300781 194.050781 184.550781 194.398438 184 L 199.5 175.851562 L 194.5 173.800781 C 193.949219 173.601562 193.601562 173.101562 193.550781 172.550781 C 193.5 171.949219 193.800781 171.449219 194.300781 171.148438 L 210.148438 161.898438 C 210.699219 161.550781 211.398438 161.648438 211.898438 162.101562 C 212.398438 162.5 212.550781 163.199219 212.300781 163.800781 L 208.398438 172.648438 L 213.449219 173.75 C 214.050781 173.898438 214.550781 174.398438 214.601562 175 C 214.699219 175.648438 214.398438 176.25 213.851562 176.550781 L 196.398438 186.101562 C 196.199219 186.25 195.949219 186.300781 195.699219 186.300781 Z M 195.699219 186.300781 " fill-opacity="1" fill-rule="evenodd"/><path fill="#fefefe" d="M 177.101562 191.050781 C 177.5 191.699219 179.898438 192.300781 183.101562 192.601562 C 184.050781 188.050781 183.199219 187.300781 183.199219 187.300781 C 183.199219 187.300781 182.550781 186.898438 180.148438 188.398438 C 177.5 190 177.148438 190.851562 177.101562 191.050781 Z M 177.101562 191.050781 " fill-opacity="1" fill-rule="evenodd"/></svg>