<svg xmlns="http://www.w3.org/2000/svg" xmlns:xlink="http://www.w3.org/1999/xlink" width="500" zoomAndPan="magnify" viewBox="0 0 375 374.999991" height="500" preserveAspectRatio="xMidYMid meet" version="1.0"><defs><clipPath id="7ac6e1faad"><path d="M 1.859375 1.859375 L 373.109375 1.859375 L 373.109375 373.109375 L 1.859375 373.109375 Z M 1.859375 1.859375 " clip-rule="nonzero"/></clipPath></defs><g clip-path="url(#7ac6e1faad)"><path fill="#ffb300" d="M 187.484375 1.859375 C 190.523438 1.859375 193.558594 1.933594 196.59375 2.085938 C 199.628906 2.234375 202.65625 2.457031 205.679688 2.753906 C 208.703125 3.050781 211.71875 3.425781 214.722656 3.871094 C 217.726562 4.316406 220.71875 4.835938 223.699219 5.425781 C 226.679688 6.019531 229.640625 6.683594 232.589844 7.421875 C 235.535156 8.160156 238.460938 8.972656 241.371094 9.855469 C 244.277344 10.734375 247.160156 11.6875 250.019531 12.710938 C 252.882812 13.734375 255.714844 14.828125 258.519531 15.992188 C 261.328125 17.152344 264.105469 18.382812 266.851562 19.683594 C 269.597656 20.980469 272.308594 22.347656 274.988281 23.777344 C 277.667969 25.210938 280.308594 26.707031 282.914062 28.269531 C 285.523438 29.832031 288.085938 31.457031 290.613281 33.144531 C 293.140625 34.832031 295.621094 36.582031 298.0625 38.390625 C 300.503906 40.199219 302.898438 42.070312 305.246094 43.996094 C 307.59375 45.921875 309.894531 47.90625 312.144531 49.945312 C 314.394531 51.988281 316.59375 54.082031 318.742188 56.230469 C 320.890625 58.378906 322.984375 60.578125 325.023438 62.828125 C 327.066406 65.078125 329.046875 67.378906 330.976562 69.726562 C 332.902344 72.074219 334.769531 74.46875 336.582031 76.910156 C 338.390625 79.347656 340.140625 81.832031 341.828125 84.359375 C 343.515625 86.882812 345.140625 89.449219 346.703125 92.054688 C 348.261719 94.660156 349.761719 97.304688 351.191406 99.984375 C 352.625 102.660156 353.988281 105.375 355.289062 108.121094 C 356.585938 110.867188 357.816406 113.644531 358.980469 116.449219 C 360.144531 119.257812 361.234375 122.089844 362.257812 124.949219 C 363.285156 127.8125 364.234375 130.695312 365.117188 133.601562 C 366 136.507812 366.808594 139.4375 367.546875 142.382812 C 368.285156 145.328125 368.953125 148.292969 369.542969 151.273438 C 370.136719 154.25 370.65625 157.242188 371.101562 160.25 C 371.546875 163.253906 371.917969 166.269531 372.21875 169.292969 C 372.515625 172.316406 372.738281 175.34375 372.886719 178.378906 C 373.035156 181.410156 373.109375 184.449219 373.109375 187.484375 C 373.109375 190.523438 373.035156 193.558594 372.886719 196.59375 C 372.738281 199.628906 372.515625 202.65625 372.21875 205.679688 C 371.917969 208.703125 371.546875 211.71875 371.101562 214.722656 C 370.65625 217.726562 370.136719 220.71875 369.542969 223.699219 C 368.953125 226.679688 368.285156 229.640625 367.546875 232.589844 C 366.808594 235.535156 366 238.460938 365.117188 241.371094 C 364.234375 244.277344 363.285156 247.160156 362.261719 250.019531 C 361.238281 252.882812 360.144531 255.714844 358.980469 258.519531 C 357.816406 261.328125 356.585938 264.105469 355.289062 266.851562 C 353.988281 269.597656 352.625 272.308594 351.191406 274.988281 C 349.761719 277.667969 348.261719 280.308594 346.703125 282.914062 C 345.140625 285.523438 343.515625 288.085938 341.828125 290.613281 C 340.140625 293.140625 338.390625 295.621094 336.582031 298.0625 C 334.769531 300.503906 332.902344 302.898438 330.976562 305.246094 C 329.046875 307.59375 327.066406 309.894531 325.023438 312.144531 C 322.984375 314.394531 320.890625 316.59375 318.742188 318.742188 C 316.59375 320.890625 314.394531 322.984375 312.144531 325.023438 C 309.894531 327.066406 307.59375 329.046875 305.246094 330.976562 C 302.898438 332.902344 300.503906 334.769531 298.0625 336.582031 C 295.621094 338.390625 293.140625 340.140625 290.613281 341.828125 C 288.085938 343.515625 285.523438 345.140625 282.914062 346.703125 C 280.308594 348.261719 277.667969 349.761719 274.988281 351.191406 C 272.308594 352.625 269.597656 353.988281 266.851562 355.289062 C 264.105469 356.585938 261.328125 357.816406 258.519531 358.980469 C 255.714844 360.144531 252.882812 361.234375 250.019531 362.257812 C 247.160156 363.285156 244.277344 364.234375 241.371094 365.117188 C 238.460938 366 235.535156 366.808594 232.589844 367.546875 C 229.640625 368.285156 226.679688 368.953125 223.699219 369.542969 C 220.71875 370.136719 217.726562 370.65625 214.722656 371.101562 C 211.71875 371.546875 208.703125 371.917969 205.679688 372.21875 C 202.65625 372.515625 199.628906 372.738281 196.59375 372.886719 C 193.558594 373.035156 190.523438 373.109375 187.484375 373.109375 C 184.449219 373.109375 181.410156 373.035156 178.378906 372.886719 C 175.34375 372.738281 172.316406 372.515625 169.292969 372.21875 C 166.269531 371.917969 163.253906 371.546875 160.25 371.101562 C 157.242188 370.65625 154.25 370.136719 151.273438 369.542969 C 148.292969 368.953125 145.328125 368.285156 142.382812 367.546875 C 139.4375 366.808594 136.507812 366 133.601562 365.117188 C 130.695312 364.234375 127.8125 363.285156 124.949219 362.261719 C 122.089844 361.238281 119.257812 360.144531 116.449219 358.980469 C 113.644531 357.816406 110.867188 356.585938 108.121094 355.289062 C 105.375 353.988281 102.660156 352.625 99.984375 351.191406 C 97.304688 349.761719 94.660156 348.261719 92.054688 346.703125 C 89.449219 345.140625 86.882812 343.515625 84.359375 341.828125 C 81.832031 340.140625 79.347656 338.390625 76.910156 336.582031 C 74.46875 334.769531 72.074219 332.902344 69.726562 330.976562 C 67.378906 329.046875 65.078125 327.066406 62.828125 325.023438 C 60.578125 322.984375 58.378906 320.890625 56.230469 318.742188 C 54.082031 316.59375 51.988281 314.394531 49.945312 312.144531 C 47.90625 309.894531 45.921875 307.59375 43.996094 305.246094 C 42.070312 302.898438 40.199219 300.503906 38.390625 298.0625 C 36.582031 295.621094 34.832031 293.140625 33.144531 290.613281 C 31.457031 288.085938 29.832031 285.523438 28.269531 282.914062 C 26.707031 280.308594 25.210938 277.667969 23.777344 274.988281 C 22.347656 272.308594 20.980469 269.597656 19.683594 266.851562 C 18.382812 264.105469 17.152344 261.328125 15.992188 258.519531 C 14.828125 255.714844 13.734375 252.882812 12.710938 250.019531 C 11.6875 247.160156 10.734375 244.277344 9.855469 241.371094 C 8.972656 238.460938 8.160156 235.535156 7.421875 232.589844 C 6.683594 229.640625 6.019531 226.679688 5.425781 223.699219 C 4.835938 220.71875 4.316406 217.726562 3.871094 214.722656 C 3.425781 211.71875 3.050781 208.703125 2.753906 205.679688 C 2.457031 202.65625 2.234375 199.628906 2.085938 196.59375 C 1.933594 193.558594 1.859375 190.523438 1.859375 187.484375 C 1.859375 184.449219 1.933594 181.410156 2.085938 178.378906 C 2.234375 175.34375 2.457031 172.316406 2.753906 169.292969 C 3.050781 166.269531 3.425781 163.253906 3.871094 160.25 C 4.316406 157.242188 4.835938 154.25 5.425781 151.273438 C 6.019531 148.292969 6.683594 145.328125 7.421875 142.382812 C 8.160156 139.4375 8.972656 136.507812 9.855469 133.601562 C 10.734375 130.695312 11.6875 127.8125 12.710938 124.949219 C 13.734375 122.089844 14.828125 119.257812 15.992188 116.449219 C 17.152344 113.644531 18.382812 110.867188 19.683594 108.121094 C 20.980469 105.375 22.347656 102.660156 23.777344 99.984375 C 25.210938 97.304688 26.707031 94.660156 28.269531 92.054688 C 29.832031 89.449219 31.457031 86.882812 33.144531 84.359375 C 34.832031 81.832031 36.582031 79.347656 38.390625 76.910156 C 40.199219 74.46875 42.070312 72.074219 43.996094 69.726562 C 45.921875 67.378906 47.90625 65.078125 49.945312 62.828125 C 51.988281 60.578125 54.082031 58.378906 56.230469 56.230469 C 58.378906 54.082031 60.578125 51.988281 62.828125 49.945312 C 65.078125 47.90625 67.378906 45.921875 69.726562 43.996094 C 72.074219 42.070312 74.46875 40.199219 76.910156 38.390625 C 79.347656 36.582031 81.832031 34.832031 84.359375 33.144531 C 86.882812 31.457031 89.449219 29.832031 92.054688 28.269531 C 94.660156 26.707031 97.304688 25.210938 99.984375 23.777344 C 102.660156 22.347656 105.375 20.980469 108.121094 19.683594 C 110.867188 18.382812 113.644531 17.152344 116.449219 15.992188 C 119.257812 14.828125 122.089844 13.734375 124.949219 12.710938 C 127.8125 11.6875 130.695312 10.734375 133.601562 9.855469 C 136.507812 8.972656 139.4375 8.160156 142.382812 7.421875 C 145.328125 6.683594 148.292969 6.019531 151.273438 5.425781 C 154.25 4.835938 157.242188 4.316406 160.25 3.871094 C 163.253906 3.425781 166.269531 3.050781 169.292969 2.753906 C 172.316406 2.457031 175.34375 2.234375 178.378906 2.085938 C 181.410156 1.933594 184.449219 1.859375 187.484375 1.859375 Z M 187.484375 1.859375 " fill-opacity="1" fill-rule="evenodd"/></g><path fill="#fefefe" d="M 144.792969 234.882812 C 143.058594 210.625 136.625 200.972656 130.808594 192.3125 C 125.363281 184.390625 120.289062 176.84375 120.289062 160.753906 C 120.289062 129.941406 145.410156 104.945312 176.222656 104.945312 C 195.28125 104.945312 212.855469 114.597656 223.125 130.3125 L 201.839844 142.6875 C 198.996094 144.421875 197.261719 147.515625 197.507812 150.855469 C 197.757812 154.074219 199.859375 157.042969 202.953125 158.28125 L 209.882812 161.003906 L 200.355469 176.222656 C 198.25 179.566406 198.746094 183.898438 201.46875 186.742188 C 203.078125 188.476562 205.304688 189.464844 207.78125 189.464844 C 209.140625 189.464844 210.625 189.09375 211.863281 188.351562 L 229.1875 178.945312 C 227.210938 184.144531 224.488281 188.105469 221.640625 192.3125 C 215.824219 200.972656 209.390625 210.625 207.65625 234.882812 C 204.5625 233.148438 201.097656 232.160156 197.261719 232.160156 L 175.605469 232.160156 C 174.988281 228.695312 175.359375 225.230469 176.472656 221.886719 C 178.203125 217.1875 179.6875 212.484375 181.050781 207.78125 L 181.296875 206.789062 L 182.289062 206.914062 C 187.113281 207.039062 191.816406 207.039062 196.644531 206.914062 C 198.003906 206.914062 198.996094 205.675781 198.996094 204.316406 C 198.996094 203.078125 197.878906 201.964844 196.519531 201.964844 C 196.519531 201.964844 196.394531 201.964844 196.394531 201.964844 C 192.3125 202.089844 188.105469 202.089844 184.019531 201.839844 L 182.535156 201.839844 L 182.78125 200.480469 C 183.898438 195.28125 185.503906 186 180.679688 182.164062 C 176.347656 178.699219 169.914062 182.039062 166.078125 184.390625 C 161.871094 186.992188 153.949219 192.1875 155.683594 198.003906 C 157.539062 203.945312 169.789062 205.675781 174.863281 206.296875 L 176.347656 206.417969 L 175.851562 207.90625 C 174.738281 211.988281 173.378906 216.070312 171.894531 220.15625 C 170.40625 224.117188 170.035156 228.199219 170.65625 232.160156 L 155.1875 232.160156 C 151.472656 232.160156 147.886719 233.148438 144.792969 234.882812 Z M 177.339844 164.46875 C 178.699219 164.46875 179.8125 163.355469 179.8125 161.992188 L 179.8125 158.527344 C 179.8125 157.167969 178.699219 156.054688 177.339844 156.054688 C 175.976562 156.054688 174.863281 157.167969 174.863281 158.527344 L 174.863281 161.992188 C 174.863281 163.355469 175.976562 164.46875 177.339844 164.46875 Z M 193.796875 169.171875 C 194.785156 169.171875 195.53125 168.675781 196.023438 167.933594 L 197.757812 164.964844 C 198.375 163.847656 198.003906 162.242188 196.765625 161.621094 C 195.652344 160.878906 194.167969 161.375 193.425781 162.488281 L 191.691406 165.457031 C 191.074219 166.695312 191.445312 168.179688 192.558594 168.921875 C 193.054688 169.046875 193.425781 169.171875 193.796875 169.171875 Z M 160.632812 168.550781 C 161.003906 168.550781 161.5 168.429688 161.871094 168.304688 C 162.984375 167.5625 163.476562 166.078125 162.734375 164.839844 L 161.003906 161.871094 C 160.382812 160.753906 158.898438 160.261719 157.660156 161.003906 C 156.425781 161.746094 156.054688 163.230469 156.796875 164.34375 L 158.527344 167.3125 C 158.898438 168.179688 159.765625 168.550781 160.632812 168.550781 Z M 160.632812 168.550781 " fill-opacity="1" fill-rule="evenodd"/><path fill="#fefefe" d="M 197.261719 269.285156 L 155.1875 269.285156 C 147.144531 269.285156 140.460938 263.34375 139.222656 255.671875 L 176.222656 255.671875 C 177.585938 255.671875 178.699219 254.558594 178.699219 253.195312 C 178.699219 251.835938 177.585938 250.722656 176.222656 250.722656 L 139.222656 250.722656 C 140.460938 243.050781 147.144531 237.109375 155.1875 237.109375 L 197.261719 237.109375 C 206.171875 237.109375 213.347656 244.285156 213.347656 253.195312 C 213.347656 261.984375 206.171875 269.285156 197.261719 269.285156 Z M 197.261719 269.285156 " fill-opacity="1" fill-rule="evenodd"/><path fill="#fefefe" d="M 186.25 293.042969 L 166.199219 293.042969 C 157.660156 293.042969 150.609375 285.992188 150.609375 277.453125 L 150.609375 273.738281 C 152.09375 273.988281 153.578125 274.234375 155.1875 274.234375 L 197.261719 274.234375 C 198.871094 274.234375 200.355469 273.988281 201.839844 273.738281 L 201.839844 277.453125 C 201.839844 285.992188 194.785156 293.042969 186.25 293.042969 Z M 186.25 293.042969 " fill-opacity="1" fill-rule="evenodd"/><path fill="#fefefe" d="M 177.710938 97.765625 C 175.605469 97.765625 173.996094 96.15625 173.996094 94.054688 L 173.996094 85.640625 C 173.996094 83.660156 175.605469 81.925781 177.710938 81.925781 C 179.6875 81.925781 181.421875 83.660156 181.421875 85.640625 L 181.421875 94.054688 C 181.421875 96.15625 179.6875 97.765625 177.710938 97.765625 Z M 177.710938 97.765625 " fill-opacity="1" fill-rule="evenodd"/><path fill="#fefefe" d="M 218.175781 109.398438 C 217.558594 109.398438 216.9375 109.277344 216.320312 108.90625 C 214.585938 107.914062 213.96875 105.6875 214.957031 103.832031 L 219.164062 96.53125 C 220.28125 94.796875 222.507812 94.179688 224.238281 95.167969 C 226.09375 96.28125 226.714844 98.507812 225.601562 100.242188 L 221.394531 107.542969 C 220.773438 108.78125 219.535156 109.398438 218.175781 109.398438 Z M 218.175781 109.398438 " fill-opacity="1" fill-rule="evenodd"/><path fill="#fefefe" d="M 136.75 108.039062 C 135.511719 108.039062 134.273438 107.296875 133.53125 106.183594 L 129.324219 98.878906 C 128.332031 97.023438 128.953125 94.796875 130.683594 93.808594 C 132.417969 92.691406 134.769531 93.3125 135.757812 95.167969 L 139.964844 102.46875 C 140.957031 104.203125 140.335938 106.429688 138.605469 107.542969 C 137.984375 107.789062 137.367188 108.039062 136.75 108.039062 Z M 136.75 108.039062 " fill-opacity="1" fill-rule="evenodd"/><path fill="#fefefe" d="M 207.78125 184.515625 C 206.789062 184.515625 205.800781 184.144531 205.058594 183.277344 C 203.945312 182.039062 203.695312 180.183594 204.5625 178.824219 L 217.1875 158.652344 L 204.8125 153.578125 C 203.449219 153.082031 202.582031 151.84375 202.460938 150.484375 C 202.335938 149 203.078125 147.761719 204.316406 147.019531 L 243.542969 124.125 C 244.90625 123.257812 246.636719 123.507812 247.875 124.621094 C 249.113281 125.609375 249.484375 127.34375 248.867188 128.828125 L 239.214844 150.730469 L 251.710938 153.453125 C 253.195312 153.824219 254.433594 155.0625 254.558594 156.546875 C 254.804688 158.15625 254.0625 159.640625 252.703125 160.382812 L 209.511719 184.019531 C 209.019531 184.390625 208.398438 184.515625 207.78125 184.515625 Z M 207.78125 184.515625 " fill-opacity="1" fill-rule="evenodd"/><path fill="#fefefe" d="M 161.746094 196.273438 C 162.734375 197.878906 168.675781 199.367188 176.59375 200.109375 C 178.945312 188.847656 176.84375 186.992188 176.84375 186.992188 C 176.84375 186.992188 175.234375 186 169.292969 189.714844 C 162.734375 193.671875 161.871094 195.777344 161.746094 196.273438 Z M 161.746094 196.273438 " fill-opacity="1" fill-rule="evenodd"/></svg>