<svg xmlns="http://www.w3.org/2000/svg" xmlns:xlink="http://www.w3.org/1999/xlink" width="500" zoomAndPan="magnify" viewBox="0 0 375 374.999991" height="500" preserveAspectRatio="xMidYMid meet" version="1.0"><path fill="#ffa726" d="M 374.960938 187.460938 C 374.960938 190.53125 374.886719 193.597656 374.734375 196.660156 C 374.585938 199.726562 374.359375 202.785156 374.058594 205.839844 C 373.757812 208.894531 373.382812 211.9375 372.929688 214.972656 C 372.480469 218.007812 371.957031 221.03125 371.359375 224.039062 C 370.757812 227.050781 370.085938 230.042969 369.339844 233.019531 C 368.597656 235.996094 367.777344 238.953125 366.886719 241.890625 C 365.996094 244.824219 365.035156 247.738281 364 250.628906 C 362.964844 253.515625 361.863281 256.378906 360.6875 259.214844 C 359.515625 262.050781 358.269531 264.851562 356.957031 267.628906 C 355.648438 270.402344 354.269531 273.140625 352.820312 275.847656 C 351.375 278.554688 349.863281 281.222656 348.285156 283.855469 C 346.707031 286.488281 345.066406 289.078125 343.363281 291.628906 C 341.65625 294.183594 339.890625 296.691406 338.0625 299.15625 C 336.234375 301.621094 334.347656 304.039062 332.398438 306.410156 C 330.453125 308.78125 328.449219 311.105469 326.390625 313.378906 C 324.328125 315.652344 322.214844 317.875 320.042969 320.042969 C 317.875 322.214844 315.652344 324.328125 313.378906 326.390625 C 311.105469 328.449219 308.78125 330.453125 306.410156 332.398438 C 304.039062 334.347656 301.621094 336.234375 299.15625 338.0625 C 296.691406 339.890625 294.183594 341.65625 291.628906 343.363281 C 289.078125 345.066406 286.488281 346.707031 283.855469 348.285156 C 281.222656 349.863281 278.554688 351.375 275.847656 352.820312 C 273.140625 354.269531 270.402344 355.648438 267.628906 356.957031 C 264.851562 358.269531 262.050781 359.515625 259.214844 360.6875 C 256.378906 361.863281 253.515625 362.964844 250.628906 364 C 247.738281 365.035156 244.824219 365.996094 241.890625 366.886719 C 238.953125 367.777344 235.996094 368.597656 233.019531 369.339844 C 230.042969 370.085938 227.050781 370.757812 224.039062 371.359375 C 221.03125 371.957031 218.007812 372.480469 214.972656 372.929688 C 211.9375 373.382812 208.894531 373.757812 205.839844 374.058594 C 202.785156 374.359375 199.726562 374.585938 196.660156 374.734375 C 193.597656 374.886719 190.53125 374.960938 187.460938 374.960938 C 184.390625 374.960938 181.324219 374.886719 178.261719 374.734375 C 175.195312 374.585938 172.136719 374.359375 169.082031 374.058594 C 166.027344 373.757812 162.984375 373.382812 159.949219 372.929688 C 156.914062 372.480469 153.890625 371.957031 150.882812 371.359375 C 147.871094 370.757812 144.878906 370.085938 141.902344 369.339844 C 138.925781 368.597656 135.96875 367.777344 133.03125 366.886719 C 130.097656 365.996094 127.183594 365.035156 124.292969 364 C 121.40625 362.964844 118.542969 361.863281 115.707031 360.6875 C 112.871094 359.515625 110.066406 358.269531 107.292969 356.957031 C 104.519531 355.648438 101.78125 354.269531 99.074219 352.820312 C 96.367188 351.375 93.699219 349.863281 91.066406 348.285156 C 88.433594 346.707031 85.84375 345.066406 83.292969 343.363281 C 80.738281 341.65625 78.230469 339.890625 75.765625 338.0625 C 73.300781 336.234375 70.882812 334.347656 68.511719 332.398438 C 66.140625 330.453125 63.816406 328.449219 61.542969 326.390625 C 59.269531 324.328125 57.046875 322.214844 54.878906 320.042969 C 52.707031 317.875 50.59375 315.652344 48.53125 313.378906 C 46.472656 311.105469 44.46875 308.78125 42.519531 306.410156 C 40.574219 304.039062 38.6875 301.621094 36.859375 299.15625 C 35.03125 296.691406 33.265625 294.183594 31.558594 291.628906 C 29.855469 289.078125 28.214844 286.488281 26.636719 283.855469 C 25.058594 281.222656 23.546875 278.554688 22.101562 275.847656 C 20.652344 273.140625 19.273438 270.402344 17.964844 267.628906 C 16.652344 264.851562 15.40625 262.050781 14.234375 259.214844 C 13.058594 256.378906 11.957031 253.515625 10.921875 250.628906 C 9.886719 247.738281 8.925781 244.824219 8.035156 241.890625 C 7.144531 238.953125 6.324219 235.996094 5.582031 233.019531 C 4.835938 230.042969 4.164062 227.050781 3.5625 224.039062 C 2.964844 221.03125 2.441406 218.007812 1.992188 214.972656 C 1.539062 211.9375 1.164062 208.894531 0.863281 205.839844 C 0.5625 202.785156 0.335938 199.726562 0.1875 196.660156 C 0.0351562 193.597656 -0.0390625 190.53125 -0.0390625 187.460938 C -0.0390625 184.390625 0.0351562 181.324219 0.1875 178.261719 C 0.335938 175.195312 0.5625 172.136719 0.863281 169.082031 C 1.164062 166.027344 1.539062 162.984375 1.992188 159.949219 C 2.441406 156.914062 2.964844 153.890625 3.5625 150.882812 C 4.164062 147.871094 4.835938 144.878906 5.582031 141.902344 C 6.324219 138.925781 7.144531 135.96875 8.035156 133.03125 C 8.925781 130.097656 9.886719 127.183594 10.921875 124.292969 C 11.957031 121.40625 13.058594 118.542969 14.234375 115.707031 C 15.40625 112.871094 16.652344 110.066406 17.964844 107.292969 C 19.273438 104.519531 20.652344 101.78125 22.101562 99.074219 C 23.546875 96.367188 25.058594 93.699219 26.636719 91.066406 C 28.214844 88.433594 29.855469 85.84375 31.558594 83.292969 C 33.265625 80.738281 35.03125 78.230469 36.859375 75.765625 C 38.6875 73.300781 40.574219 70.882812 42.519531 68.511719 C 44.46875 66.140625 46.472656 63.816406 48.53125 61.542969 C 50.59375 59.269531 52.707031 57.046875 54.878906 54.878906 C 57.046875 52.707031 59.269531 50.59375 61.542969 48.53125 C 63.816406 46.472656 66.140625 44.46875 68.511719 42.519531 C 70.882812 40.574219 73.300781 38.6875 75.765625 36.859375 C 78.230469 35.03125 80.738281 33.265625 83.292969 31.558594 C 85.84375 29.855469 88.433594 28.214844 91.066406 26.636719 C 93.699219 25.058594 96.367188 23.546875 99.074219 22.101562 C 101.78125 20.652344 104.519531 19.273438 107.292969 17.964844 C 110.066406 16.652344 112.871094 15.40625 115.707031 14.234375 C 118.542969 13.058594 121.40625 11.957031 124.292969 10.921875 C 127.183594 9.886719 130.097656 8.925781 133.03125 8.035156 C 135.96875 7.144531 138.925781 6.324219 141.902344 5.578125 C 144.878906 4.835938 147.871094 4.164062 150.882812 3.5625 C 153.890625 2.964844 156.914062 2.441406 159.949219 1.992188 C 162.984375 1.539062 166.027344 1.164062 169.082031 0.863281 C 172.136719 0.5625 175.195312 0.335938 178.261719 0.1875 C 181.324219 0.0351562 184.390625 -0.0390625 187.460938 -0.0390625 C 190.53125 -0.0390625 193.597656 0.0351562 196.660156 0.1875 C 199.726562 0.335938 202.785156 0.5625 205.839844 0.863281 C 208.894531 1.164062 211.9375 1.539062 214.972656 1.992188 C 218.007812 2.441406 221.03125 2.964844 224.039062 3.5625 C 227.050781 4.164062 230.042969 4.835938 233.019531 5.578125 C 235.996094 6.324219 238.953125 7.144531 241.890625 8.035156 C 244.824219 8.925781 247.738281 9.886719 250.628906 10.921875 C 253.515625 11.957031 256.378906 13.058594 259.214844 14.234375 C 262.050781 15.40625 264.851562 16.652344 267.628906 17.964844 C 270.402344 19.273438 273.140625 20.652344 275.847656 22.101562 C 278.554688 23.546875 281.222656 25.058594 283.855469 26.636719 C 286.488281 28.214844 289.078125 29.855469 291.628906 31.558594 C 294.183594 33.265625 296.691406 35.03125 299.15625 36.859375 C 301.621094 38.6875 304.039062 40.574219 306.410156 42.519531 C 308.78125 44.46875 311.105469 46.472656 313.378906 48.53125 C 315.652344 50.59375 317.875 52.707031 320.042969 54.878906 C 322.214844 57.046875 324.328125 59.269531 326.390625 61.542969 C 328.449219 63.816406 330.453125 66.140625 332.398438 68.511719 C 334.347656 70.882812 336.234375 73.300781 338.0625 75.765625 C 339.890625 78.230469 341.65625 80.738281 343.363281 83.292969 C 345.066406 85.84375 346.707031 88.433594 348.285156 91.066406 C 349.863281 93.699219 351.375 96.367188 352.820312 99.074219 C 354.269531 101.78125 355.648438 104.519531 356.957031 107.292969 C 358.269531 110.066406 359.515625 112.871094 360.6875 115.707031 C 361.863281 118.542969 362.964844 121.40625 364 124.292969 C 365.035156 127.183594 365.996094 130.097656 366.886719 133.03125 C 367.777344 135.96875 368.597656 138.925781 369.339844 141.902344 C 370.085938 144.878906 370.757812 147.871094 371.359375 150.882812 C 371.957031 153.890625 372.480469 156.914062 372.929688 159.949219 C 373.382812 162.984375 373.757812 166.027344 374.058594 169.082031 C 374.359375 172.136719 374.585938 175.195312 374.734375 178.261719 C 374.886719 181.324219 374.960938 184.390625 374.960938 187.460938 Z M 374.960938 187.460938 " fill-opacity="1" fill-rule="nonzero"/><path fill="#ffffff" d="M 184.335938 275.4375 C 138.285156 273.835938 101.085938 236.636719 99.484375 190.585938 L 81.9375 190.585938 C 83.585938 246.335938 128.636719 291.386719 184.386719 293.035156 L 184.386719 275.4375 Z M 184.335938 275.4375 " fill-opacity="1" fill-rule="nonzero"/><path fill="#ffffff" d="M 190.585938 275.4375 L 190.585938 292.984375 C 246.335938 291.335938 291.386719 246.285156 293.035156 190.535156 L 275.484375 190.535156 C 273.835938 236.636719 236.636719 273.835938 190.585938 275.4375 Z M 190.585938 275.4375 " fill-opacity="1" fill-rule="nonzero"/><path fill="#ffffff" d="M 260.4375 111.1875 L 248.6875 124.234375 C 264.535156 139.585938 274.636719 160.785156 275.4375 184.335938 L 292.984375 184.335938 C 292.1875 155.636719 279.835938 129.785156 260.4375 111.1875 Z M 260.4375 111.1875 " fill-opacity="1" fill-rule="nonzero"/><path fill="#ffffff" d="M 184.335938 99.484375 L 184.335938 81.9375 C 128.585938 83.535156 83.535156 128.585938 81.9375 184.335938 L 99.484375 184.335938 C 101.085938 138.285156 138.285156 101.085938 184.335938 99.484375 Z M 184.335938 99.484375 " fill-opacity="1" fill-rule="nonzero"/><path fill="#ffffff" d="M 190.585938 81.9375 L 190.585938 99.484375 C 210.886719 100.1875 229.484375 107.835938 244.035156 120.085938 L 255.785156 107.035156 C 238.085938 91.984375 215.386719 82.636719 190.585938 81.9375 Z M 190.585938 81.9375 " fill-opacity="1" fill-rule="nonzero"/><path fill="#ffffff" d="M 264.1875 184.335938 L 269.1875 184.335938 C 268.386719 162.636719 259.035156 143.035156 244.484375 128.886719 L 224.984375 150.484375 C 233.6875 159.335938 239.285156 171.1875 240.085938 184.335938 L 244.1875 184.335938 C 245.886719 184.335938 247.285156 185.734375 247.285156 187.4375 C 247.285156 189.136719 245.886719 190.535156 244.1875 190.535156 L 240.085938 190.535156 C 238.535156 217.136719 217.1875 238.484375 190.585938 240.035156 L 190.585938 244.136719 C 190.585938 245.835938 189.1875 247.234375 187.484375 247.234375 C 185.785156 247.234375 184.386719 245.835938 184.386719 244.136719 L 184.386719 240.085938 C 157.785156 238.535156 136.4375 217.1875 134.886719 190.585938 L 130.785156 190.585938 C 129.085938 190.585938 127.6875 189.1875 127.6875 187.484375 C 127.6875 185.785156 129.085938 184.386719 130.785156 184.386719 L 134.886719 184.386719 C 136.4375 157.785156 157.785156 136.4375 184.386719 134.886719 L 184.386719 130.785156 C 184.386719 129.085938 185.785156 127.6875 187.484375 127.6875 C 189.1875 127.6875 190.585938 129.085938 190.585938 130.785156 L 190.585938 134.886719 C 201.835938 135.535156 212.136719 139.734375 220.386719 146.335938 L 239.886719 124.734375 C 226.4375 113.484375 209.335938 106.484375 190.585938 105.734375 L 190.585938 110.734375 C 190.585938 112.4375 189.1875 113.835938 187.484375 113.835938 C 185.785156 113.835938 184.386719 112.4375 184.386719 110.734375 L 184.386719 105.734375 C 141.734375 107.335938 107.386719 141.734375 105.734375 184.386719 L 110.734375 184.386719 C 112.4375 184.386719 113.835938 185.785156 113.835938 187.484375 C 113.835938 189.1875 112.4375 190.585938 110.734375 190.585938 L 105.734375 190.585938 C 107.335938 233.234375 141.734375 267.585938 184.386719 269.234375 L 184.386719 264.234375 C 184.386719 262.535156 185.785156 261.136719 187.484375 261.136719 C 189.1875 261.136719 190.585938 262.535156 190.585938 264.234375 L 190.585938 269.234375 C 233.234375 267.636719 267.585938 233.234375 269.234375 190.585938 L 264.234375 190.585938 C 262.535156 190.585938 261.136719 189.1875 261.136719 187.484375 C 261.136719 185.785156 262.484375 184.335938 264.1875 184.335938 Z M 264.1875 184.335938 " fill-opacity="1" fill-rule="nonzero"/><path fill="#ffffff" d="M 233.835938 190.585938 L 218.285156 190.585938 C 216.835938 205.1875 205.1875 216.785156 190.585938 218.285156 L 190.585938 233.835938 C 213.734375 232.285156 232.285156 213.734375 233.835938 190.585938 Z M 233.835938 190.585938 " fill-opacity="1" fill-rule="nonzero"/><path fill="#ffffff" d="M 220.835938 155.136719 L 210.4375 166.6875 C 214.734375 171.4375 217.636719 177.585938 218.285156 184.335938 L 233.835938 184.335938 C 233.085938 173.035156 228.285156 162.835938 220.835938 155.136719 Z M 220.835938 155.136719 " fill-opacity="1" fill-rule="nonzero"/><path fill="#ffffff" d="M 216.1875 150.9375 C 209.035156 145.285156 200.1875 141.734375 190.585938 141.085938 L 190.585938 156.636719 C 196.234375 157.1875 201.4375 159.285156 205.785156 162.484375 Z M 216.1875 150.9375 " fill-opacity="1" fill-rule="nonzero"/><path fill="#ffffff" d="M 184.335938 156.636719 L 184.335938 141.085938 C 161.1875 142.636719 142.636719 161.1875 141.085938 184.335938 L 156.636719 184.335938 C 158.136719 169.734375 169.734375 158.136719 184.335938 156.636719 Z M 184.335938 156.636719 " fill-opacity="1" fill-rule="nonzero"/><path fill="#ffffff" d="M 184.335938 233.835938 L 184.335938 218.285156 C 169.734375 216.835938 158.136719 205.1875 156.636719 190.585938 L 141.085938 190.585938 C 142.636719 213.734375 161.1875 232.285156 184.335938 233.835938 Z M 184.335938 233.835938 " fill-opacity="1" fill-rule="nonzero"/><path fill="#ffffff" d="M 184.335938 208.136719 C 184.335938 206.4375 185.734375 205.035156 187.4375 205.035156 C 189.136719 205.035156 190.535156 206.4375 190.535156 208.136719 L 190.535156 211.984375 C 201.6875 210.585938 210.535156 201.734375 211.9375 190.585938 L 208.085938 190.585938 C 206.386719 190.585938 204.984375 189.1875 204.984375 187.484375 C 204.984375 185.785156 206.386719 184.386719 208.085938 184.386719 L 211.9375 184.386719 C 211.335938 179.4375 209.234375 174.984375 206.136719 171.386719 L 189.734375 189.585938 C 189.136719 190.285156 188.285156 190.636719 187.4375 190.636719 C 186.6875 190.636719 185.9375 190.386719 185.335938 189.835938 C 184.035156 188.6875 183.9375 186.6875 185.085938 185.4375 L 201.484375 167.234375 C 198.285156 164.984375 194.535156 163.535156 190.484375 162.984375 L 190.484375 166.835938 C 190.484375 168.535156 189.085938 169.9375 187.386719 169.9375 C 185.6875 169.9375 184.285156 168.535156 184.285156 166.835938 L 184.285156 162.984375 C 173.136719 164.386719 164.285156 173.234375 162.886719 184.386719 L 166.734375 184.386719 C 168.4375 184.386719 169.835938 185.785156 169.835938 187.484375 C 169.835938 189.1875 168.4375 190.585938 166.734375 190.585938 L 162.886719 190.585938 C 164.285156 201.734375 173.136719 210.585938 184.285156 211.984375 L 184.285156 208.136719 Z M 184.335938 208.136719 " fill-opacity="1" fill-rule="nonzero"/><path fill="#ffffff" d="M 190.585938 75.6875 L 190.585938 70.585938 C 190.585938 68.886719 189.1875 67.484375 187.484375 67.484375 C 185.785156 67.484375 184.386719 68.886719 184.386719 70.585938 L 184.386719 75.6875 C 185.4375 75.636719 186.4375 75.636719 187.484375 75.636719 C 188.535156 75.636719 189.535156 75.636719 190.585938 75.6875 Z M 190.585938 75.6875 " fill-opacity="1" fill-rule="nonzero"/><path fill="#ffffff" d="M 290.484375 90.484375 L 276.886719 92.984375 L 279.984375 89.535156 C 281.136719 88.234375 281.035156 86.285156 279.734375 85.136719 C 278.4375 83.984375 276.484375 84.085938 275.335938 85.386719 L 273.4375 87.484375 L 275.636719 75.6875 C 275.9375 73.984375 274.835938 72.386719 273.136719 72.035156 C 271.4375 71.734375 269.835938 72.835938 269.484375 74.535156 L 265.4375 96.285156 L 259.9375 102.386719 C 261.535156 103.734375 263.035156 105.136719 264.585938 106.585938 L 269.984375 100.585938 L 291.585938 96.585938 C 293.285156 96.285156 294.386719 94.636719 294.085938 92.9375 C 293.785156 91.285156 292.136719 90.136719 290.484375 90.484375 Z M 290.484375 90.484375 " fill-opacity="1" fill-rule="nonzero"/><path fill="#ffffff" d="M 304.335938 184.335938 L 299.234375 184.335938 C 299.285156 185.386719 299.285156 186.386719 299.285156 187.4375 C 299.285156 188.484375 299.285156 189.535156 299.234375 190.535156 L 304.335938 190.535156 C 306.035156 190.535156 307.4375 189.136719 307.4375 187.4375 C 307.4375 185.734375 306.085938 184.335938 304.335938 184.335938 Z M 304.335938 184.335938 " fill-opacity="1" fill-rule="nonzero"/><path fill="#ffffff" d="M 184.335938 299.234375 L 184.335938 304.335938 C 184.335938 306.035156 185.734375 307.4375 187.4375 307.4375 C 189.136719 307.4375 190.535156 306.035156 190.535156 304.335938 L 190.535156 299.234375 C 189.484375 299.285156 188.484375 299.285156 187.4375 299.285156 C 186.386719 299.285156 185.386719 299.285156 184.335938 299.234375 Z M 184.335938 299.234375 " fill-opacity="1" fill-rule="nonzero"/><path fill="#ffffff" d="M 70.585938 184.335938 C 68.886719 184.335938 67.484375 185.734375 67.484375 187.4375 C 67.484375 189.136719 68.886719 190.585938 70.585938 190.585938 L 75.6875 190.585938 C 75.636719 189.535156 75.636719 188.535156 75.636719 187.484375 C 75.636719 186.4375 75.636719 185.386719 75.6875 184.386719 L 70.585938 184.386719 Z M 70.585938 184.335938 " fill-opacity="1" fill-rule="nonzero"/></svg>