<svg xmlns="http://www.w3.org/2000/svg" xmlns:xlink="http://www.w3.org/1999/xlink" width="500" zoomAndPan="magnify" viewBox="0 0 375 374.999991" height="500" preserveAspectRatio="xMidYMid meet" version="1.0"><defs><clipPath id="f30478ee3f"><path d="M 112.5 112.5 L 262.5 112.5 L 262.5 262.5 L 112.5 262.5 Z M 112.5 112.5 " clip-rule="nonzero"/></clipPath></defs><g clip-path="url(#f30478ee3f)"><path fill="#ffa726" d="M 262.484375 187.484375 C 262.484375 188.710938 262.453125 189.9375 262.394531 191.164062 C 262.332031 192.390625 262.242188 193.613281 262.125 194.835938 C 262.003906 196.058594 261.851562 197.273438 261.671875 198.488281 C 261.492188 199.703125 261.28125 200.914062 261.042969 202.117188 C 260.804688 203.320312 260.535156 204.515625 260.238281 205.707031 C 259.9375 206.898438 259.609375 208.082031 259.253906 209.253906 C 258.898438 210.429688 258.511719 211.59375 258.101562 212.75 C 257.6875 213.90625 257.246094 215.050781 256.773438 216.1875 C 256.304688 217.320312 255.808594 218.441406 255.285156 219.550781 C 254.757812 220.660156 254.207031 221.757812 253.628906 222.839844 C 253.050781 223.921875 252.445312 224.988281 251.8125 226.042969 C 251.183594 227.09375 250.527344 228.132812 249.84375 229.152344 C 249.164062 230.171875 248.457031 231.175781 247.726562 232.160156 C 246.992188 233.148438 246.238281 234.113281 245.460938 235.0625 C 244.679688 236.011719 243.878906 236.941406 243.054688 237.851562 C 242.230469 238.761719 241.386719 239.648438 240.515625 240.515625 C 239.648438 241.386719 238.761719 242.230469 237.851562 243.054688 C 236.941406 243.878906 236.011719 244.679688 235.0625 245.460938 C 234.113281 246.238281 233.148438 246.992188 232.160156 247.726562 C 231.175781 248.457031 230.171875 249.164062 229.152344 249.84375 C 228.132812 250.527344 227.09375 251.183594 226.042969 251.8125 C 224.988281 252.445312 223.921875 253.050781 222.839844 253.628906 C 221.757812 254.207031 220.660156 254.757812 219.550781 255.285156 C 218.441406 255.808594 217.320312 256.304688 216.1875 256.773438 C 215.050781 257.246094 213.90625 257.6875 212.75 258.101562 C 211.59375 258.511719 210.429688 258.898438 209.253906 259.253906 C 208.082031 259.609375 206.898438 259.9375 205.707031 260.238281 C 204.515625 260.535156 203.320312 260.804688 202.117188 261.042969 C 200.914062 261.28125 199.703125 261.492188 198.488281 261.671875 C 197.273438 261.851562 196.058594 262.003906 194.835938 262.125 C 193.613281 262.242188 192.390625 262.332031 191.164062 262.394531 C 189.9375 262.453125 188.710938 262.484375 187.484375 262.484375 C 186.257812 262.484375 185.03125 262.453125 183.804688 262.394531 C 182.578125 262.332031 181.355469 262.242188 180.132812 262.125 C 178.910156 262.003906 177.695312 261.851562 176.480469 261.671875 C 175.265625 261.492188 174.054688 261.28125 172.851562 261.042969 C 171.648438 260.804688 170.453125 260.535156 169.261719 260.238281 C 168.070312 259.9375 166.886719 259.609375 165.714844 259.253906 C 164.539062 258.898438 163.375 258.511719 162.21875 258.101562 C 161.0625 257.6875 159.917969 257.246094 158.78125 256.773438 C 157.648438 256.304688 156.527344 255.808594 155.417969 255.285156 C 154.308594 254.757812 153.210938 254.207031 152.128906 253.628906 C 151.046875 253.050781 149.980469 252.445312 148.925781 251.8125 C 147.875 251.183594 146.835938 250.527344 145.816406 249.84375 C 144.796875 249.164062 143.792969 248.457031 142.808594 247.726562 C 141.820312 246.992188 140.855469 246.238281 139.90625 245.460938 C 138.957031 244.679688 138.027344 243.878906 137.117188 243.054688 C 136.207031 242.230469 135.320312 241.386719 134.453125 240.515625 C 133.582031 239.648438 132.738281 238.761719 131.914062 237.851562 C 131.089844 236.941406 130.289062 236.011719 129.507812 235.0625 C 128.730469 234.113281 127.976562 233.148438 127.242188 232.160156 C 126.511719 231.175781 125.804688 230.171875 125.125 229.152344 C 124.441406 228.132812 123.785156 227.09375 123.15625 226.042969 C 122.523438 224.988281 121.917969 223.921875 121.339844 222.839844 C 120.761719 221.757812 120.210938 220.660156 119.683594 219.550781 C 119.160156 218.441406 118.664062 217.320312 118.195312 216.1875 C 117.722656 215.050781 117.28125 213.90625 116.867188 212.75 C 116.453125 211.59375 116.070312 210.429688 115.714844 209.253906 C 115.359375 208.082031 115.03125 206.898438 114.730469 205.707031 C 114.433594 204.515625 114.164062 203.320312 113.925781 202.117188 C 113.6875 200.914062 113.476562 199.703125 113.296875 198.488281 C 113.117188 197.273438 112.964844 196.058594 112.84375 194.835938 C 112.726562 193.613281 112.636719 192.390625 112.574219 191.164062 C 112.515625 189.9375 112.484375 188.710938 112.484375 187.484375 C 112.484375 186.257812 112.515625 185.03125 112.574219 183.804688 C 112.636719 182.578125 112.726562 181.355469 112.84375 180.132812 C 112.964844 178.910156 113.117188 177.695312 113.296875 176.480469 C 113.476562 175.265625 113.6875 174.054688 113.925781 172.851562 C 114.164062 171.648438 114.433594 170.453125 114.730469 169.261719 C 115.03125 168.070312 115.359375 166.886719 115.714844 165.714844 C 116.070312 164.539062 116.453125 163.375 116.867188 162.21875 C 117.28125 161.0625 117.722656 159.917969 118.195312 158.78125 C 118.664062 157.648438 119.160156 156.527344 119.683594 155.417969 C 120.210938 154.308594 120.761719 153.210938 121.339844 152.128906 C 121.917969 151.046875 122.523438 149.980469 123.15625 148.925781 C 123.785156 147.875 124.441406 146.835938 125.125 145.816406 C 125.804688 144.796875 126.511719 143.792969 127.242188 142.808594 C 127.976562 141.820312 128.730469 140.855469 129.507812 139.90625 C 130.289062 138.957031 131.089844 138.027344 131.914062 137.117188 C 132.738281 136.207031 133.582031 135.320312 134.453125 134.453125 C 135.320312 133.582031 136.207031 132.738281 137.117188 131.914062 C 138.027344 131.089844 138.957031 130.289062 139.90625 129.507812 C 140.855469 128.730469 141.820312 127.976562 142.808594 127.242188 C 143.792969 126.511719 144.796875 125.804688 145.816406 125.125 C 146.835938 124.441406 147.875 123.785156 148.925781 123.15625 C 149.980469 122.523438 151.046875 121.917969 152.128906 121.339844 C 153.210938 120.761719 154.308594 120.210938 155.417969 119.683594 C 156.527344 119.160156 157.648438 118.664062 158.78125 118.195312 C 159.917969 117.722656 161.0625 117.28125 162.21875 116.867188 C 163.375 116.453125 164.539062 116.070312 165.714844 115.714844 C 166.886719 115.359375 168.070312 115.03125 169.261719 114.730469 C 170.453125 114.433594 171.648438 114.164062 172.851562 113.925781 C 174.054688 113.6875 175.265625 113.476562 176.480469 113.296875 C 177.695312 113.117188 178.910156 112.964844 180.132812 112.84375 C 181.355469 112.726562 182.578125 112.636719 183.804688 112.574219 C 185.03125 112.515625 186.257812 112.484375 187.484375 112.484375 C 188.710938 112.484375 189.9375 112.515625 191.164062 112.574219 C 192.390625 112.636719 193.613281 112.726562 194.835938 112.84375 C 196.058594 112.964844 197.273438 113.117188 198.488281 113.296875 C 199.703125 113.476562 200.914062 113.6875 202.117188 113.925781 C 203.320312 114.164062 204.515625 114.433594 205.707031 114.730469 C 206.898438 115.03125 208.082031 115.359375 209.253906 115.714844 C 210.429688 116.070312 211.59375 116.453125 212.75 116.867188 C 213.90625 117.28125 215.050781 117.722656 216.1875 118.195312 C 217.320312 118.664062 218.441406 119.160156 219.550781 119.683594 C 220.660156 120.210938 221.757812 120.761719 222.839844 121.339844 C 223.921875 121.917969 224.988281 122.523438 226.042969 123.15625 C 227.09375 123.785156 228.132812 124.441406 229.152344 125.125 C 230.171875 125.804688 231.175781 126.511719 232.160156 127.242188 C 233.148438 127.976562 234.113281 128.730469 235.0625 129.507812 C 236.011719 130.289062 236.941406 131.089844 237.851562 131.914062 C 238.761719 132.738281 239.648438 133.582031 240.515625 134.453125 C 241.386719 135.320312 242.230469 136.207031 243.054688 137.117188 C 243.878906 138.027344 244.679688 138.957031 245.460938 139.90625 C 246.238281 140.855469 246.992188 141.820312 247.726562 142.808594 C 248.457031 143.792969 249.164062 144.796875 249.84375 145.816406 C 250.527344 146.835938 251.183594 147.875 251.8125 148.925781 C 252.445312 149.980469 253.050781 151.046875 253.628906 152.128906 C 254.207031 153.210938 254.757812 154.308594 255.285156 155.417969 C 255.808594 156.527344 256.304688 157.648438 256.773438 158.78125 C 257.246094 159.917969 257.6875 161.0625 258.101562 162.21875 C 258.511719 163.375 258.898438 164.539062 259.253906 165.714844 C 259.609375 166.886719 259.9375 168.070312 260.238281 169.261719 C 260.535156 170.453125 260.804688 171.648438 261.042969 172.851562 C 261.28125 174.054688 261.492188 175.265625 261.671875 176.480469 C 261.851562 177.695312 262.003906 178.910156 262.125 180.132812 C 262.242188 181.355469 262.332031 182.578125 262.394531 183.804688 C 262.453125 185.03125 262.484375 186.257812 262.484375 187.484375 Z M 262.484375 187.484375 " fill-opacity="1" fill-rule="nonzero"/></g><path fill="#ffffff" d="M 186.234375 222.675781 C 167.8125 222.035156 152.933594 207.15625 152.292969 188.734375 L 145.273438 188.734375 C 145.933594 211.035156 163.953125 229.054688 186.253906 229.714844 L 186.253906 222.675781 Z M 186.234375 222.675781 " fill-opacity="1" fill-rule="nonzero"/><path fill="#ffffff" d="M 188.734375 222.675781 L 188.734375 229.695312 C 211.035156 229.035156 229.054688 211.015625 229.714844 188.714844 L 222.695312 188.714844 C 222.035156 207.15625 207.15625 222.035156 188.734375 222.675781 Z M 188.734375 222.675781 " fill-opacity="1" fill-rule="nonzero"/><path fill="#ffffff" d="M 216.675781 156.972656 L 211.972656 162.195312 C 218.3125 168.335938 222.355469 176.8125 222.675781 186.234375 L 229.695312 186.234375 C 229.375 174.753906 224.433594 164.414062 216.675781 156.972656 Z M 216.675781 156.972656 " fill-opacity="1" fill-rule="nonzero"/><path fill="#ffffff" d="M 186.234375 152.292969 L 186.234375 145.273438 C 163.933594 145.914062 145.914062 163.933594 145.273438 186.234375 L 152.292969 186.234375 C 152.933594 167.8125 167.8125 152.933594 186.234375 152.292969 Z M 186.234375 152.292969 " fill-opacity="1" fill-rule="nonzero"/><path fill="#ffffff" d="M 188.734375 145.273438 L 188.734375 152.292969 C 196.855469 152.574219 204.292969 155.632812 210.113281 160.535156 L 214.8125 155.3125 C 207.734375 149.292969 198.65625 145.554688 188.734375 145.273438 Z M 188.734375 145.273438 " fill-opacity="1" fill-rule="nonzero"/><path fill="#ffffff" d="M 218.175781 186.234375 L 220.175781 186.234375 C 219.855469 177.554688 216.113281 169.714844 210.292969 164.054688 L 202.496094 172.695312 C 205.972656 176.234375 208.214844 180.972656 208.535156 186.234375 L 210.175781 186.234375 C 210.855469 186.234375 211.414062 186.792969 211.414062 187.472656 C 211.414062 188.15625 210.855469 188.714844 210.175781 188.714844 L 208.535156 188.714844 C 207.914062 199.355469 199.375 207.894531 188.734375 208.515625 L 188.734375 210.15625 C 188.734375 210.835938 188.175781 211.394531 187.496094 211.394531 C 186.8125 211.394531 186.253906 210.835938 186.253906 210.15625 L 186.253906 208.535156 C 175.613281 207.914062 167.074219 199.375 166.453125 188.734375 L 164.8125 188.734375 C 164.132812 188.734375 163.574219 188.175781 163.574219 187.496094 C 163.574219 186.8125 164.132812 186.253906 164.8125 186.253906 L 166.453125 186.253906 C 167.074219 175.613281 175.613281 167.074219 186.253906 166.453125 L 186.253906 164.8125 C 186.253906 164.132812 186.8125 163.574219 187.496094 163.574219 C 188.175781 163.574219 188.734375 164.132812 188.734375 164.8125 L 188.734375 166.453125 C 193.234375 166.714844 197.355469 168.394531 200.65625 171.035156 L 208.453125 162.394531 C 203.074219 157.894531 196.234375 155.09375 188.734375 154.792969 L 188.734375 156.792969 C 188.734375 157.472656 188.175781 158.035156 187.496094 158.035156 C 186.8125 158.035156 186.253906 157.472656 186.253906 156.792969 L 186.253906 154.792969 C 169.195312 155.433594 155.453125 169.195312 154.792969 186.253906 L 156.792969 186.253906 C 157.472656 186.253906 158.035156 186.8125 158.035156 187.496094 C 158.035156 188.175781 157.472656 188.734375 156.792969 188.734375 L 154.792969 188.734375 C 155.433594 205.792969 169.195312 219.535156 186.253906 220.195312 L 186.253906 218.195312 C 186.253906 217.515625 186.8125 216.953125 187.496094 216.953125 C 188.175781 216.953125 188.734375 217.515625 188.734375 218.195312 L 188.734375 220.195312 C 205.792969 219.554688 219.535156 205.792969 220.195312 188.734375 L 218.195312 188.734375 C 217.515625 188.734375 216.953125 188.175781 216.953125 187.496094 C 216.953125 186.8125 217.496094 186.234375 218.175781 186.234375 Z M 218.175781 186.234375 " fill-opacity="1" fill-rule="nonzero"/><path fill="#ffffff" d="M 206.035156 188.734375 L 199.8125 188.734375 C 199.234375 194.574219 194.574219 199.214844 188.734375 199.8125 L 188.734375 206.035156 C 197.996094 205.414062 205.414062 197.996094 206.035156 188.734375 Z M 206.035156 188.734375 " fill-opacity="1" fill-rule="nonzero"/><path fill="#ffffff" d="M 200.835938 174.554688 L 196.675781 179.175781 C 198.394531 181.074219 199.554688 183.535156 199.8125 186.234375 L 206.035156 186.234375 C 205.734375 181.714844 203.8125 177.632812 200.835938 174.554688 Z M 200.835938 174.554688 " fill-opacity="1" fill-rule="nonzero"/><path fill="#ffffff" d="M 198.972656 172.875 C 196.113281 170.613281 192.574219 169.195312 188.734375 168.933594 L 188.734375 175.15625 C 190.996094 175.375 193.074219 176.214844 194.8125 177.496094 Z M 198.972656 172.875 " fill-opacity="1" fill-rule="nonzero"/><path fill="#ffffff" d="M 186.234375 175.15625 L 186.234375 168.933594 C 176.972656 169.554688 169.554688 176.972656 168.933594 186.234375 L 175.15625 186.234375 C 175.753906 180.394531 180.394531 175.753906 186.234375 175.15625 Z M 186.234375 175.15625 " fill-opacity="1" fill-rule="nonzero"/><path fill="#ffffff" d="M 186.234375 206.035156 L 186.234375 199.8125 C 180.394531 199.234375 175.753906 194.574219 175.15625 188.734375 L 168.933594 188.734375 C 169.554688 197.996094 176.972656 205.414062 186.234375 206.035156 Z M 186.234375 206.035156 " fill-opacity="1" fill-rule="nonzero"/><path fill="#ffffff" d="M 186.234375 195.753906 C 186.234375 195.074219 186.792969 194.515625 187.472656 194.515625 C 188.15625 194.515625 188.714844 195.074219 188.714844 195.753906 L 188.714844 197.292969 C 193.175781 196.734375 196.714844 193.195312 197.273438 188.734375 L 195.734375 188.734375 C 195.054688 188.734375 194.496094 188.175781 194.496094 187.496094 C 194.496094 186.8125 195.054688 186.253906 195.734375 186.253906 L 197.273438 186.253906 C 197.035156 184.273438 196.195312 182.496094 194.953125 181.054688 L 188.394531 188.335938 C 188.15625 188.613281 187.8125 188.753906 187.472656 188.753906 C 187.175781 188.753906 186.875 188.65625 186.632812 188.433594 C 186.113281 187.972656 186.074219 187.175781 186.535156 186.675781 L 193.09375 179.394531 C 191.8125 178.496094 190.3125 177.914062 188.695312 177.695312 L 188.695312 179.234375 C 188.695312 179.914062 188.132812 180.472656 187.453125 180.472656 C 186.773438 180.472656 186.214844 179.914062 186.214844 179.234375 L 186.214844 177.695312 C 181.753906 178.253906 178.214844 181.792969 177.65625 186.253906 L 179.195312 186.253906 C 179.875 186.253906 180.433594 186.8125 180.433594 187.496094 C 180.433594 188.175781 179.875 188.734375 179.195312 188.734375 L 177.65625 188.734375 C 178.214844 193.195312 181.753906 196.734375 186.214844 197.292969 L 186.214844 195.753906 Z M 186.234375 195.753906 " fill-opacity="1" fill-rule="nonzero"/><path fill="#ffffff" d="M 188.734375 142.773438 L 188.734375 140.734375 C 188.734375 140.054688 188.175781 139.496094 187.496094 139.496094 C 186.8125 139.496094 186.253906 140.054688 186.253906 140.734375 L 186.253906 142.773438 C 186.675781 142.753906 187.074219 142.753906 187.496094 142.753906 C 187.914062 142.753906 188.3125 142.753906 188.734375 142.773438 Z M 188.734375 142.773438 " fill-opacity="1" fill-rule="nonzero"/><path fill="#ffffff" d="M 228.695312 148.695312 L 223.253906 149.695312 L 224.496094 148.3125 C 224.953125 147.792969 224.914062 147.015625 224.394531 146.554688 C 223.875 146.09375 223.09375 146.132812 222.632812 146.65625 L 221.875 147.496094 L 222.753906 142.773438 C 222.875 142.09375 222.433594 141.453125 221.753906 141.3125 C 221.074219 141.195312 220.433594 141.632812 220.292969 142.3125 L 218.675781 151.015625 L 216.472656 153.453125 C 217.113281 153.996094 217.714844 154.554688 218.335938 155.132812 L 220.496094 152.734375 L 229.132812 151.132812 C 229.8125 151.015625 230.253906 150.355469 230.132812 149.675781 C 230.015625 149.015625 229.355469 148.554688 228.695312 148.695312 Z M 228.695312 148.695312 " fill-opacity="1" fill-rule="nonzero"/><path fill="#ffffff" d="M 234.234375 186.234375 L 232.195312 186.234375 C 232.214844 186.65625 232.214844 187.054688 232.214844 187.472656 C 232.214844 187.894531 232.214844 188.3125 232.195312 188.714844 L 234.234375 188.714844 C 234.914062 188.714844 235.472656 188.15625 235.472656 187.472656 C 235.472656 186.792969 234.933594 186.234375 234.234375 186.234375 Z M 234.234375 186.234375 " fill-opacity="1" fill-rule="nonzero"/><path fill="#ffffff" d="M 186.234375 232.195312 L 186.234375 234.234375 C 186.234375 234.914062 186.792969 235.472656 187.472656 235.472656 C 188.15625 235.472656 188.714844 234.914062 188.714844 234.234375 L 188.714844 232.195312 C 188.292969 232.214844 187.894531 232.214844 187.472656 232.214844 C 187.054688 232.214844 186.65625 232.214844 186.234375 232.195312 Z M 186.234375 232.195312 " fill-opacity="1" fill-rule="nonzero"/><path fill="#ffffff" d="M 140.734375 186.234375 C 140.054688 186.234375 139.496094 186.792969 139.496094 187.472656 C 139.496094 188.15625 140.054688 188.734375 140.734375 188.734375 L 142.773438 188.734375 C 142.753906 188.3125 142.753906 187.914062 142.753906 187.496094 C 142.753906 187.074219 142.753906 186.65625 142.773438 186.253906 L 140.734375 186.253906 Z M 140.734375 186.234375 " fill-opacity="1" fill-rule="nonzero"/></svg>