<svg xmlns="http://www.w3.org/2000/svg" xmlns:xlink="http://www.w3.org/1999/xlink" width="500" zoomAndPan="magnify" viewBox="0 0 375 374.999991" height="500" preserveAspectRatio="xMidYMid meet" version="1.0"><defs><clipPath id="b787d9e290"><path d="M 112.5 112.5 L 262.5 112.5 L 262.5 262.5 L 112.5 262.5 Z M 112.5 112.5 " clip-rule="nonzero"/></clipPath></defs><g clip-path="url(#b787d9e290)"><path fill="#ffa726" d="M 262.5 187.5 C 262.5 188.726562 262.46875 189.953125 262.410156 191.179688 C 262.347656 192.40625 262.257812 193.628906 262.140625 194.851562 C 262.019531 196.074219 261.867188 197.289062 261.6875 198.503906 C 261.507812 199.71875 261.296875 200.929688 261.058594 202.132812 C 260.820312 203.335938 260.550781 204.53125 260.253906 205.722656 C 259.953125 206.914062 259.625 208.097656 259.269531 209.269531 C 258.914062 210.445312 258.527344 211.609375 258.117188 212.765625 C 257.703125 213.921875 257.261719 215.066406 256.789062 216.203125 C 256.320312 217.335938 255.824219 218.457031 255.300781 219.566406 C 254.773438 220.675781 254.222656 221.773438 253.644531 222.855469 C 253.066406 223.9375 252.460938 225.003906 251.828125 226.058594 C 251.199219 227.109375 250.542969 228.148438 249.859375 229.167969 C 249.179688 230.1875 248.472656 231.191406 247.742188 232.175781 C 247.007812 233.164062 246.253906 234.128906 245.476562 235.078125 C 244.695312 236.027344 243.894531 236.957031 243.070312 237.867188 C 242.246094 238.777344 241.402344 239.664062 240.53125 240.53125 C 239.664062 241.402344 238.777344 242.246094 237.867188 243.070312 C 236.957031 243.894531 236.027344 244.695312 235.078125 245.476562 C 234.128906 246.253906 233.164062 247.007812 232.175781 247.742188 C 231.191406 248.472656 230.1875 249.179688 229.167969 249.859375 C 228.148438 250.542969 227.109375 251.199219 226.058594 251.828125 C 225.003906 252.460938 223.9375 253.066406 222.855469 253.644531 C 221.773438 254.222656 220.675781 254.773438 219.566406 255.300781 C 218.457031 255.824219 217.335938 256.320312 216.203125 256.789062 C 215.066406 257.261719 213.921875 257.703125 212.765625 258.117188 C 211.609375 258.527344 210.445312 258.914062 209.269531 259.269531 C 208.097656 259.625 206.914062 259.953125 205.722656 260.253906 C 204.53125 260.550781 203.335938 260.820312 202.132812 261.058594 C 200.929688 261.296875 199.71875 261.507812 198.503906 261.6875 C 197.289062 261.867188 196.074219 262.019531 194.851562 262.140625 C 193.628906 262.257812 192.40625 262.347656 191.179688 262.410156 C 189.953125 262.46875 188.726562 262.5 187.5 262.5 C 186.273438 262.5 185.046875 262.46875 183.820312 262.410156 C 182.59375 262.347656 181.371094 262.257812 180.148438 262.140625 C 178.925781 262.019531 177.710938 261.867188 176.496094 261.6875 C 175.28125 261.507812 174.070312 261.296875 172.867188 261.058594 C 171.664062 260.820312 170.46875 260.550781 169.277344 260.253906 C 168.085938 259.953125 166.902344 259.625 165.730469 259.269531 C 164.554688 258.914062 163.390625 258.527344 162.234375 258.117188 C 161.078125 257.703125 159.933594 257.261719 158.796875 256.789062 C 157.664062 256.320312 156.542969 255.824219 155.433594 255.300781 C 154.324219 254.773438 153.226562 254.222656 152.144531 253.644531 C 151.0625 253.066406 149.996094 252.460938 148.941406 251.828125 C 147.890625 251.199219 146.851562 250.542969 145.832031 249.859375 C 144.8125 249.179688 143.808594 248.472656 142.824219 247.742188 C 141.835938 247.007812 140.871094 246.253906 139.921875 245.476562 C 138.972656 244.695312 138.042969 243.894531 137.132812 243.070312 C 136.222656 242.246094 135.335938 241.402344 134.46875 240.53125 C 133.597656 239.664062 132.753906 238.777344 131.929688 237.867188 C 131.105469 236.957031 130.304688 236.027344 129.523438 235.078125 C 128.746094 234.128906 127.992188 233.164062 127.257812 232.175781 C 126.527344 231.191406 125.820312 230.1875 125.140625 229.167969 C 124.457031 228.148438 123.800781 227.109375 123.171875 226.058594 C 122.539062 225.003906 121.933594 223.9375 121.355469 222.855469 C 120.777344 221.773438 120.226562 220.675781 119.699219 219.566406 C 119.175781 218.457031 118.679688 217.335938 118.210938 216.203125 C 117.738281 215.066406 117.296875 213.921875 116.882812 212.765625 C 116.46875 211.609375 116.085938 210.445312 115.730469 209.269531 C 115.375 208.097656 115.046875 206.914062 114.746094 205.722656 C 114.449219 204.53125 114.179688 203.335938 113.941406 202.132812 C 113.703125 200.929688 113.492188 199.71875 113.3125 198.503906 C 113.132812 197.289062 112.980469 196.074219 112.859375 194.851562 C 112.742188 193.628906 112.652344 192.40625 112.589844 191.179688 C 112.53125 189.953125 112.5 188.726562 112.5 187.5 C 112.5 186.273438 112.53125 185.046875 112.589844 183.820312 C 112.652344 182.59375 112.742188 181.371094 112.859375 180.148438 C 112.980469 178.925781 113.132812 177.710938 113.3125 176.496094 C 113.492188 175.28125 113.703125 174.070312 113.941406 172.867188 C 114.179688 171.664062 114.449219 170.46875 114.746094 169.277344 C 115.046875 168.085938 115.375 166.902344 115.730469 165.730469 C 116.085938 164.554688 116.46875 163.390625 116.882812 162.234375 C 117.296875 161.078125 117.738281 159.933594 118.210938 158.796875 C 118.679688 157.664062 119.175781 156.542969 119.699219 155.433594 C 120.226562 154.324219 120.777344 153.226562 121.355469 152.144531 C 121.933594 151.0625 122.539062 149.996094 123.171875 148.941406 C 123.800781 147.890625 124.457031 146.851562 125.140625 145.832031 C 125.820312 144.8125 126.527344 143.808594 127.257812 142.824219 C 127.992188 141.835938 128.746094 140.871094 129.523438 139.921875 C 130.304688 138.972656 131.105469 138.042969 131.929688 137.132812 C 132.753906 136.222656 133.597656 135.335938 134.46875 134.46875 C 135.335938 133.597656 136.222656 132.753906 137.132812 131.929688 C 138.042969 131.105469 138.972656 130.304688 139.921875 129.523438 C 140.871094 128.746094 141.835938 127.992188 142.824219 127.257812 C 143.808594 126.527344 144.8125 125.820312 145.832031 125.140625 C 146.851562 124.457031 147.890625 123.800781 148.941406 123.171875 C 149.996094 122.539062 151.0625 121.933594 152.144531 121.355469 C 153.226562 120.777344 154.324219 120.226562 155.433594 119.699219 C 156.542969 119.175781 157.664062 118.679688 158.796875 118.210938 C 159.933594 117.738281 161.078125 117.296875 162.234375 116.882812 C 163.390625 116.46875 164.554688 116.085938 165.730469 115.730469 C 166.902344 115.375 168.085938 115.046875 169.277344 114.746094 C 170.46875 114.449219 171.664062 114.179688 172.867188 113.941406 C 174.070312 113.703125 175.28125 113.492188 176.496094 113.3125 C 177.710938 113.132812 178.925781 112.980469 180.148438 112.859375 C 181.371094 112.742188 182.59375 112.652344 183.820312 112.589844 C 185.046875 112.53125 186.273438 112.5 187.5 112.5 C 188.726562 112.5 189.953125 112.53125 191.179688 112.589844 C 192.40625 112.652344 193.628906 112.742188 194.851562 112.859375 C 196.074219 112.980469 197.289062 113.132812 198.503906 113.3125 C 199.71875 113.492188 200.929688 113.703125 202.132812 113.941406 C 203.335938 114.179688 204.53125 114.449219 205.722656 114.746094 C 206.914062 115.046875 208.097656 115.375 209.269531 115.730469 C 210.445312 116.085938 211.609375 116.46875 212.765625 116.882812 C 213.921875 117.296875 215.066406 117.738281 216.203125 118.210938 C 217.335938 118.679688 218.457031 119.175781 219.566406 119.699219 C 220.675781 120.226562 221.773438 120.777344 222.855469 121.355469 C 223.9375 121.933594 225.003906 122.539062 226.058594 123.171875 C 227.109375 123.800781 228.148438 124.457031 229.167969 125.140625 C 230.1875 125.820312 231.191406 126.527344 232.175781 127.257812 C 233.164062 127.992188 234.128906 128.746094 235.078125 129.523438 C 236.027344 130.304688 236.957031 131.105469 237.867188 131.929688 C 238.777344 132.753906 239.664062 133.597656 240.53125 134.46875 C 241.402344 135.335938 242.246094 136.222656 243.070312 137.132812 C 243.894531 138.042969 244.695312 138.972656 245.476562 139.921875 C 246.253906 140.871094 247.007812 141.835938 247.742188 142.824219 C 248.472656 143.808594 249.179688 144.8125 249.859375 145.832031 C 250.542969 146.851562 251.199219 147.890625 251.828125 148.941406 C 252.460938 149.996094 253.066406 151.0625 253.644531 152.144531 C 254.222656 153.226562 254.773438 154.324219 255.300781 155.433594 C 255.824219 156.542969 256.320312 157.664062 256.789062 158.796875 C 257.261719 159.933594 257.703125 161.078125 258.117188 162.234375 C 258.527344 163.390625 258.914062 164.554688 259.269531 165.730469 C 259.625 166.902344 259.953125 168.085938 260.253906 169.277344 C 260.550781 170.46875 260.820312 171.664062 261.058594 172.867188 C 261.296875 174.070312 261.507812 175.28125 261.6875 176.496094 C 261.867188 177.710938 262.019531 178.925781 262.140625 180.148438 C 262.257812 181.371094 262.347656 182.59375 262.410156 183.820312 C 262.46875 185.046875 262.5 186.273438 262.5 187.5 Z M 262.5 187.5 " fill-opacity="1" fill-rule="nonzero"/></g><path fill="#ffffff" d="M 212.179688 234.546875 L 162.820312 234.546875 C 157.878906 234.546875 153.859375 230.527344 153.859375 225.585938 L 153.859375 159.566406 C 153.859375 154.625 157.878906 150.605469 162.820312 150.605469 L 172.460938 150.605469 C 172.878906 150.605469 173.28125 150.824219 173.5 151.1875 C 173.71875 151.546875 173.71875 152.003906 173.519531 152.367188 C 173.160156 153.003906 172.980469 153.746094 172.980469 154.484375 C 172.980469 156.945312 174.980469 158.945312 177.441406 158.945312 L 197.5 158.945312 C 198.699219 158.945312 199.820312 158.484375 200.660156 157.644531 C 201.5 156.804688 201.960938 155.6875 201.960938 154.484375 C 201.960938 153.746094 201.78125 153.003906 201.421875 152.367188 C 201.21875 151.984375 201.21875 151.546875 201.441406 151.1875 C 201.660156 150.824219 202.039062 150.605469 202.480469 150.605469 L 212.179688 150.605469 C 217.121094 150.605469 221.140625 154.625 221.140625 159.566406 L 221.140625 225.585938 C 221.140625 230.527344 217.121094 234.546875 212.179688 234.546875 Z M 162.820312 153.003906 C 159.199219 153.003906 156.261719 155.945312 156.261719 159.566406 L 156.261719 225.585938 C 156.261719 229.207031 159.199219 232.144531 162.820312 232.144531 L 212.179688 232.144531 C 215.800781 232.144531 218.738281 229.207031 218.738281 225.585938 L 218.738281 159.566406 C 218.738281 155.945312 215.800781 153.003906 212.179688 153.003906 L 204.199219 153.003906 C 204.300781 153.503906 204.359375 154.003906 204.359375 154.503906 C 204.359375 156.34375 203.640625 158.066406 202.359375 159.367188 C 201.058594 160.664062 199.339844 161.386719 197.5 161.386719 L 177.441406 161.386719 C 173.660156 161.386719 170.578125 158.304688 170.578125 154.527344 C 170.578125 154.027344 170.640625 153.527344 170.738281 153.027344 L 162.820312 153.027344 Z M 162.820312 153.003906 " fill-opacity="1" fill-rule="nonzero"/><path fill="#ffffff" d="M 197.5 161.367188 L 177.441406 161.367188 C 173.660156 161.367188 170.578125 158.285156 170.578125 154.503906 C 170.578125 153.367188 170.859375 152.246094 171.398438 151.246094 C 171.71875 150.664062 172.121094 150.125 172.578125 149.664062 C 173.878906 148.367188 175.601562 147.644531 177.441406 147.644531 L 178.539062 147.644531 C 179.460938 143.484375 183.140625 140.484375 187.5 140.484375 C 191.859375 140.484375 195.539062 143.503906 196.460938 147.644531 L 197.5 147.644531 C 200.019531 147.644531 202.320312 149.027344 203.539062 151.246094 C 204.078125 152.246094 204.359375 153.386719 204.359375 154.503906 C 204.359375 156.34375 203.640625 158.066406 202.359375 159.367188 C 201.058594 160.644531 199.339844 161.367188 197.5 161.367188 Z M 177.441406 150.027344 C 176.238281 150.027344 175.121094 150.484375 174.28125 151.324219 C 173.980469 151.625 173.71875 151.984375 173.5 152.367188 C 173.140625 153.003906 172.960938 153.746094 172.960938 154.484375 C 172.960938 156.945312 174.960938 158.945312 177.421875 158.945312 L 197.5 158.945312 C 198.699219 158.945312 199.820312 158.484375 200.660156 157.644531 C 201.5 156.804688 201.960938 155.6875 201.960938 154.484375 C 201.960938 153.746094 201.78125 153.003906 201.421875 152.367188 C 200.640625 150.925781 199.140625 150.027344 197.5 150.027344 L 195.441406 150.027344 C 194.820312 150.027344 194.300781 149.566406 194.238281 148.945312 C 193.898438 145.484375 191 142.867188 187.5 142.867188 C 184 142.867188 181.101562 145.484375 180.761719 148.945312 C 180.699219 149.566406 180.179688 150.027344 179.558594 150.027344 Z M 177.441406 150.027344 " fill-opacity="1" fill-rule="nonzero"/><path fill="#ffffff" d="M 208.640625 173.546875 L 185.320312 173.546875 C 184.660156 173.546875 184.121094 173.003906 184.121094 172.34375 C 184.121094 171.6875 184.660156 171.144531 185.320312 171.144531 L 208.640625 171.144531 C 209.300781 171.144531 209.839844 171.6875 209.839844 172.34375 C 209.839844 173.003906 209.300781 173.546875 208.640625 173.546875 Z M 208.640625 173.546875 " fill-opacity="1" fill-rule="nonzero"/><path fill="#ffffff" d="M 208.640625 180.984375 L 185.320312 180.984375 C 184.660156 180.984375 184.121094 180.445312 184.121094 179.785156 C 184.121094 179.125 184.660156 178.585938 185.320312 178.585938 L 208.640625 178.585938 C 209.300781 178.585938 209.839844 179.125 209.839844 179.785156 C 209.839844 180.445312 209.300781 180.984375 208.640625 180.984375 Z M 208.640625 180.984375 " fill-opacity="1" fill-rule="nonzero"/><path fill="#ffffff" d="M 175.859375 183.527344 L 170.679688 183.527344 C 167.839844 183.527344 165.519531 181.207031 165.519531 178.367188 L 165.519531 173.1875 C 165.519531 170.34375 167.839844 168.027344 170.679688 168.027344 L 175.859375 168.027344 C 178.699219 168.027344 181.019531 170.34375 181.019531 173.1875 L 181.019531 178.367188 C 181.019531 181.207031 178.699219 183.527344 175.859375 183.527344 Z M 170.679688 170.425781 C 169.160156 170.425781 167.921875 171.664062 167.921875 173.1875 L 167.921875 178.367188 C 167.921875 179.886719 169.160156 181.125 170.679688 181.125 L 175.859375 181.125 C 177.378906 181.125 178.621094 179.886719 178.621094 178.367188 L 178.621094 173.1875 C 178.621094 171.664062 177.378906 170.425781 175.859375 170.425781 Z M 170.679688 170.425781 " fill-opacity="1" fill-rule="nonzero"/><path fill="#ffffff" d="M 173.398438 178.824219 C 173.140625 178.824219 172.878906 178.746094 172.660156 178.566406 L 169.738281 176.304688 C 169.21875 175.90625 169.121094 175.144531 169.519531 174.625 C 169.921875 174.105469 170.679688 174.003906 171.199219 174.40625 L 173.199219 175.964844 L 179.460938 168.445312 C 179.878906 167.945312 180.640625 167.867188 181.160156 168.285156 C 181.660156 168.707031 181.738281 169.464844 181.320312 169.984375 L 174.300781 178.40625 C 174.078125 178.6875 173.738281 178.824219 173.398438 178.824219 Z M 173.398438 178.824219 " fill-opacity="1" fill-rule="nonzero"/><path fill="#ffffff" d="M 174.878906 210.265625 C 169 210.265625 164.21875 205.484375 164.21875 199.605469 C 164.21875 193.726562 169 188.945312 174.878906 188.945312 C 180.761719 188.945312 185.539062 193.726562 185.539062 199.605469 C 185.539062 205.484375 180.761719 210.265625 174.878906 210.265625 Z M 174.878906 191.34375 C 170.320312 191.34375 166.621094 195.046875 166.621094 199.605469 C 166.621094 204.164062 170.320312 207.867188 174.878906 207.867188 C 179.441406 207.867188 183.140625 204.164062 183.140625 199.605469 C 183.140625 195.046875 179.441406 191.34375 174.878906 191.34375 Z M 174.878906 191.34375 " fill-opacity="1" fill-rule="nonzero"/><path fill="#ffffff" d="M 173.660156 203.644531 C 173.640625 203.644531 173.601562 203.644531 173.578125 203.644531 C 173.238281 203.625 172.941406 203.445312 172.71875 203.1875 L 169.878906 199.546875 C 169.480469 199.027344 169.558594 198.265625 170.101562 197.867188 C 170.621094 197.464844 171.378906 197.546875 171.78125 198.085938 L 173.800781 200.6875 L 184.660156 190.34375 C 185.140625 189.886719 185.898438 189.90625 186.359375 190.386719 C 186.820312 190.867188 186.800781 191.625 186.320312 192.085938 L 174.5 203.304688 C 174.261719 203.527344 173.980469 203.644531 173.660156 203.644531 Z M 173.660156 203.644531 " fill-opacity="1" fill-rule="nonzero"/><path fill="#ffffff" d="M 201.738281 189.964844 L 191.621094 189.964844 C 190.960938 189.964844 190.421875 189.425781 190.421875 188.765625 C 190.421875 188.105469 190.960938 187.566406 191.621094 187.566406 L 201.738281 187.566406 C 202.398438 187.566406 202.941406 188.105469 202.941406 188.765625 C 202.941406 189.425781 202.398438 189.964844 201.738281 189.964844 Z M 201.738281 189.964844 " fill-opacity="1" fill-rule="nonzero"/><path fill="#ffffff" d="M 203.921875 196.527344 L 192.261719 196.527344 C 191.601562 196.527344 191.058594 195.984375 191.058594 195.324219 C 191.058594 194.664062 191.601562 194.125 192.261719 194.125 L 203.921875 194.125 C 204.578125 194.125 205.121094 194.664062 205.121094 195.324219 C 205.121094 195.984375 204.578125 196.527344 203.921875 196.527344 Z M 203.921875 196.527344 " fill-opacity="1" fill-rule="nonzero"/><path fill="#ffffff" d="M 204.738281 203.324219 L 190.421875 203.324219 C 189.761719 203.324219 189.21875 202.785156 189.21875 202.125 C 189.21875 201.464844 189.761719 200.925781 190.421875 200.925781 L 204.738281 200.925781 C 205.398438 200.925781 205.941406 201.464844 205.941406 202.125 C 205.941406 202.785156 205.398438 203.324219 204.738281 203.324219 Z M 204.738281 203.324219 " fill-opacity="1" fill-rule="nonzero"/><path fill="#ffffff" d="M 195.378906 217.304688 L 169.21875 217.304688 C 168.558594 217.304688 168.019531 216.765625 168.019531 216.105469 C 168.019531 215.445312 168.558594 214.90625 169.21875 214.90625 L 195.378906 214.90625 C 196.039062 214.90625 196.578125 215.445312 196.578125 216.105469 C 196.578125 216.765625 196.039062 217.304688 195.378906 217.304688 Z M 195.378906 217.304688 " fill-opacity="1" fill-rule="nonzero"/><path fill="#ffffff" d="M 201.878906 224.925781 L 184.601562 224.925781 C 183.941406 224.925781 183.398438 224.386719 183.398438 223.726562 C 183.398438 223.066406 183.941406 222.527344 184.601562 222.527344 L 201.878906 222.527344 C 202.539062 222.527344 203.078125 223.066406 203.078125 223.726562 C 203.078125 224.386719 202.539062 224.925781 201.878906 224.925781 Z M 201.878906 224.925781 " fill-opacity="1" fill-rule="nonzero"/><path fill="#ffffff" d="M 199.941406 209.785156 L 187 209.785156 C 186.339844 209.785156 185.800781 209.246094 185.800781 208.585938 C 185.800781 207.925781 186.339844 207.386719 187 207.386719 L 199.941406 207.386719 C 200.601562 207.386719 201.140625 207.925781 201.140625 208.585938 C 201.140625 209.246094 200.621094 209.785156 199.941406 209.785156 Z M 199.941406 209.785156 " fill-opacity="1" fill-rule="nonzero"/><path fill="#ffffff" d="M 187.480469 154.027344 C 185 154.027344 182.980469 152.003906 182.980469 149.527344 C 182.980469 147.046875 185 145.027344 187.480469 145.027344 C 189.960938 145.027344 191.980469 147.046875 191.980469 149.527344 C 191.980469 152.003906 189.960938 154.027344 187.480469 154.027344 Z M 187.480469 147.445312 C 186.320312 147.445312 185.378906 148.386719 185.378906 149.546875 C 185.378906 150.707031 186.320312 151.644531 187.480469 151.644531 C 188.640625 151.644531 189.578125 150.707031 189.578125 149.546875 C 189.578125 148.386719 188.621094 147.445312 187.480469 147.445312 Z M 187.480469 147.445312 " fill-opacity="1" fill-rule="nonzero"/></svg>