<svg xmlns="http://www.w3.org/2000/svg" xmlns:xlink="http://www.w3.org/1999/xlink" width="500" zoomAndPan="magnify" viewBox="0 0 375 374.999991" height="500" preserveAspectRatio="xMidYMid meet" version="1.0"><path fill="#ffa726" d="M 375 187.5 C 375 190.570312 374.925781 193.636719 374.773438 196.699219 C 374.625 199.765625 374.398438 202.824219 374.097656 205.878906 C 373.796875 208.933594 373.421875 211.976562 372.96875 215.011719 C 372.519531 218.046875 371.996094 221.070312 371.398438 224.078125 C 370.796875 227.089844 370.125 230.082031 369.378906 233.058594 C 368.636719 236.035156 367.816406 238.992188 366.925781 241.929688 C 366.035156 244.863281 365.074219 247.777344 364.039062 250.667969 C 363.003906 253.554688 361.902344 256.417969 360.726562 259.253906 C 359.554688 262.089844 358.308594 264.890625 356.996094 267.667969 C 355.6875 270.441406 354.308594 273.179688 352.859375 275.886719 C 351.414062 278.59375 349.902344 281.261719 348.324219 283.894531 C 346.746094 286.527344 345.105469 289.117188 343.402344 291.667969 C 341.695312 294.222656 339.929688 296.730469 338.101562 299.195312 C 336.273438 301.660156 334.386719 304.078125 332.4375 306.449219 C 330.492188 308.820312 328.488281 311.144531 326.429688 313.417969 C 324.367188 315.691406 322.253906 317.914062 320.082031 320.082031 C 317.914062 322.253906 315.691406 324.367188 313.417969 326.429688 C 311.144531 328.488281 308.820312 330.492188 306.449219 332.4375 C 304.078125 334.386719 301.660156 336.273438 299.195312 338.101562 C 296.730469 339.929688 294.222656 341.695312 291.667969 343.402344 C 289.117188 345.105469 286.527344 346.746094 283.894531 348.324219 C 281.261719 349.902344 278.59375 351.414062 275.886719 352.859375 C 273.179688 354.308594 270.441406 355.6875 267.667969 356.996094 C 264.890625 358.308594 262.089844 359.554688 259.253906 360.726562 C 256.417969 361.902344 253.554688 363.003906 250.667969 364.039062 C 247.777344 365.074219 244.863281 366.035156 241.929688 366.925781 C 238.992188 367.816406 236.035156 368.636719 233.058594 369.378906 C 230.082031 370.125 227.089844 370.796875 224.078125 371.398438 C 221.070312 371.996094 218.046875 372.519531 215.011719 372.96875 C 211.976562 373.421875 208.933594 373.796875 205.878906 374.097656 C 202.824219 374.398438 199.765625 374.625 196.699219 374.773438 C 193.636719 374.925781 190.570312 375 187.5 375 C 184.429688 375 181.363281 374.925781 178.300781 374.773438 C 175.234375 374.625 172.175781 374.398438 169.121094 374.097656 C 166.066406 373.796875 163.023438 373.421875 159.988281 372.96875 C 156.953125 372.519531 153.929688 371.996094 150.921875 371.398438 C 147.910156 370.796875 144.917969 370.125 141.941406 369.378906 C 138.964844 368.636719 136.007812 367.816406 133.070312 366.925781 C 130.136719 366.035156 127.222656 365.074219 124.332031 364.039062 C 121.445312 363.003906 118.582031 361.902344 115.746094 360.726562 C 112.910156 359.554688 110.105469 358.308594 107.332031 356.996094 C 104.558594 355.6875 101.820312 354.308594 99.113281 352.859375 C 96.40625 351.414062 93.738281 349.902344 91.105469 348.324219 C 88.472656 346.746094 85.882812 345.105469 83.332031 343.402344 C 80.777344 341.695312 78.269531 339.929688 75.804688 338.101562 C 73.339844 336.273438 70.921875 334.386719 68.550781 332.4375 C 66.179688 330.492188 63.855469 328.488281 61.582031 326.429688 C 59.308594 324.367188 57.085938 322.253906 54.917969 320.082031 C 52.746094 317.914062 50.632812 315.691406 48.570312 313.417969 C 46.511719 311.144531 44.507812 308.820312 42.558594 306.449219 C 40.613281 304.078125 38.726562 301.660156 36.898438 299.195312 C 35.070312 296.730469 33.304688 294.222656 31.597656 291.667969 C 29.894531 289.117188 28.253906 286.527344 26.675781 283.894531 C 25.097656 281.261719 23.585938 278.59375 22.140625 275.886719 C 20.691406 273.179688 19.3125 270.441406 18.003906 267.667969 C 16.691406 264.890625 15.445312 262.089844 14.273438 259.253906 C 13.097656 256.417969 11.996094 253.554688 10.960938 250.667969 C 9.925781 247.777344 8.964844 244.863281 8.074219 241.929688 C 7.183594 238.992188 6.363281 236.035156 5.621094 233.058594 C 4.875 230.082031 4.203125 227.089844 3.601562 224.078125 C 3.003906 221.070312 2.480469 218.046875 2.03125 215.011719 C 1.578125 211.976562 1.203125 208.933594 0.902344 205.878906 C 0.601562 202.824219 0.375 199.765625 0.226562 196.699219 C 0.0742188 193.636719 0 190.570312 0 187.5 C 0 184.429688 0.0742188 181.363281 0.226562 178.300781 C 0.375 175.234375 0.601562 172.175781 0.902344 169.121094 C 1.203125 166.066406 1.578125 163.023438 2.03125 159.988281 C 2.480469 156.953125 3.003906 153.929688 3.601562 150.921875 C 4.203125 147.910156 4.875 144.917969 5.621094 141.941406 C 6.363281 138.964844 7.183594 136.007812 8.074219 133.070312 C 8.964844 130.136719 9.925781 127.222656 10.960938 124.332031 C 11.996094 121.445312 13.097656 118.582031 14.273438 115.746094 C 15.445312 112.910156 16.691406 110.105469 18.003906 107.332031 C 19.3125 104.558594 20.691406 101.820312 22.140625 99.113281 C 23.585938 96.40625 25.097656 93.738281 26.675781 91.105469 C 28.253906 88.472656 29.894531 85.882812 31.597656 83.332031 C 33.304688 80.777344 35.070312 78.269531 36.898438 75.804688 C 38.726562 73.339844 40.613281 70.921875 42.558594 68.550781 C 44.507812 66.179688 46.511719 63.855469 48.570312 61.582031 C 50.632812 59.308594 52.746094 57.085938 54.917969 54.917969 C 57.085938 52.746094 59.308594 50.632812 61.582031 48.570312 C 63.855469 46.511719 66.179688 44.507812 68.550781 42.558594 C 70.921875 40.613281 73.339844 38.726562 75.804688 36.898438 C 78.269531 35.070312 80.777344 33.304688 83.332031 31.597656 C 85.882812 29.894531 88.472656 28.253906 91.105469 26.675781 C 93.738281 25.097656 96.40625 23.585938 99.113281 22.140625 C 101.820312 20.691406 104.558594 19.3125 107.332031 18.003906 C 110.105469 16.691406 112.910156 15.445312 115.746094 14.273438 C 118.582031 13.097656 121.445312 11.996094 124.332031 10.960938 C 127.222656 9.925781 130.136719 8.964844 133.070312 8.074219 C 136.007812 7.183594 138.964844 6.363281 141.941406 5.621094 C 144.917969 4.875 147.910156 4.203125 150.921875 3.601562 C 153.929688 3.003906 156.953125 2.480469 159.988281 2.03125 C 163.023438 1.578125 166.066406 1.203125 169.121094 0.902344 C 172.175781 0.601562 175.234375 0.375 178.300781 0.226562 C 181.363281 0.0742188 184.429688 0 187.5 0 C 190.570312 0 193.636719 0.0742188 196.699219 0.226562 C 199.765625 0.375 202.824219 0.601562 205.878906 0.902344 C 208.933594 1.203125 211.976562 1.578125 215.011719 2.03125 C 218.046875 2.480469 221.070312 3.003906 224.078125 3.601562 C 227.089844 4.203125 230.082031 4.875 233.058594 5.617188 C 236.035156 6.363281 238.992188 7.183594 241.929688 8.074219 C 244.863281 8.964844 247.777344 9.925781 250.667969 10.960938 C 253.554688 11.996094 256.417969 13.097656 259.253906 14.273438 C 262.089844 15.445312 264.890625 16.691406 267.667969 18.003906 C 270.441406 19.3125 273.179688 20.691406 275.886719 22.140625 C 278.59375 23.585938 281.261719 25.097656 283.894531 26.675781 C 286.527344 28.253906 289.117188 29.894531 291.667969 31.597656 C 294.222656 33.304688 296.730469 35.070312 299.195312 36.898438 C 301.660156 38.726562 304.078125 40.613281 306.449219 42.558594 C 308.820312 44.507812 311.144531 46.511719 313.417969 48.570312 C 315.691406 50.632812 317.914062 52.746094 320.082031 54.917969 C 322.253906 57.085938 324.367188 59.308594 326.429688 61.582031 C 328.488281 63.855469 330.492188 66.179688 332.4375 68.550781 C 334.386719 70.921875 336.273438 73.339844 338.101562 75.804688 C 339.929688 78.269531 341.695312 80.777344 343.402344 83.332031 C 345.105469 85.882812 346.746094 88.472656 348.324219 91.105469 C 349.902344 93.738281 351.414062 96.40625 352.859375 99.113281 C 354.308594 101.820312 355.6875 104.558594 356.996094 107.332031 C 358.308594 110.105469 359.554688 112.910156 360.726562 115.746094 C 361.902344 118.582031 363.003906 121.445312 364.039062 124.332031 C 365.074219 127.222656 366.035156 130.136719 366.925781 133.070312 C 367.816406 136.007812 368.636719 138.964844 369.378906 141.941406 C 370.125 144.917969 370.796875 147.910156 371.398438 150.921875 C 371.996094 153.929688 372.519531 156.953125 372.96875 159.988281 C 373.421875 163.023438 373.796875 166.066406 374.097656 169.121094 C 374.398438 172.175781 374.625 175.234375 374.773438 178.300781 C 374.925781 181.363281 375 184.429688 375 187.5 Z M 375 187.5 " fill-opacity="1" fill-rule="nonzero"/><path fill="#ffffff" d="M 249.199219 305.113281 L 125.800781 305.113281 C 113.449219 305.113281 103.398438 295.0625 103.398438 282.714844 L 103.398438 117.664062 C 103.398438 105.3125 113.449219 95.265625 125.800781 95.265625 L 149.898438 95.265625 C 150.949219 95.265625 151.949219 95.8125 152.5 96.714844 C 153.050781 97.613281 153.050781 98.765625 152.550781 99.664062 C 151.648438 101.265625 151.199219 103.113281 151.199219 104.964844 C 151.199219 111.113281 156.199219 116.113281 162.351562 116.113281 L 212.5 116.113281 C 215.5 116.113281 218.300781 114.964844 220.398438 112.863281 C 222.5 110.765625 223.648438 107.964844 223.648438 104.964844 C 223.648438 103.113281 223.199219 101.265625 222.300781 99.664062 C 221.800781 98.714844 221.800781 97.613281 222.351562 96.714844 C 222.898438 95.8125 223.851562 95.265625 224.949219 95.265625 L 249.199219 95.265625 C 261.550781 95.265625 271.601562 105.3125 271.601562 117.664062 L 271.601562 282.714844 C 271.601562 295.0625 261.550781 305.113281 249.199219 305.113281 Z M 125.800781 101.265625 C 116.75 101.265625 109.398438 108.613281 109.398438 117.664062 L 109.398438 282.714844 C 109.398438 291.765625 116.75 299.113281 125.800781 299.113281 L 249.199219 299.113281 C 258.25 299.113281 265.601562 291.765625 265.601562 282.714844 L 265.601562 117.664062 C 265.601562 108.613281 258.25 101.265625 249.199219 101.265625 L 229.25 101.265625 C 229.5 102.515625 229.648438 103.765625 229.648438 105.015625 C 229.648438 109.613281 227.851562 113.914062 224.648438 117.164062 C 221.398438 120.414062 217.101562 122.214844 212.5 122.214844 L 162.351562 122.214844 C 152.898438 122.214844 145.199219 114.515625 145.199219 105.0625 C 145.199219 103.8125 145.351562 102.5625 145.601562 101.3125 L 125.800781 101.3125 Z M 125.800781 101.265625 " fill-opacity="1" fill-rule="nonzero"/><path fill="#ffffff" d="M 212.5 122.164062 L 162.351562 122.164062 C 152.898438 122.164062 145.199219 114.464844 145.199219 105.015625 C 145.199219 102.164062 145.898438 99.363281 147.25 96.863281 C 148.050781 95.414062 149.050781 94.0625 150.199219 92.914062 C 153.449219 89.664062 157.75 87.863281 162.351562 87.863281 L 165.101562 87.863281 C 167.398438 77.464844 176.601562 69.964844 187.5 69.964844 C 198.398438 69.964844 207.601562 77.515625 209.898438 87.863281 L 212.5 87.863281 C 218.800781 87.863281 224.550781 91.3125 227.601562 96.863281 C 228.949219 99.363281 229.648438 102.214844 229.648438 105.015625 C 229.648438 109.613281 227.851562 113.914062 224.648438 117.164062 C 221.398438 120.363281 217.101562 122.164062 212.5 122.164062 Z M 162.351562 93.8125 C 159.351562 93.8125 156.550781 94.964844 154.449219 97.0625 C 153.699219 97.8125 153.050781 98.714844 152.5 99.664062 C 151.601562 101.265625 151.148438 103.113281 151.148438 104.964844 C 151.148438 111.113281 156.148438 116.113281 162.300781 116.113281 L 212.5 116.113281 C 215.5 116.113281 218.300781 114.964844 220.398438 112.863281 C 222.5 110.765625 223.648438 107.964844 223.648438 104.964844 C 223.648438 103.113281 223.199219 101.265625 222.300781 99.664062 C 220.351562 96.0625 216.601562 93.8125 212.5 93.8125 L 207.351562 93.8125 C 205.800781 93.8125 204.5 92.664062 204.351562 91.113281 C 203.5 82.464844 196.25 75.914062 187.5 75.914062 C 178.75 75.914062 171.5 82.464844 170.648438 91.113281 C 170.5 92.664062 169.199219 93.8125 167.648438 93.8125 Z M 162.351562 93.8125 " fill-opacity="1" fill-rule="nonzero"/><path fill="#ffffff" d="M 240.351562 152.613281 L 182.050781 152.613281 C 180.398438 152.613281 179.050781 151.265625 179.050781 149.613281 C 179.050781 147.964844 180.398438 146.613281 182.050781 146.613281 L 240.351562 146.613281 C 242 146.613281 243.351562 147.964844 243.351562 149.613281 C 243.351562 151.265625 242 152.613281 240.351562 152.613281 Z M 240.351562 152.613281 " fill-opacity="1" fill-rule="nonzero"/><path fill="#ffffff" d="M 240.351562 171.214844 L 182.050781 171.214844 C 180.398438 171.214844 179.050781 169.863281 179.050781 168.214844 C 179.050781 166.5625 180.398438 165.214844 182.050781 165.214844 L 240.351562 165.214844 C 242 165.214844 243.351562 166.5625 243.351562 168.214844 C 243.351562 169.863281 242 171.214844 240.351562 171.214844 Z M 240.351562 171.214844 " fill-opacity="1" fill-rule="nonzero"/><path fill="#ffffff" d="M 158.398438 177.5625 L 145.449219 177.5625 C 138.351562 177.5625 132.550781 171.765625 132.550781 164.664062 L 132.550781 151.714844 C 132.550781 144.613281 138.351562 138.8125 145.449219 138.8125 L 158.398438 138.8125 C 165.5 138.8125 171.300781 144.613281 171.300781 151.714844 L 171.300781 164.664062 C 171.300781 171.765625 165.5 177.5625 158.398438 177.5625 Z M 145.449219 144.8125 C 141.648438 144.8125 138.550781 147.914062 138.550781 151.714844 L 138.550781 164.664062 C 138.550781 168.464844 141.648438 171.5625 145.449219 171.5625 L 158.398438 171.5625 C 162.199219 171.5625 165.300781 168.464844 165.300781 164.664062 L 165.300781 151.714844 C 165.300781 147.914062 162.199219 144.8125 158.398438 144.8125 Z M 145.449219 144.8125 " fill-opacity="1" fill-rule="nonzero"/><path fill="#ffffff" d="M 152.25 165.8125 C 151.601562 165.8125 150.949219 165.613281 150.398438 165.164062 L 143.101562 159.515625 C 141.800781 158.515625 141.550781 156.613281 142.550781 155.3125 C 143.550781 154.015625 145.449219 153.765625 146.75 154.765625 L 151.75 158.664062 L 167.398438 139.863281 C 168.449219 138.613281 170.351562 138.414062 171.648438 139.464844 C 172.898438 140.515625 173.101562 142.414062 172.050781 143.714844 L 154.5 164.765625 C 153.949219 165.464844 153.101562 165.8125 152.25 165.8125 Z M 152.25 165.8125 " fill-opacity="1" fill-rule="nonzero"/><path fill="#ffffff" d="M 155.949219 244.414062 C 141.25 244.414062 129.300781 232.464844 129.300781 217.765625 C 129.300781 203.0625 141.25 191.113281 155.949219 191.113281 C 170.648438 191.113281 182.601562 203.0625 182.601562 217.765625 C 182.601562 232.464844 170.648438 244.414062 155.949219 244.414062 Z M 155.949219 197.113281 C 144.550781 197.113281 135.300781 206.363281 135.300781 217.765625 C 135.300781 229.164062 144.550781 238.414062 155.949219 238.414062 C 167.351562 238.414062 176.601562 229.164062 176.601562 217.765625 C 176.601562 206.363281 167.351562 197.113281 155.949219 197.113281 Z M 155.949219 197.113281 " fill-opacity="1" fill-rule="nonzero"/><path fill="#ffffff" d="M 152.898438 227.863281 C 152.851562 227.863281 152.75 227.863281 152.699219 227.863281 C 151.851562 227.8125 151.101562 227.363281 150.550781 226.714844 L 143.449219 217.613281 C 142.449219 216.3125 142.648438 214.414062 144 213.414062 C 145.300781 212.414062 147.199219 212.613281 148.199219 213.964844 L 153.25 220.464844 L 180.398438 194.613281 C 181.601562 193.464844 183.5 193.515625 184.648438 194.714844 C 185.800781 195.914062 185.75 197.8125 184.550781 198.964844 L 155 227.015625 C 154.398438 227.5625 153.699219 227.863281 152.898438 227.863281 Z M 152.898438 227.863281 " fill-opacity="1" fill-rule="nonzero"/><path fill="#ffffff" d="M 223.101562 193.664062 L 197.800781 193.664062 C 196.148438 193.664062 194.800781 192.3125 194.800781 190.664062 C 194.800781 189.015625 196.148438 187.664062 197.800781 187.664062 L 223.101562 187.664062 C 224.75 187.664062 226.101562 189.015625 226.101562 190.664062 C 226.101562 192.3125 224.75 193.664062 223.101562 193.664062 Z M 223.101562 193.664062 " fill-opacity="1" fill-rule="nonzero"/><path fill="#ffffff" d="M 228.550781 210.0625 L 199.398438 210.0625 C 197.75 210.0625 196.398438 208.714844 196.398438 207.0625 C 196.398438 205.414062 197.75 204.0625 199.398438 204.0625 L 228.550781 204.0625 C 230.199219 204.0625 231.550781 205.414062 231.550781 207.0625 C 231.550781 208.714844 230.199219 210.0625 228.550781 210.0625 Z M 228.550781 210.0625 " fill-opacity="1" fill-rule="nonzero"/><path fill="#ffffff" d="M 230.601562 227.0625 L 194.800781 227.0625 C 193.148438 227.0625 191.800781 225.714844 191.800781 224.0625 C 191.800781 222.414062 193.148438 221.0625 194.800781 221.0625 L 230.601562 221.0625 C 232.25 221.0625 233.601562 222.414062 233.601562 224.0625 C 233.601562 225.714844 232.25 227.0625 230.601562 227.0625 Z M 230.601562 227.0625 " fill-opacity="1" fill-rule="nonzero"/><path fill="#ffffff" d="M 207.199219 262.015625 L 141.800781 262.015625 C 140.148438 262.015625 138.800781 260.664062 138.800781 259.015625 C 138.800781 257.363281 140.148438 256.015625 141.800781 256.015625 L 207.199219 256.015625 C 208.851562 256.015625 210.199219 257.363281 210.199219 259.015625 C 210.199219 260.664062 208.851562 262.015625 207.199219 262.015625 Z M 207.199219 262.015625 " fill-opacity="1" fill-rule="nonzero"/><path fill="#ffffff" d="M 223.449219 281.0625 L 180.25 281.0625 C 178.601562 281.0625 177.25 279.714844 177.25 278.0625 C 177.25 276.414062 178.601562 275.0625 180.25 275.0625 L 223.449219 275.0625 C 225.101562 275.0625 226.449219 276.414062 226.449219 278.0625 C 226.449219 279.714844 225.101562 281.0625 223.449219 281.0625 Z M 223.449219 281.0625 " fill-opacity="1" fill-rule="nonzero"/><path fill="#ffffff" d="M 218.601562 243.214844 L 186.25 243.214844 C 184.601562 243.214844 183.25 241.863281 183.25 240.214844 C 183.25 238.5625 184.601562 237.214844 186.25 237.214844 L 218.601562 237.214844 C 220.25 237.214844 221.601562 238.5625 221.601562 240.214844 C 221.601562 241.863281 220.300781 243.214844 218.601562 243.214844 Z M 218.601562 243.214844 " fill-opacity="1" fill-rule="nonzero"/><path fill="#ffffff" d="M 187.449219 103.8125 C 181.25 103.8125 176.199219 98.765625 176.199219 92.5625 C 176.199219 86.363281 181.25 81.3125 187.449219 81.3125 C 193.648438 81.3125 198.699219 86.363281 198.699219 92.5625 C 198.699219 98.765625 193.648438 103.8125 187.449219 103.8125 Z M 187.449219 87.363281 C 184.550781 87.363281 182.199219 89.714844 182.199219 92.613281 C 182.199219 95.515625 184.550781 97.863281 187.449219 97.863281 C 190.351562 97.863281 192.699219 95.515625 192.699219 92.613281 C 192.699219 89.714844 190.300781 87.363281 187.449219 87.363281 Z M 187.449219 87.363281 " fill-opacity="1" fill-rule="nonzero"/></svg>