<svg xmlns="http://www.w3.org/2000/svg" xmlns:xlink="http://www.w3.org/1999/xlink" width="500" zoomAndPan="magnify" viewBox="0 0 375 374.999991" height="500" preserveAspectRatio="xMidYMid meet" version="1.0"><path fill="#ffa726" d="M 375 187.5 C 375 190.570312 374.925781 193.636719 374.773438 196.699219 C 374.625 199.765625 374.398438 202.824219 374.097656 205.878906 C 373.796875 208.933594 373.421875 211.976562 372.96875 215.011719 C 372.519531 218.046875 371.996094 221.070312 371.398438 224.078125 C 370.796875 227.089844 370.125 230.082031 369.378906 233.058594 C 368.636719 236.035156 367.816406 238.992188 366.925781 241.929688 C 366.035156 244.863281 365.074219 247.777344 364.039062 250.667969 C 363.003906 253.554688 361.902344 256.417969 360.726562 259.253906 C 359.554688 262.089844 358.308594 264.890625 356.996094 267.667969 C 355.6875 270.441406 354.308594 273.179688 352.859375 275.886719 C 351.414062 278.59375 349.902344 281.261719 348.324219 283.894531 C 346.746094 286.527344 345.105469 289.117188 343.402344 291.667969 C 341.695312 294.222656 339.929688 296.730469 338.101562 299.195312 C 336.273438 301.660156 334.386719 304.078125 332.4375 306.449219 C 330.492188 308.820312 328.488281 311.144531 326.429688 313.417969 C 324.367188 315.691406 322.253906 317.914062 320.082031 320.082031 C 317.914062 322.253906 315.691406 324.367188 313.417969 326.429688 C 311.144531 328.488281 308.820312 330.492188 306.449219 332.4375 C 304.078125 334.386719 301.660156 336.273438 299.195312 338.101562 C 296.730469 339.929688 294.222656 341.695312 291.667969 343.402344 C 289.117188 345.105469 286.527344 346.746094 283.894531 348.324219 C 281.261719 349.902344 278.59375 351.414062 275.886719 352.859375 C 273.179688 354.308594 270.441406 355.6875 267.667969 356.996094 C 264.890625 358.308594 262.089844 359.554688 259.253906 360.726562 C 256.417969 361.902344 253.554688 363.003906 250.667969 364.039062 C 247.777344 365.074219 244.863281 366.035156 241.929688 366.925781 C 238.992188 367.816406 236.035156 368.636719 233.058594 369.378906 C 230.082031 370.125 227.089844 370.796875 224.078125 371.398438 C 221.070312 371.996094 218.046875 372.519531 215.011719 372.96875 C 211.976562 373.421875 208.933594 373.796875 205.878906 374.097656 C 202.824219 374.398438 199.765625 374.625 196.699219 374.773438 C 193.636719 374.925781 190.570312 375 187.5 375 C 184.429688 375 181.363281 374.925781 178.300781 374.773438 C 175.234375 374.625 172.175781 374.398438 169.121094 374.097656 C 166.066406 373.796875 163.023438 373.421875 159.988281 372.96875 C 156.953125 372.519531 153.929688 371.996094 150.921875 371.398438 C 147.910156 370.796875 144.917969 370.125 141.941406 369.378906 C 138.964844 368.636719 136.007812 367.816406 133.070312 366.925781 C 130.136719 366.035156 127.222656 365.074219 124.332031 364.039062 C 121.445312 363.003906 118.582031 361.902344 115.746094 360.726562 C 112.910156 359.554688 110.105469 358.308594 107.332031 356.996094 C 104.558594 355.6875 101.820312 354.308594 99.113281 352.859375 C 96.40625 351.414062 93.738281 349.902344 91.105469 348.324219 C 88.472656 346.746094 85.882812 345.105469 83.332031 343.402344 C 80.777344 341.695312 78.269531 339.929688 75.804688 338.101562 C 73.339844 336.273438 70.921875 334.386719 68.550781 332.4375 C 66.179688 330.492188 63.855469 328.488281 61.582031 326.429688 C 59.308594 324.367188 57.085938 322.253906 54.917969 320.082031 C 52.746094 317.914062 50.632812 315.691406 48.570312 313.417969 C 46.511719 311.144531 44.507812 308.820312 42.558594 306.449219 C 40.613281 304.078125 38.726562 301.660156 36.898438 299.195312 C 35.070312 296.730469 33.304688 294.222656 31.597656 291.667969 C 29.894531 289.117188 28.253906 286.527344 26.675781 283.894531 C 25.097656 281.261719 23.585938 278.59375 22.140625 275.886719 C 20.691406 273.179688 19.3125 270.441406 18.003906 267.667969 C 16.691406 264.890625 15.445312 262.089844 14.273438 259.253906 C 13.097656 256.417969 11.996094 253.554688 10.960938 250.667969 C 9.925781 247.777344 8.964844 244.863281 8.074219 241.929688 C 7.183594 238.992188 6.363281 236.035156 5.621094 233.058594 C 4.875 230.082031 4.203125 227.089844 3.601562 224.078125 C 3.003906 221.070312 2.480469 218.046875 2.03125 215.011719 C 1.578125 211.976562 1.203125 208.933594 0.902344 205.878906 C 0.601562 202.824219 0.375 199.765625 0.226562 196.699219 C 0.0742188 193.636719 0 190.570312 0 187.5 C 0 184.429688 0.0742188 181.363281 0.226562 178.300781 C 0.375 175.234375 0.601562 172.175781 0.902344 169.121094 C 1.203125 166.066406 1.578125 163.023438 2.03125 159.988281 C 2.480469 156.953125 3.003906 153.929688 3.601562 150.921875 C 4.203125 147.910156 4.875 144.917969 5.621094 141.941406 C 6.363281 138.964844 7.183594 136.007812 8.074219 133.070312 C 8.964844 130.136719 9.925781 127.222656 10.960938 124.332031 C 11.996094 121.445312 13.097656 118.582031 14.273438 115.746094 C 15.445312 112.910156 16.691406 110.105469 18.003906 107.332031 C 19.3125 104.558594 20.691406 101.820312 22.140625 99.113281 C 23.585938 96.40625 25.097656 93.738281 26.675781 91.105469 C 28.253906 88.472656 29.894531 85.882812 31.597656 83.332031 C 33.304688 80.777344 35.070312 78.269531 36.898438 75.804688 C 38.726562 73.339844 40.613281 70.921875 42.558594 68.550781 C 44.507812 66.179688 46.511719 63.855469 48.570312 61.582031 C 50.632812 59.308594 52.746094 57.085938 54.917969 54.917969 C 57.085938 52.746094 59.308594 50.632812 61.582031 48.570312 C 63.855469 46.511719 66.179688 44.507812 68.550781 42.558594 C 70.921875 40.613281 73.339844 38.726562 75.804688 36.898438 C 78.269531 35.070312 80.777344 33.304688 83.332031 31.597656 C 85.882812 29.894531 88.472656 28.253906 91.105469 26.675781 C 93.738281 25.097656 96.40625 23.585938 99.113281 22.140625 C 101.820312 20.691406 104.558594 19.3125 107.332031 18.003906 C 110.105469 16.691406 112.910156 15.445312 115.746094 14.273438 C 118.582031 13.097656 121.445312 11.996094 124.332031 10.960938 C 127.222656 9.925781 130.136719 8.964844 133.070312 8.074219 C 136.007812 7.183594 138.964844 6.363281 141.941406 5.621094 C 144.917969 4.875 147.910156 4.203125 150.921875 3.601562 C 153.929688 3.003906 156.953125 2.480469 159.988281 2.03125 C 163.023438 1.578125 166.066406 1.203125 169.121094 0.902344 C 172.175781 0.601562 175.234375 0.375 178.300781 0.226562 C 181.363281 0.0742188 184.429688 0 187.5 0 C 190.570312 0 193.636719 0.0742188 196.699219 0.226562 C 199.765625 0.375 202.824219 0.601562 205.878906 0.902344 C 208.933594 1.203125 211.976562 1.578125 215.011719 2.03125 C 218.046875 2.480469 221.070312 3.003906 224.078125 3.601562 C 227.089844 4.203125 230.082031 4.875 233.058594 5.617188 C 236.035156 6.363281 238.992188 7.183594 241.929688 8.074219 C 244.863281 8.964844 247.777344 9.925781 250.667969 10.960938 C 253.554688 11.996094 256.417969 13.097656 259.253906 14.273438 C 262.089844 15.445312 264.890625 16.691406 267.667969 18.003906 C 270.441406 19.3125 273.179688 20.691406 275.886719 22.140625 C 278.59375 23.585938 281.261719 25.097656 283.894531 26.675781 C 286.527344 28.253906 289.117188 29.894531 291.667969 31.597656 C 294.222656 33.304688 296.730469 35.070312 299.195312 36.898438 C 301.660156 38.726562 304.078125 40.613281 306.449219 42.558594 C 308.820312 44.507812 311.144531 46.511719 313.417969 48.570312 C 315.691406 50.632812 317.914062 52.746094 320.082031 54.917969 C 322.253906 57.085938 324.367188 59.308594 326.429688 61.582031 C 328.488281 63.855469 330.492188 66.179688 332.4375 68.550781 C 334.386719 70.921875 336.273438 73.339844 338.101562 75.804688 C 339.929688 78.269531 341.695312 80.777344 343.402344 83.332031 C 345.105469 85.882812 346.746094 88.472656 348.324219 91.105469 C 349.902344 93.738281 351.414062 96.40625 352.859375 99.113281 C 354.308594 101.820312 355.6875 104.558594 356.996094 107.332031 C 358.308594 110.105469 359.554688 112.910156 360.726562 115.746094 C 361.902344 118.582031 363.003906 121.445312 364.039062 124.332031 C 365.074219 127.222656 366.035156 130.136719 366.925781 133.070312 C 367.816406 136.007812 368.636719 138.964844 369.378906 141.941406 C 370.125 144.917969 370.796875 147.910156 371.398438 150.921875 C 371.996094 153.929688 372.519531 156.953125 372.96875 159.988281 C 373.421875 163.023438 373.796875 166.066406 374.097656 169.121094 C 374.398438 172.175781 374.625 175.234375 374.773438 178.300781 C 374.925781 181.363281 375 184.429688 375 187.5 Z M 375 187.5 " fill-opacity="1" fill-rule="nonzero"/><path fill="#ffffff" d="M 89.007812 306.496094 C 77.710938 306.496094 68.507812 297.34375 68.507812 285.996094 C 68.507812 280.546875 70.660156 275.34375 74.507812 271.496094 L 176.660156 169.394531 C 187.710938 158.34375 193.808594 142.796875 193.359375 126.644531 C 192.507812 95.394531 217.160156 69.34375 248.410156 68.496094 C 254.859375 68.34375 261.257812 69.246094 267.410156 71.246094 C 269.507812 71.894531 270.660156 74.144531 270.007812 76.296875 C 269.808594 76.894531 269.460938 77.445312 269.007812 77.894531 L 248.460938 98.445312 L 255.960938 119.09375 L 276.609375 126.59375 L 297.109375 105.996094 C 298.660156 104.445312 301.210938 104.445312 302.757812 105.996094 C 303.210938 106.445312 303.558594 106.996094 303.757812 107.59375 C 313.410156 137.34375 297.160156 169.246094 267.410156 178.945312 C 261.757812 180.796875 255.910156 181.695312 249.960938 181.695312 C 249.460938 181.695312 248.910156 181.695312 248.359375 181.695312 C 232.210938 181.246094 216.660156 187.34375 205.609375 198.394531 L 103.507812 300.496094 C 99.660156 304.34375 94.460938 306.496094 89.007812 306.496094 Z M 77.359375 274.34375 L 80.210938 277.195312 C 75.410156 282.144531 75.558594 290.09375 80.507812 294.894531 C 85.359375 299.59375 93.007812 299.59375 97.859375 294.894531 L 200.007812 192.746094 C 212.609375 180.144531 230.308594 173.195312 248.609375 173.695312 C 275.460938 174.394531 297.808594 153.246094 298.507812 126.394531 C 298.609375 123.144531 298.359375 119.894531 297.808594 116.695312 L 280.410156 133.996094 C 279.308594 135.09375 277.660156 135.445312 276.210938 134.945312 L 251.410156 125.945312 C 250.308594 125.546875 249.410156 124.644531 249.007812 123.546875 L 240.007812 98.746094 C 239.507812 97.296875 239.859375 95.644531 240.960938 94.546875 L 258.308594 77.195312 C 231.859375 72.546875 206.660156 90.246094 202.007812 116.695312 C 201.460938 119.894531 201.210938 123.144531 201.308594 126.394531 C 201.808594 144.695312 194.859375 162.394531 182.257812 174.996094 L 80.160156 277.144531 Z M 77.359375 274.34375 " fill-opacity="1" fill-rule="nonzero"/><path fill="#ffffff" d="M 201.007812 177.996094 C 198.808594 177.996094 197.007812 176.195312 197.007812 173.996094 C 197.007812 173.195312 197.257812 172.394531 197.710938 171.746094 C 206.859375 158.34375 211.507812 142.394531 211.109375 126.195312 C 210.757812 115.546875 214.910156 105.195312 222.460938 97.695312 L 223.058594 97.09375 C 224.660156 95.546875 227.160156 95.59375 228.710938 97.195312 C 229.109375 97.59375 229.410156 98.09375 229.609375 98.59375 L 242.058594 132.945312 L 276.410156 145.394531 C 278.460938 146.144531 279.558594 148.445312 278.808594 150.546875 C 278.609375 151.046875 278.308594 151.546875 277.910156 151.945312 C 277.710938 152.144531 277.507812 152.34375 277.359375 152.546875 C 269.859375 160.09375 259.507812 164.246094 248.859375 163.894531 C 232.660156 163.445312 216.710938 168.144531 203.308594 177.296875 C 202.609375 177.746094 201.808594 177.996094 201.007812 177.996094 Z M 224.410156 107.796875 C 220.757812 113.144531 218.910156 119.496094 219.109375 125.945312 C 219.460938 138.894531 216.859375 151.695312 211.507812 163.496094 C 223.308594 158.144531 236.109375 155.546875 249.058594 155.894531 C 255.507812 156.09375 261.859375 154.246094 267.210938 150.59375 L 237.558594 139.84375 C 236.460938 139.445312 235.558594 138.546875 235.160156 137.445312 Z M 224.410156 107.796875 " fill-opacity="1" fill-rule="nonzero"/><path fill="#ffffff" d="M 106.609375 295.746094 C 104.710938 295.746094 103.058594 294.394531 102.710938 292.546875 C 100.660156 282.34375 92.710938 274.394531 82.507812 272.34375 C 80.308594 272.046875 78.757812 270.046875 79.058594 267.84375 C 79.359375 265.644531 81.359375 264.09375 83.558594 264.394531 C 83.710938 264.394531 83.910156 264.445312 84.058594 264.496094 C 97.410156 267.195312 107.808594 277.59375 110.507812 290.945312 C 110.960938 293.09375 109.558594 295.195312 107.359375 295.644531 C 107.109375 295.695312 106.859375 295.746094 106.609375 295.746094 Z M 106.609375 295.746094 " fill-opacity="1" fill-rule="nonzero"/></svg>