<svg xmlns="http://www.w3.org/2000/svg" xmlns:xlink="http://www.w3.org/1999/xlink" width="500" zoomAndPan="magnify" viewBox="0 0 375 374.999991" height="500" preserveAspectRatio="xMidYMid meet" version="1.0"><defs><clipPath id="233ca85294"><path d="M 112.5 112.5 L 262.5 112.5 L 262.5 262.5 L 112.5 262.5 Z M 112.5 112.5 " clip-rule="nonzero"/></clipPath></defs><g clip-path="url(#233ca85294)"><path fill="#ffa726" d="M 262.5 187.5 C 262.5 188.726562 262.46875 189.953125 262.410156 191.179688 C 262.347656 192.40625 262.257812 193.628906 262.140625 194.851562 C 262.019531 196.074219 261.867188 197.289062 261.6875 198.503906 C 261.507812 199.71875 261.296875 200.929688 261.058594 202.132812 C 260.820312 203.335938 260.550781 204.53125 260.253906 205.722656 C 259.953125 206.914062 259.625 208.097656 259.269531 209.269531 C 258.914062 210.445312 258.527344 211.609375 258.117188 212.765625 C 257.703125 213.921875 257.261719 215.066406 256.789062 216.203125 C 256.320312 217.335938 255.824219 218.457031 255.300781 219.566406 C 254.773438 220.675781 254.222656 221.773438 253.644531 222.855469 C 253.066406 223.9375 252.460938 225.003906 251.828125 226.058594 C 251.199219 227.109375 250.542969 228.148438 249.859375 229.167969 C 249.179688 230.1875 248.472656 231.191406 247.742188 232.175781 C 247.007812 233.164062 246.253906 234.128906 245.476562 235.078125 C 244.695312 236.027344 243.894531 236.957031 243.070312 237.867188 C 242.246094 238.777344 241.402344 239.664062 240.53125 240.53125 C 239.664062 241.402344 238.777344 242.246094 237.867188 243.070312 C 236.957031 243.894531 236.027344 244.695312 235.078125 245.476562 C 234.128906 246.253906 233.164062 247.007812 232.175781 247.742188 C 231.191406 248.472656 230.1875 249.179688 229.167969 249.859375 C 228.148438 250.542969 227.109375 251.199219 226.058594 251.828125 C 225.003906 252.460938 223.9375 253.066406 222.855469 253.644531 C 221.773438 254.222656 220.675781 254.773438 219.566406 255.300781 C 218.457031 255.824219 217.335938 256.320312 216.203125 256.789062 C 215.066406 257.261719 213.921875 257.703125 212.765625 258.117188 C 211.609375 258.527344 210.445312 258.914062 209.269531 259.269531 C 208.097656 259.625 206.914062 259.953125 205.722656 260.253906 C 204.53125 260.550781 203.335938 260.820312 202.132812 261.058594 C 200.929688 261.296875 199.71875 261.507812 198.503906 261.6875 C 197.289062 261.867188 196.074219 262.019531 194.851562 262.140625 C 193.628906 262.257812 192.40625 262.347656 191.179688 262.410156 C 189.953125 262.46875 188.726562 262.5 187.5 262.5 C 186.273438 262.5 185.046875 262.46875 183.820312 262.410156 C 182.59375 262.347656 181.371094 262.257812 180.148438 262.140625 C 178.925781 262.019531 177.710938 261.867188 176.496094 261.6875 C 175.28125 261.507812 174.070312 261.296875 172.867188 261.058594 C 171.664062 260.820312 170.46875 260.550781 169.277344 260.253906 C 168.085938 259.953125 166.902344 259.625 165.730469 259.269531 C 164.554688 258.914062 163.390625 258.527344 162.234375 258.117188 C 161.078125 257.703125 159.933594 257.261719 158.796875 256.789062 C 157.664062 256.320312 156.542969 255.824219 155.433594 255.300781 C 154.324219 254.773438 153.226562 254.222656 152.144531 253.644531 C 151.0625 253.066406 149.996094 252.460938 148.941406 251.828125 C 147.890625 251.199219 146.851562 250.542969 145.832031 249.859375 C 144.8125 249.179688 143.808594 248.472656 142.824219 247.742188 C 141.835938 247.007812 140.871094 246.253906 139.921875 245.476562 C 138.972656 244.695312 138.042969 243.894531 137.132812 243.070312 C 136.222656 242.246094 135.335938 241.402344 134.46875 240.53125 C 133.597656 239.664062 132.753906 238.777344 131.929688 237.867188 C 131.105469 236.957031 130.304688 236.027344 129.523438 235.078125 C 128.746094 234.128906 127.992188 233.164062 127.257812 232.175781 C 126.527344 231.191406 125.820312 230.1875 125.140625 229.167969 C 124.457031 228.148438 123.800781 227.109375 123.171875 226.058594 C 122.539062 225.003906 121.933594 223.9375 121.355469 222.855469 C 120.777344 221.773438 120.226562 220.675781 119.699219 219.566406 C 119.175781 218.457031 118.679688 217.335938 118.210938 216.203125 C 117.738281 215.066406 117.296875 213.921875 116.882812 212.765625 C 116.46875 211.609375 116.085938 210.445312 115.730469 209.269531 C 115.375 208.097656 115.046875 206.914062 114.746094 205.722656 C 114.449219 204.53125 114.179688 203.335938 113.941406 202.132812 C 113.703125 200.929688 113.492188 199.71875 113.3125 198.503906 C 113.132812 197.289062 112.980469 196.074219 112.859375 194.851562 C 112.742188 193.628906 112.652344 192.40625 112.589844 191.179688 C 112.53125 189.953125 112.5 188.726562 112.5 187.5 C 112.5 186.273438 112.53125 185.046875 112.589844 183.820312 C 112.652344 182.59375 112.742188 181.371094 112.859375 180.148438 C 112.980469 178.925781 113.132812 177.710938 113.3125 176.496094 C 113.492188 175.28125 113.703125 174.070312 113.941406 172.867188 C 114.179688 171.664062 114.449219 170.46875 114.746094 169.277344 C 115.046875 168.085938 115.375 166.902344 115.730469 165.730469 C 116.085938 164.554688 116.46875 163.390625 116.882812 162.234375 C 117.296875 161.078125 117.738281 159.933594 118.210938 158.796875 C 118.679688 157.664062 119.175781 156.542969 119.699219 155.433594 C 120.226562 154.324219 120.777344 153.226562 121.355469 152.144531 C 121.933594 151.0625 122.539062 149.996094 123.171875 148.941406 C 123.800781 147.890625 124.457031 146.851562 125.140625 145.832031 C 125.820312 144.8125 126.527344 143.808594 127.257812 142.824219 C 127.992188 141.835938 128.746094 140.871094 129.523438 139.921875 C 130.304688 138.972656 131.105469 138.042969 131.929688 137.132812 C 132.753906 136.222656 133.597656 135.335938 134.46875 134.46875 C 135.335938 133.597656 136.222656 132.753906 137.132812 131.929688 C 138.042969 131.105469 138.972656 130.304688 139.921875 129.523438 C 140.871094 128.746094 141.835938 127.992188 142.824219 127.257812 C 143.808594 126.527344 144.8125 125.820312 145.832031 125.140625 C 146.851562 124.457031 147.890625 123.800781 148.941406 123.171875 C 149.996094 122.539062 151.0625 121.933594 152.144531 121.355469 C 153.226562 120.777344 154.324219 120.226562 155.433594 119.699219 C 156.542969 119.175781 157.664062 118.679688 158.796875 118.210938 C 159.933594 117.738281 161.078125 117.296875 162.234375 116.882812 C 163.390625 116.46875 164.554688 116.085938 165.730469 115.730469 C 166.902344 115.375 168.085938 115.046875 169.277344 114.746094 C 170.46875 114.449219 171.664062 114.179688 172.867188 113.941406 C 174.070312 113.703125 175.28125 113.492188 176.496094 113.3125 C 177.710938 113.132812 178.925781 112.980469 180.148438 112.859375 C 181.371094 112.742188 182.59375 112.652344 183.820312 112.589844 C 185.046875 112.53125 186.273438 112.5 187.5 112.5 C 188.726562 112.5 189.953125 112.53125 191.179688 112.589844 C 192.40625 112.652344 193.628906 112.742188 194.851562 112.859375 C 196.074219 112.980469 197.289062 113.132812 198.503906 113.3125 C 199.71875 113.492188 200.929688 113.703125 202.132812 113.941406 C 203.335938 114.179688 204.53125 114.449219 205.722656 114.746094 C 206.914062 115.046875 208.097656 115.375 209.269531 115.730469 C 210.445312 116.085938 211.609375 116.46875 212.765625 116.882812 C 213.921875 117.296875 215.066406 117.738281 216.203125 118.210938 C 217.335938 118.679688 218.457031 119.175781 219.566406 119.699219 C 220.675781 120.226562 221.773438 120.777344 222.855469 121.355469 C 223.9375 121.933594 225.003906 122.539062 226.058594 123.171875 C 227.109375 123.800781 228.148438 124.457031 229.167969 125.140625 C 230.1875 125.820312 231.191406 126.527344 232.175781 127.257812 C 233.164062 127.992188 234.128906 128.746094 235.078125 129.523438 C 236.027344 130.304688 236.957031 131.105469 237.867188 131.929688 C 238.777344 132.753906 239.664062 133.597656 240.53125 134.46875 C 241.402344 135.335938 242.246094 136.222656 243.070312 137.132812 C 243.894531 138.042969 244.695312 138.972656 245.476562 139.921875 C 246.253906 140.871094 247.007812 141.835938 247.742188 142.824219 C 248.472656 143.808594 249.179688 144.8125 249.859375 145.832031 C 250.542969 146.851562 251.199219 147.890625 251.828125 148.941406 C 252.460938 149.996094 253.066406 151.0625 253.644531 152.144531 C 254.222656 153.226562 254.773438 154.324219 255.300781 155.433594 C 255.824219 156.542969 256.320312 157.664062 256.789062 158.796875 C 257.261719 159.933594 257.703125 161.078125 258.117188 162.234375 C 258.527344 163.390625 258.914062 164.554688 259.269531 165.730469 C 259.625 166.902344 259.953125 168.085938 260.253906 169.277344 C 260.550781 170.46875 260.820312 171.664062 261.058594 172.867188 C 261.296875 174.070312 261.507812 175.28125 261.6875 176.496094 C 261.867188 177.710938 262.019531 178.925781 262.140625 180.148438 C 262.257812 181.371094 262.347656 182.59375 262.410156 183.820312 C 262.46875 185.046875 262.5 186.273438 262.5 187.5 Z M 262.5 187.5 " fill-opacity="1" fill-rule="nonzero"/></g><path fill="#ffffff" d="M 148.105469 235.097656 C 143.582031 235.097656 139.902344 231.4375 139.902344 226.898438 C 139.902344 224.71875 140.765625 222.636719 142.304688 221.097656 L 183.164062 180.257812 C 187.582031 175.839844 190.023438 169.617188 189.84375 163.15625 C 189.503906 150.65625 199.363281 140.238281 211.863281 139.898438 C 214.445312 139.839844 217.003906 140.199219 219.464844 141 C 220.304688 141.257812 220.765625 142.15625 220.503906 143.019531 C 220.421875 143.257812 220.285156 143.476562 220.105469 143.65625 L 211.882812 151.878906 L 214.882812 160.136719 L 223.144531 163.136719 L 231.34375 154.898438 C 231.964844 154.277344 232.984375 154.277344 233.605469 154.898438 C 233.785156 155.078125 233.921875 155.296875 234.003906 155.539062 C 237.863281 167.4375 231.363281 180.199219 219.464844 184.078125 C 217.203125 184.816406 214.863281 185.179688 212.484375 185.179688 C 212.285156 185.179688 212.0625 185.179688 211.84375 185.179688 C 205.382812 185 199.164062 187.4375 194.742188 191.859375 L 153.902344 232.699219 C 152.363281 234.238281 150.285156 235.097656 148.105469 235.097656 Z M 143.445312 222.238281 L 144.582031 223.378906 C 142.664062 225.359375 142.722656 228.539062 144.703125 230.457031 C 146.644531 232.339844 149.703125 232.339844 151.644531 230.457031 L 192.503906 189.597656 C 197.542969 184.558594 204.625 181.777344 211.945312 181.976562 C 222.683594 182.257812 231.625 173.796875 231.902344 163.058594 C 231.945312 161.757812 231.84375 160.457031 231.625 159.179688 L 224.664062 166.097656 C 224.222656 166.539062 223.5625 166.679688 222.984375 166.476562 L 213.0625 162.878906 C 212.625 162.71875 212.265625 162.359375 212.105469 161.917969 L 208.503906 152 C 208.304688 151.417969 208.445312 150.757812 208.882812 150.316406 L 215.824219 143.378906 C 205.242188 141.519531 195.164062 148.597656 193.304688 159.179688 C 193.082031 160.457031 192.984375 161.757812 193.023438 163.058594 C 193.222656 170.378906 190.445312 177.457031 185.402344 182.5 L 144.5625 223.359375 Z M 143.445312 222.238281 " fill-opacity="1" fill-rule="nonzero"/><path fill="#ffffff" d="M 192.902344 183.699219 C 192.023438 183.699219 191.304688 182.976562 191.304688 182.097656 C 191.304688 181.777344 191.402344 181.457031 191.582031 181.199219 C 195.242188 175.839844 197.105469 169.457031 196.945312 162.976562 C 196.804688 158.71875 198.464844 154.578125 201.484375 151.578125 L 201.722656 151.339844 C 202.363281 150.71875 203.363281 150.738281 203.984375 151.378906 C 204.144531 151.539062 204.265625 151.738281 204.34375 151.9375 L 209.324219 165.679688 L 223.0625 170.65625 C 223.882812 170.957031 224.324219 171.878906 224.023438 172.71875 C 223.945312 172.917969 223.824219 173.117188 223.664062 173.277344 C 223.582031 173.359375 223.503906 173.4375 223.445312 173.519531 C 220.445312 176.539062 216.304688 178.199219 212.042969 178.058594 C 205.5625 177.878906 199.183594 179.757812 193.824219 183.417969 C 193.542969 183.597656 193.222656 183.699219 192.902344 183.699219 Z M 202.265625 155.617188 C 200.804688 157.757812 200.0625 160.296875 200.144531 162.878906 C 200.285156 168.058594 199.242188 173.179688 197.105469 177.898438 C 201.824219 175.757812 206.945312 174.71875 212.125 174.859375 C 214.703125 174.9375 217.242188 174.199219 219.382812 172.738281 L 207.523438 168.4375 C 207.082031 168.277344 206.722656 167.917969 206.5625 167.476562 Z M 202.265625 155.617188 " fill-opacity="1" fill-rule="nonzero"/><path fill="#ffffff" d="M 155.144531 230.796875 C 154.382812 230.796875 153.722656 230.257812 153.582031 229.519531 C 152.765625 225.4375 149.582031 222.257812 145.503906 221.4375 C 144.625 221.316406 144.003906 220.519531 144.125 219.636719 C 144.242188 218.757812 145.042969 218.136719 145.921875 218.257812 C 145.984375 218.257812 146.0625 218.277344 146.125 218.296875 C 151.464844 219.378906 155.625 223.539062 156.703125 228.878906 C 156.882812 229.738281 156.324219 230.578125 155.445312 230.757812 C 155.34375 230.777344 155.242188 230.796875 155.144531 230.796875 Z M 155.144531 230.796875 " fill-opacity="1" fill-rule="nonzero"/></svg>